<svg width="227" height="67" viewBox="0 0 227 67" fill="none" xmlns="http://www.w3.org/2000/svg">
<g clip-path="url(#clip0_463_8259)">
<path d="M93.3692 0C92.9074 0 92.4326 0.182775 92.0163 0.594018C91.0797 1.54053 66.4219 25.1968 43.3316 47.4105C36.1509 54.3233 29.1132 61.0925 22.9927 67H46.3431C49.4717 67 52.3921 65.4529 54.1613 62.868L95.0538 2.96356C95.9319 1.49484 94.7156 0 93.3692 0Z" fill="white"/>
<path d="M13.8672 53.5073C13.4444 53.4746 13.0346 53.4551 12.6053 53.4355C12.0655 53.4094 11.5517 53.3898 11.0638 53.3441C10.8037 53.318 10.537 53.3049 10.2508 53.2984C12.3907 54.2514 14.7583 54.7802 17.2494 54.7802C19.4999 54.7802 21.6528 54.3494 23.6236 53.5595C19.9942 53.6313 16.56 53.7031 13.8672 53.5138V53.5073Z" fill="white"/>
<path d="M15.4932 49.7474C15.7924 49.6494 16.0916 49.5319 16.4103 49.4144C16.9047 49.2317 17.4185 49.0489 17.9454 48.8988C18.6088 48.716 19.3438 48.4875 20.1243 48.259C23.3504 47.2734 27.7083 45.9548 32.3914 45.7785C32.6516 45.3085 32.8857 44.8255 33.1004 44.3294C27.949 44.3751 23.1943 45.8308 19.708 46.8882C18.934 47.1232 18.2055 47.3452 17.5616 47.5214C16.9697 47.6846 16.4299 47.887 15.903 48.0828C15.838 48.1024 15.7729 48.122 15.7079 48.1481C16.4754 47.7499 17.0868 47.3648 17.5291 47.0841L18.1665 46.6924C18.7649 46.3203 19.3893 45.9287 20.0397 45.6023C20.2804 45.4783 20.5406 45.3477 20.8073 45.2106C23.8383 43.6636 28.788 41.1439 34.1606 40.9742C34.2581 40.4976 34.3362 40.0081 34.3947 39.525C28.6124 39.6229 23.3634 42.2993 20.1568 43.9312C19.8902 44.0683 19.643 44.1988 19.3958 44.3163C18.6934 44.6754 18.0429 45.0801 17.412 45.4717L16.7746 45.8634C14.8428 47.071 9.41173 50.4719 2.73181 46.8295C3.27817 47.6781 3.89608 48.481 4.57903 49.2251C6.97912 50.0346 9.18407 50.0672 11.0963 49.7408C9.5288 50.1521 7.62955 50.4197 5.51565 50.1651C6.12055 50.733 6.75797 51.2487 7.43442 51.7122C10.4979 51.6534 12.9891 50.6939 14.5631 50.0868C14.9209 49.9497 15.2266 49.8257 15.4802 49.7474H15.4932Z" fill="white"/>
<path d="M13.2037 52.5151C13.594 52.4759 13.9907 52.4237 14.4265 52.3519C14.8883 52.2866 15.3697 52.2148 15.8445 52.1691C17.1648 52.0516 18.6738 51.8362 20.2739 51.6143C22.726 51.2683 25.4773 50.8832 28.3848 50.6939C28.9441 50.2173 29.471 49.7082 29.9653 49.1729C26.3814 49.31 23.0187 49.7865 20.0593 50.1978C18.4722 50.4197 16.9827 50.6351 15.7209 50.7396C15.194 50.7852 14.6932 50.8636 14.2054 50.9354C13.8021 50.9941 13.4249 51.0464 13.0541 51.0855C12.5078 51.1377 11.8638 51.2618 11.1093 51.4054C10.1402 51.5947 9.02797 51.8036 7.78564 51.9406C8.44258 52.378 9.12553 52.7631 9.841 53.1026C10.3939 53.0112 10.9077 52.9133 11.389 52.8154C12.098 52.6783 12.7094 52.5608 13.1907 52.5086L13.2037 52.5151Z" fill="white"/>
<path d="M22.6414 20.993C21.3406 20.5621 19.9682 20.288 18.5567 20.1835C17.5941 20.2553 16.651 20.2749 15.7079 20.2031C14.381 20.3141 13.0996 20.5882 11.8768 20.993C13.4964 21.463 15.181 21.698 16.9437 21.698C18.8169 21.698 20.7227 21.4303 22.6479 20.993H22.6414Z" fill="white"/>
<path d="M23.3114 24.0088C23.7992 23.839 24.274 23.6432 24.7554 23.4408C25.022 23.3299 25.2887 23.2254 25.5554 23.1145C25.8351 23.0035 26.1213 22.886 26.4075 22.775C25.8936 22.4421 25.3538 22.1484 24.8009 21.8807C24.6123 21.9525 24.4302 22.0309 24.248 22.1092L24.196 22.1288C23.7277 22.3181 23.2854 22.5074 22.8366 22.6641C18.7129 24.1328 13.8607 25.1837 8.59869 22.4682C8.13038 22.7424 7.67508 23.0361 7.23279 23.3625C9.84101 24.8639 12.5403 25.595 15.4217 25.595C18.4852 25.595 21.2495 24.7529 23.3179 24.0218L23.3114 24.0088Z" fill="white"/>
<path d="M14.0688 30.5429C17.4575 30.5429 20.4755 29.3745 22.4528 28.4867C22.8756 28.2974 23.2919 28.082 23.6951 27.8666C23.9943 27.7034 24.3391 27.5272 24.6708 27.3705C25.3017 27.0702 25.9651 26.7438 26.6936 26.3914C27.5457 25.9736 28.4368 25.5297 29.3669 25.0989C29.0026 24.7333 28.6124 24.3874 28.2156 24.0544C27.4676 24.4135 26.7457 24.7725 26.0432 25.1119C25.3537 25.4514 24.6903 25.7777 24.0659 26.0715C23.7146 26.2347 23.3764 26.4109 23.0317 26.5937C22.6414 26.8026 22.2642 26.9984 21.8739 27.1681C17.5421 29.1003 11.7467 30.7257 5.36602 26.0193C5.14488 25.8561 4.92373 25.7059 4.70258 25.5558C4.37086 25.9083 4.05215 26.2739 3.75946 26.6525C4.01313 26.8156 4.2668 26.9919 4.52046 27.1812C7.54496 29.4137 10.7581 30.5364 14.0753 30.5364L14.0688 30.5429Z" fill="white"/>
<path d="M12.898 35.5431C16.8981 35.5431 20.0657 33.7937 21.5877 32.9582C21.9715 32.7493 22.3422 32.5143 22.7065 32.2793C23.0512 32.0639 23.4089 31.8354 23.7732 31.6331C24.1244 31.4438 24.4887 31.2349 24.8724 31.0195C26.7261 29.975 29.0026 28.6956 31.5133 27.6904C31.2336 27.2791 30.9344 26.8809 30.6222 26.4958C28.1766 27.5076 25.9846 28.7478 24.1699 29.7596C23.7927 29.975 23.4285 30.1774 23.0772 30.3732C22.687 30.5886 22.3097 30.8302 21.926 31.0717C21.5877 31.2871 21.2365 31.509 20.8918 31.6983C18.3746 33.0822 11.6947 36.7573 4.05866 30.7649C3.3692 30.2231 2.67975 29.7596 1.97728 29.3484C1.75614 29.7727 1.548 30.21 1.35938 30.6474C1.97728 31.0064 2.58218 31.4177 3.18058 31.8942C6.25711 34.3094 9.52227 35.5366 12.885 35.5366L12.898 35.5431Z" fill="white"/>
<path d="M11.7012 40.576C12.2931 40.576 12.898 40.5368 13.4964 40.452C16.599 40.0146 18.9861 38.6046 20.7357 37.4166C21.0609 37.1947 21.3731 36.9597 21.6853 36.7312C22.0756 36.444 22.4789 36.1437 22.8886 35.8826L23.3309 35.5954C25.8026 34.0092 29.2759 31.7898 33.1654 30.7192C32.9768 30.2688 32.7752 29.8249 32.541 29.3941C28.5669 30.543 25.0741 32.7754 22.5634 34.3878L22.1211 34.675C21.6723 34.9622 21.2496 35.2755 20.8333 35.5823C20.5406 35.7977 20.2349 36.0262 19.9292 36.2286C17.7112 37.7365 10.9663 42.3189 2.79036 35.4975C1.99683 34.8317 1.1903 34.2833 0.37076 33.8264C0.260186 34.329 0.182135 34.8317 0.123596 35.3473C0.715487 35.7064 1.29437 36.1176 1.87325 36.6007C5.02784 39.2313 8.33852 40.5695 11.7012 40.5695V40.576Z" fill="white"/>
<path d="M19.8706 40.8828L20.1113 40.6739C20.7162 40.1582 21.3406 39.6229 21.9845 39.1529C24.5277 37.2991 28.9767 34.0483 34.011 33.3041C33.9004 32.8276 33.7638 32.3642 33.6077 31.9072C28.3392 32.7493 23.7797 36.0784 21.1455 37.9975C20.456 38.5002 19.8056 39.055 19.1812 39.5903L18.9405 39.7992C11.4866 46.1702 4.80018 42.1948 1.48299 39.2574C0.995166 38.82 0.494335 38.4414 -0.0130005 38.102C0.0130167 38.7548 0.0715554 39.3945 0.16912 40.0276C0.292702 40.119 0.416283 40.2235 0.533361 40.3344C9.0735 47.8935 16.3063 43.9247 19.8576 40.8893L19.8706 40.8828Z" fill="white"/>
<path d="M13.9712 46.5684C17.9649 45.4522 21.152 43.0957 22.4008 41.8685C22.9927 41.2941 23.9553 40.4063 24.7424 39.7992C27.2921 37.8213 30.3556 36.0393 34.4858 36.3069C34.4533 35.8173 34.4012 35.3343 34.3297 34.8643C29.8222 34.6489 26.466 36.6398 23.8643 38.6569C23.0382 39.2966 22.0236 40.23 21.4057 40.8306C20.339 41.875 17.3275 44.1271 13.607 45.165C8.83285 46.4966 4.54002 45.4718 0.852081 42.11C0.754516 42.0186 0.656952 41.9338 0.559387 41.8489C0.793542 42.7432 1.09924 43.6049 1.46348 44.4339C5.15142 47.0841 9.43775 47.8217 13.9778 46.5554L13.9712 46.5684Z" fill="white"/>
<path d="M112.102 5.25477C112.96 4.81742 113.916 4.60201 114.97 4.60201C116.212 4.60201 117.331 4.90228 118.333 5.4963C119.334 6.09032 120.128 6.94544 120.707 8.04209C121.286 9.13874 121.572 10.3986 121.572 11.8151C121.572 13.2316 121.279 14.498 120.707 15.6142C120.128 16.7369 119.334 17.5986 118.32 18.2187C117.305 18.8389 116.193 19.1522 114.97 19.1522C113.877 19.1522 112.921 18.9368 112.076 18.5125C111.236 18.0882 110.567 17.5398 110.072 16.874V18.9237H107.165V0H110.072V6.93891C110.573 6.25351 111.243 5.69213 112.108 5.2613L112.102 5.25477ZM118.014 9.2954C117.617 8.59041 117.09 8.04862 116.433 7.68307C115.776 7.31752 115.081 7.13474 114.333 7.13474C113.585 7.13474 112.908 7.32405 112.258 7.70265C111.607 8.08125 111.074 8.62305 110.677 9.34109C110.28 10.0591 110.079 10.9012 110.079 11.8738C110.079 12.8465 110.28 13.6951 110.677 14.4196C111.074 15.1442 111.601 15.6925 112.258 16.0711C112.915 16.4432 113.604 16.639 114.333 16.639C115.061 16.639 115.776 16.4497 116.433 16.0646C117.09 15.6795 117.617 15.1181 118.014 14.387C118.411 13.6494 118.612 12.8008 118.612 11.8281C118.612 10.8555 118.411 10.0134 118.014 9.30193V9.2954Z" fill="white"/>
<path d="M137.228 12.9705H126.496C126.58 14.0932 126.996 15.0006 127.744 15.6794C128.492 16.3648 129.41 16.6978 130.496 16.6978C132.063 16.6978 133.169 16.0385 133.813 14.7264H136.948C136.525 16.0254 135.751 17.0829 134.639 17.9119C133.52 18.7409 132.141 19.1522 130.496 19.1522C129.149 19.1522 127.946 18.8519 126.892 18.2448C125.826 17.6377 125 16.7891 124.395 15.686C123.79 14.5893 123.491 13.3099 123.491 11.8608C123.491 10.4116 123.783 9.13219 124.369 8.03554C124.954 6.93889 125.78 6.08377 126.84 5.48975C127.901 4.89573 129.123 4.59546 130.496 4.59546C131.868 4.59546 133 4.88268 134.041 5.46364C135.081 6.0446 135.888 6.86056 136.46 7.90499C137.039 8.94941 137.332 10.157 137.332 11.5213C137.332 12.0631 137.293 12.5396 137.228 12.9639V12.9705ZM134.294 10.614C134.281 9.54343 133.897 8.68178 133.149 8.02901C132.401 7.38277 131.478 7.05639 130.372 7.05639C129.37 7.05639 128.512 7.37625 127.796 8.01596C127.081 8.65567 126.658 9.51732 126.522 10.614H134.294Z" fill="white"/>
<path d="M140.096 8.0486C140.681 6.95195 141.495 6.09683 142.529 5.50281C143.569 4.90879 144.753 4.60852 146.1 4.60852C147.797 4.60852 149.202 5.01324 150.321 5.82267C151.433 6.6321 152.188 7.7875 152.578 9.28886H149.443C149.189 8.5904 148.779 8.04207 148.22 7.65041C147.654 7.25875 146.952 7.06292 146.1 7.06292C144.909 7.06292 143.96 7.4807 143.257 8.32929C142.555 9.17136 142.197 10.3594 142.197 11.8738C142.197 13.3882 142.548 14.5763 143.257 15.4314C143.966 16.2865 144.909 16.7108 146.1 16.7108C147.784 16.7108 148.896 15.9667 149.443 14.4849H152.578C152.168 15.9144 151.407 17.0568 150.282 17.8989C149.163 18.7409 147.765 19.1652 146.1 19.1652C144.753 19.1652 143.569 18.865 142.529 18.2579C141.488 17.6508 140.681 16.8022 140.096 15.699C139.504 14.6024 139.218 13.323 139.218 11.8738C139.218 10.4247 139.504 9.14525 140.09 8.0486H140.096Z" fill="white"/>
<path d="M161.04 11.8999L167.518 18.9368H163.59L158.386 12.8726V18.9368H155.479V0H158.386V10.9991L163.486 4.837H167.512L161.033 11.8999H161.04Z" fill="white"/>
<path d="M179.668 5.30045C180.54 5.76391 181.229 6.44279 181.717 7.35014C182.205 8.25096 182.459 9.34761 182.459 10.627V18.9433H179.577V11.0644C179.577 9.80454 179.258 8.83192 178.634 8.15957C178.01 7.48722 177.145 7.14778 176.065 7.14778C174.985 7.14778 174.114 7.48722 173.476 8.15957C172.839 8.83192 172.52 9.80454 172.52 11.0644V18.9433H169.613V4.83699H172.52V6.44932C172.995 5.86836 173.606 5.41795 174.341 5.09157C175.083 4.77171 175.863 4.60199 176.702 4.60199C177.808 4.60199 178.797 4.83699 179.675 5.29392L179.668 5.30045Z" fill="white"/>
<path d="M109.662 41.0982C108.596 40.4911 107.75 39.6425 107.139 38.5394C106.527 37.4427 106.222 36.1633 106.222 34.7141C106.222 33.265 106.534 32.0117 107.165 30.902C107.796 29.7923 108.654 28.9437 109.741 28.3431C110.833 27.7491 112.043 27.4489 113.389 27.4489C114.736 27.4489 115.946 27.7491 117.038 28.3431C118.131 28.9372 118.983 29.7923 119.614 30.902C120.245 32.0117 120.557 33.2846 120.557 34.7141C120.557 36.1437 120.238 37.4166 119.588 38.5263C118.944 39.636 118.066 40.4911 116.947 41.0982C115.829 41.7053 114.606 42.0056 113.266 42.0056C111.945 42.0056 110.742 41.7118 109.669 41.1047L109.662 41.0982ZM115.36 38.9376C116.017 38.5785 116.544 38.0433 116.954 37.3252C117.364 36.6072 117.565 35.739 117.565 34.7207C117.565 33.7024 117.37 32.8342 116.973 32.1227C116.583 31.4111 116.063 30.8824 115.419 30.5234C114.775 30.1644 114.072 29.9816 113.324 29.9816C112.576 29.9816 111.88 30.1578 111.249 30.5234C110.612 30.8889 110.105 31.4177 109.727 32.1227C109.35 32.8277 109.168 33.6958 109.168 34.7207C109.168 36.2416 109.558 37.4101 110.332 38.2391C111.106 39.0681 112.076 39.4793 113.253 39.4793C114.014 39.4793 114.716 39.2966 115.367 38.9376H115.36Z" fill="white"/>
<path d="M128.356 28.1081C129.201 27.6643 130.164 27.4423 131.237 27.4423C132.46 27.4423 133.579 27.7426 134.587 28.3497C135.602 28.9567 136.395 29.8053 136.974 30.8955C137.553 31.9921 137.839 33.2389 137.839 34.6619C137.839 36.085 137.553 37.3448 136.974 38.461C136.395 39.5838 135.602 40.4454 134.587 41.0656C133.572 41.6857 132.46 41.999 131.237 41.999C130.171 41.999 129.214 41.7836 128.382 41.3463C127.549 40.9089 126.866 40.3736 126.339 39.7209V48.4745H123.432V27.6708H126.339V29.7466C126.827 29.1003 127.504 28.552 128.356 28.1081ZM134.288 32.1422C133.891 31.4373 133.364 30.8955 132.707 30.5299C132.05 30.1644 131.354 29.9816 130.606 29.9816C129.858 29.9816 129.182 30.1709 128.531 30.5495C127.875 30.9216 127.348 31.4699 126.951 32.1879C126.554 32.906 126.352 33.748 126.352 34.7207C126.352 35.6933 126.554 36.5419 126.951 37.2665C127.348 37.991 127.875 38.5394 128.531 38.918C129.188 39.29 129.878 39.4859 130.606 39.4859C131.335 39.4859 132.057 39.2966 132.707 38.9114C133.358 38.5263 133.891 37.9649 134.288 37.2338C134.685 36.4962 134.886 35.6476 134.886 34.675C134.886 33.7024 134.685 32.8538 134.288 32.1488V32.1422Z" fill="white"/>
<path d="M153.488 35.8108H142.756C142.841 36.9336 143.257 37.8409 144.005 38.5198C144.753 39.2052 145.67 39.5381 146.756 39.5381C148.324 39.5381 149.43 38.8788 150.074 37.5667H153.209C152.786 38.8657 152.012 39.9232 150.9 40.7522C149.781 41.5813 148.402 41.9925 146.756 41.9925C145.41 41.9925 144.207 41.6922 143.153 41.0851C142.086 40.4781 141.26 39.6295 140.655 38.5263C140.051 37.4297 139.751 36.1502 139.751 34.7011C139.751 33.2519 140.044 31.9725 140.629 30.8759C141.215 29.7792 142.041 28.9241 143.101 28.3301C144.168 27.7361 145.384 27.4358 146.756 27.4358C148.129 27.4358 149.261 27.723 150.301 28.304C151.342 28.8849 152.149 29.7009 152.727 30.7453C153.306 31.7897 153.592 32.9974 153.592 34.3616C153.592 34.8969 153.56 35.38 153.488 35.8043V35.8108ZM150.561 33.4543C150.548 32.3838 150.165 31.5221 149.417 30.8693C148.669 30.2231 147.745 29.8967 146.639 29.8967C145.638 29.8967 144.779 30.2166 144.07 30.8563C143.355 31.496 142.925 32.3577 142.795 33.4543H150.568H150.561Z" fill="white"/>
<path d="M166.51 28.1343C167.388 28.5977 168.071 29.2766 168.559 30.1839C169.047 31.0848 169.3 32.1814 169.3 33.4608V41.7771H166.419V33.8982C166.419 32.6383 166.1 31.6657 165.476 30.9934C164.845 30.321 163.986 29.9816 162.9 29.9816C161.814 29.9816 160.949 30.321 160.311 30.9934C159.674 31.6657 159.355 32.6383 159.355 33.8982V41.7771H156.448V27.6773H159.355V29.2897C159.83 28.7087 160.442 28.2583 161.177 27.9319C161.911 27.612 162.699 27.4423 163.531 27.4423C164.65 27.4423 165.638 27.6773 166.51 28.1343Z" fill="white"/>
<path d="M107.074 55.8834C107.659 54.7867 108.472 53.9316 109.506 53.3376C110.547 52.7436 111.731 52.4433 113.077 52.4433C114.775 52.4433 116.18 52.848 117.299 53.6574C118.411 54.4669 119.165 55.6223 119.556 57.1236H116.42C116.167 56.4252 115.757 55.8769 115.198 55.4852C114.632 55.0935 113.929 54.8977 113.077 54.8977C111.887 54.8977 110.937 55.3155 110.235 56.1641C109.532 57.0061 109.175 58.1942 109.175 59.7086C109.175 61.223 109.526 62.4111 110.235 63.2662C110.944 64.1213 111.887 64.5456 113.077 64.5456C114.762 64.5456 115.874 63.8014 116.42 62.3197H119.556C119.146 63.7492 118.385 64.8916 117.259 65.7336C116.141 66.5757 114.742 67 113.077 67C111.737 67 110.547 66.6997 109.506 66.0927C108.466 65.4856 107.659 64.637 107.074 63.5338C106.488 62.4372 106.196 61.1577 106.196 59.7086C106.196 58.2595 106.488 56.9866 107.067 55.8834H107.074Z" fill="white"/>
<path d="M124.967 66.0927C123.9 65.4856 123.055 64.637 122.443 63.5338C121.832 62.4372 121.526 61.1577 121.526 59.7086C121.526 58.2595 121.845 57.0061 122.469 55.8964C123.1 54.7867 123.959 53.9381 125.045 53.3376C126.138 52.7436 127.348 52.4433 128.694 52.4433C130.04 52.4433 131.25 52.7436 132.343 53.3376C133.436 53.9316 134.288 54.7867 134.919 55.8964C135.55 57.0061 135.862 58.279 135.862 59.7086C135.862 61.1382 135.543 62.4111 134.893 63.5208C134.249 64.6305 133.371 65.4856 132.252 66.0927C131.14 66.6997 129.91 67 128.57 67C127.244 67 126.047 66.6997 124.974 66.0992L124.967 66.0927ZM130.665 63.932C131.322 63.573 131.849 63.0377 132.258 62.3197C132.668 61.6016 132.87 60.7334 132.87 59.7151C132.87 58.6968 132.675 57.8286 132.284 57.1171C131.894 56.4056 131.374 55.8769 130.73 55.5178C130.086 55.1588 129.384 54.976 128.636 54.976C127.888 54.976 127.192 55.1523 126.561 55.5178C125.923 55.8834 125.422 56.4121 125.045 57.1171C124.668 57.8221 124.479 58.6903 124.479 59.7151C124.479 61.2361 124.87 62.4045 125.644 63.2335C126.418 64.0626 127.393 64.4738 128.564 64.4738C129.318 64.4738 130.021 64.291 130.678 63.932H130.665Z" fill="white"/>
<path d="M141.638 47.8348V66.765H138.73V47.8348H141.638Z" fill="white"/>
<path d="M148.363 47.8348V66.765H145.456V47.8348H148.363Z" fill="white"/>
<path d="M164.962 60.8052H154.23C154.321 61.928 154.731 62.8353 155.479 63.5142C156.227 64.1996 157.144 64.5325 158.23 64.5325C159.798 64.5325 160.903 63.8732 161.547 62.5612H164.682C164.26 63.8602 163.492 64.9177 162.373 65.7467C161.255 66.5757 159.876 66.9869 158.23 66.9869C156.884 66.9869 155.68 66.6867 154.627 66.0796C153.56 65.4725 152.734 64.6239 152.129 63.5207C151.524 62.4241 151.225 61.1447 151.225 59.6955C151.225 58.2464 151.518 56.967 152.103 55.8703C152.695 54.7737 153.514 53.9185 154.581 53.3245C155.648 52.7305 156.864 52.4302 158.237 52.4302C159.609 52.4302 160.741 52.7175 161.781 53.2984C162.822 53.8794 163.629 54.6953 164.207 55.7398C164.786 56.7842 165.073 57.9918 165.073 59.3561C165.073 59.8979 165.034 60.3744 164.968 60.7987L164.962 60.8052ZM162.035 58.4487C162.022 57.3782 161.638 56.5166 160.89 55.8638C160.142 55.2176 159.219 54.8912 158.113 54.8912C157.111 54.8912 156.253 55.211 155.537 55.8507C154.822 56.4904 154.399 57.3521 154.262 58.4487H162.042H162.035Z" fill="white"/>
<path d="M167.837 55.8834C168.422 54.7867 169.235 53.9316 170.27 53.3376C171.31 52.7436 172.494 52.4433 173.84 52.4433C175.538 52.4433 176.943 52.848 178.062 53.6574C179.174 54.4669 179.928 55.6223 180.319 57.1236H177.184C176.93 56.4252 176.52 55.8769 175.961 55.4852C175.401 55.0935 174.692 54.8977 173.84 54.8977C172.65 54.8977 171.7 55.3155 170.998 56.1641C170.289 57.0061 169.938 58.1942 169.938 59.7086C169.938 61.223 170.289 62.4111 170.998 63.2662C171.7 64.1213 172.65 64.5456 173.84 64.5456C175.525 64.5456 176.637 63.8014 177.184 62.3197H180.319C179.909 63.7492 179.148 64.8916 178.023 65.7336C176.904 66.5757 175.506 67 173.84 67C172.494 67 171.31 66.6997 170.27 66.0927C169.229 65.4856 168.422 64.637 167.837 63.5338C167.252 62.4372 166.959 61.1577 166.959 59.7086C166.959 58.2595 167.245 56.9866 167.83 55.8834H167.837Z" fill="white"/>
<path d="M186.615 55.0543V62.8549C186.615 63.3836 186.738 63.7623 186.986 63.9972C187.233 64.2257 187.649 64.3432 188.247 64.3432H190.036V66.7715H187.74C186.433 66.7715 185.431 66.4647 184.735 65.8511C184.039 65.231 183.694 64.2388 183.694 62.8549V55.0543H182.036V52.6717H183.694V49.1664H186.628V52.6717H190.043V55.0543H186.615Z" fill="white"/>
<path d="M192.859 50.2696C192.501 49.9106 192.319 49.4667 192.319 48.938C192.319 48.4092 192.495 47.9653 192.859 47.6063C193.217 47.2473 193.659 47.0645 194.186 47.0645C194.713 47.0645 195.129 47.2408 195.487 47.6063C195.844 47.9653 196.027 48.4092 196.027 48.938C196.027 49.4667 195.844 49.9106 195.487 50.2696C195.129 50.6286 194.693 50.8114 194.186 50.8114C193.678 50.8114 193.217 50.6286 192.859 50.2696ZM195.61 52.6783V66.7781H192.703V52.6783H195.61Z" fill="white"/>
<path d="M204.866 64.1605L208.846 52.6718H211.93L206.57 66.7715H203.103L197.77 52.6718H200.879L204.859 64.1605H204.866Z" fill="white"/>
<path d="M226.896 60.8052H216.164C216.248 61.928 216.665 62.8353 217.413 63.5142C218.161 64.1996 219.078 64.5325 220.164 64.5325C221.732 64.5325 222.837 63.8732 223.481 62.5612H226.616C226.193 63.8602 225.426 64.9177 224.307 65.7467C223.195 66.5757 221.81 66.9869 220.164 66.9869C218.818 66.9869 217.614 66.6867 216.561 66.0796C215.494 65.4725 214.661 64.6239 214.063 63.5207C213.458 62.4241 213.159 61.1447 213.159 59.6955C213.159 58.2464 213.452 56.967 214.037 55.8703C214.622 54.7737 215.448 53.9185 216.509 53.3245C217.575 52.7305 218.792 52.4302 220.164 52.4302C221.536 52.4302 222.668 52.7175 223.709 53.2984C224.75 53.8794 225.55 54.6953 226.128 55.7398C226.707 56.7842 226.994 57.9918 226.994 59.3561C226.994 59.8979 226.961 60.3744 226.889 60.7987L226.896 60.8052ZM223.963 58.4487C223.949 57.3782 223.566 56.5166 222.818 55.8638C222.07 55.2176 221.146 54.8912 220.04 54.8912C219.039 54.8912 218.18 55.211 217.465 55.8507C216.749 56.4904 216.326 57.3521 216.19 58.4487H223.963Z" fill="white"/>
</g>
<defs>
<clipPath id="clip0_463_8259">
<rect width="227" height="67" fill="white"/>
</clipPath>
</defs>
</svg>
