<svg width="92" height="101" viewBox="0 0 92 101" fill="none" xmlns="http://www.w3.org/2000/svg">
<path d="M46.08 98.946H51.8949C56.9109 99.2914 56.568 94.4655 56.568 94.4655V81.7151C56.568 81.7151 55.9989 76.3158 61.4709 70.2843C66.5041 64.7398 70.7075 56.6702 69.2229 46.103C69.2229 46.103 68.0641 31.722 52.488 27.6077C47.9828 26.4159 43.2582 26.4159 38.7531 27.6077C23.177 31.7254 22.0182 46.103 22.0182 46.103C20.537 56.6702 24.737 64.7398 29.7702 70.2843C35.2422 76.3158 34.6731 81.7151 34.6731 81.7151V94.4655C34.6731 94.4655 34.3302 99.2914 39.3462 98.946H45.1611H46.08Z" stroke="#000" stroke-width="4" stroke-miterlimit="10"/>
<path d="M34.6768 84.5479H56.5683" stroke="#000" stroke-width="4" stroke-miterlimit="10"/>
<path d="M34.6768 91.3262H56.5683" stroke="#000" stroke-width="4" stroke-miterlimit="10"/>
<path d="M30.0696 50.7377C30.0696 50.7377 30.2301 38.4851 39.9651 36.0037" stroke="#000" stroke-width="4" stroke-miterlimit="10"/>
<path d="M45.6241 0V18.3812" stroke="#000" stroke-width="4" stroke-miterlimit="10"/>
<path d="M79.6426 13.7178L66.7443 26.7135" stroke="#000" stroke-width="4" stroke-miterlimit="10"/>
<path d="M11.4686 13.7178L24.367 26.7135" stroke="#000" stroke-width="4" stroke-miterlimit="10"/>
<path d="M76.1626 49.627H91.6667" stroke="#000" stroke-width="4" stroke-miterlimit="10"/>
<path d="M0 49.627H15.5075" stroke="#000" stroke-width="4" stroke-miterlimit="10"/>
</svg>
