<svg width="69" height="64" viewBox="0 0 69 64" fill="none" xmlns="http://www.w3.org/2000/svg">
<path d="M63.771 24.1535H63.6849L58.1215 2.33855C57.9492 1.66924 57.5593 1.07597 57.0125 0.652477C56.4663 0.22905 55.7944 -0.000468392 55.1027 1.2005e-05H13.8972C13.2066 -0.00191254 12.5351 0.227609 11.9902 0.651516C11.4449 1.07542 11.0575 1.66918 10.889 2.33845L5.31502 24.1534H5.22886C3.84319 24.1563 2.51481 24.7077 1.53489 25.6878C0.554467 26.6675 0.00283394 27.9955 0 29.3807V47.7036C0.00288791 49.0888 0.554467 50.4168 1.53489 51.3965C2.51483 52.3766 3.84319 52.9281 5.22886 52.9309H7.54678V58.1799C7.54678 60.2591 8.65619 62.1808 10.4577 63.2201C12.2593 64.2599 14.4781 64.2599 16.2796 63.2201C18.0811 62.1808 19.1906 60.2591 19.1906 58.1799V52.9741H49.8526V58.2232V58.2227C49.9392 60.2445 51.0688 62.0768 52.8362 63.0632C54.6036 64.0501 56.7559 64.0501 58.5233 63.0632C60.2907 62.0768 61.4198 60.2445 61.507 58.2227V52.9742H63.771C65.1567 52.9713 66.4851 52.4194 67.465 51.4397C68.4454 50.4601 68.9971 49.1321 68.9999 47.7468V29.424C69.0086 28.031 68.4618 26.6919 67.4804 25.7026C66.4995 24.7138 65.1643 24.1561 63.771 24.1533L63.771 24.1535ZM12.9375 2.8559C13.0709 2.41515 13.4694 2.10769 13.9295 2.09037H55.103C55.5631 2.10769 55.9616 2.41515 56.0949 2.8559L61.4856 24.1535H55.7498L51.9225 7.78182C51.7988 7.32134 51.3863 6.99655 50.9094 6.98452H18.0911C17.6141 6.99655 17.2016 7.32134 17.078 7.78182L13.2507 24.1535H7.47164L12.9375 2.8559ZM53.6046 24.1535H15.3957L18.9212 9.06411H50.0798L53.6046 24.1535ZM17.0455 58.2235C16.9767 59.5101 16.2499 60.6707 15.1223 61.2948C13.9946 61.9189 12.6252 61.9189 11.4975 61.2948C10.3703 60.6708 9.64352 59.5102 9.57427 58.2235V52.975H17.0456L17.0455 58.2235ZM59.4166 58.2235C59.3478 59.5101 58.621 60.6707 57.4934 61.2948C56.3657 61.9189 54.9963 61.9189 53.8686 61.2948C52.7414 60.6708 52.0146 59.5102 51.9454 58.2235V52.975H59.4167L59.4166 58.2235ZM66.9635 47.747V47.7475C66.9635 48.579 66.6333 49.3768 66.0447 49.9652C65.4566 50.5532 64.6585 50.8838 63.8263 50.8838H5.23034C4.39816 50.8838 3.6002 50.5532 3.01198 49.9652C2.42334 49.3768 2.09316 48.579 2.09316 47.7475V29.4247C2.09316 28.5927 2.42334 27.795 3.01198 27.2065C3.60013 26.6185 4.39814 26.2879 5.23034 26.2879H63.7721C64.6043 26.2879 65.4023 26.6185 65.9905 27.2065C66.5791 27.7949 66.9093 28.5927 66.9093 29.4247L66.9635 47.747Z" fill="white"/>
<path d="M13.8321 32.8733C12.3222 32.8733 10.8744 33.4729 9.8069 34.5401C8.73936 35.6073 8.13969 37.0546 8.13969 38.5641C8.13969 40.0735 8.7394 41.5208 9.8069 42.5881C10.8744 43.6553 12.3222 44.2548 13.8321 44.2548C15.342 44.2548 16.7897 43.6553 17.8573 42.5881C18.9248 41.5208 19.5245 40.0735 19.5245 38.5641C19.5216 37.0556 18.9214 35.6097 17.8543 34.5429C16.7872 33.476 15.341 32.8762 13.832 32.8732L13.8321 32.8733ZM13.8321 42.1637C12.8772 42.1637 11.9612 41.7846 11.286 41.1095C10.6107 40.4344 10.2314 39.5188 10.2314 38.5641C10.2314 37.6095 10.6107 36.6938 11.286 36.0188C11.9613 35.3432 12.8772 34.964 13.8321 34.964C14.787 34.964 15.703 35.3432 16.3782 36.0188C17.054 36.6938 17.4332 37.6095 17.4332 38.5641C17.4303 39.5178 17.0501 40.432 16.3753 41.1066C15.7005 41.7808 14.7865 42.1608 13.8321 42.1637Z" fill="white"/>
<path d="M55.1682 32.8733C53.6583 32.8733 52.2105 33.4729 51.143 34.5401C50.0754 35.6073 49.4758 37.0546 49.4758 38.5641C49.4758 40.0735 50.0755 41.5208 51.143 42.5881C52.2105 43.6553 53.6583 44.2548 55.1682 44.2548C56.678 44.2548 58.1258 43.6553 59.1934 42.5881C60.2609 41.5209 60.8606 40.0735 60.8606 38.5641C60.8577 37.0556 60.257 35.6097 59.1899 34.5429C58.1233 33.4761 56.6769 32.8762 55.168 32.8732L55.1682 32.8733ZM55.1682 42.1637C54.2133 42.1637 53.2973 41.7846 52.6221 41.1095C51.9463 40.4344 51.567 39.5188 51.567 38.5641C51.567 37.6095 51.9463 36.6938 52.6221 36.0188C53.2973 35.3432 54.2133 34.964 55.1682 34.964C56.1231 34.964 57.0391 35.3432 57.7143 36.0188C58.3896 36.6938 58.7688 37.6095 58.7688 38.5641C58.7659 39.5178 58.3857 40.432 57.7114 41.1066C57.0366 41.7808 56.1222 42.1608 55.1682 42.1637Z" fill="white"/>
<path d="M40.7853 34.6089H28.2149C27.7351 34.7292 27.3986 35.1599 27.3986 35.6545C27.3986 36.1487 27.7351 36.5798 28.2149 36.7001H40.7853C41.2652 36.5798 41.6016 36.1487 41.6016 35.6545C41.6016 35.1599 41.2652 34.7292 40.7853 34.6089Z" fill="white"/>
<path d="M40.7853 40.4291H28.2149C27.8905 40.3411 27.544 40.4089 27.2774 40.6129C27.0107 40.8169 26.8538 41.1336 26.8538 41.4694C26.8538 41.8048 27.0107 42.1214 27.2774 42.3254C27.544 42.5294 27.8905 42.5972 28.2149 42.5092H40.7853C41.1097 42.5972 41.4563 42.5294 41.7229 42.3254C41.9896 42.1214 42.1465 41.8048 42.1465 41.4694C42.1465 41.1335 41.9896 40.8169 41.7229 40.6129C41.4563 40.4089 41.1097 40.3411 40.7853 40.4291Z" fill="white"/>
</svg>
