<svg width="27" height="27" viewBox="0 0 27 27" fill="none" xmlns="http://www.w3.org/2000/svg">
<path d="M0.567857 25.9321C0.946428 26.3107 1.325 26.5 1.89286 26.5C2.46071 26.5 2.83928 26.3107 3.21786 25.9321L13.25 15.9L23.2821 25.9321C23.6607 26.3107 24.2286 26.5 24.6071 26.5C24.9857 26.5 25.5536 26.3107 25.9321 25.9321C26.6893 25.175 26.6893 24.0393 25.9321 23.2821L15.9 13.25L25.9321 3.21786C26.6893 2.46071 26.6893 1.325 25.9321 0.567857C25.175 -0.189286 24.0393 -0.189286 23.2821 0.567857L13.25 10.6L3.21786 0.567857C2.46071 -0.189286 1.325 -0.189286 0.567857 0.567857C-0.189286 1.325 -0.189286 2.46071 0.567857 3.21786L10.6 13.25L0.567857 23.2821C-0.189286 24.0393 -0.189286 25.175 0.567857 25.9321Z" fill="white"/>
</svg>
