<svg width="116" height="116" viewBox="0 0 116 116" fill="none" xmlns="http://www.w3.org/2000/svg">
<path d="M58 3C27.6744 3 3 27.6721 3 58C3 88.3279 27.6744 113 58 113C88.3256 113 113 88.3279 113 58C113 27.6721 88.3256 3 58 3ZM58 101.542C33.9925 101.542 14.4583 82.0098 14.4583 58C14.4583 33.9902 33.9925 14.4583 58 14.4583C82.0075 14.4583 101.539 33.9902 101.539 58C101.539 82.0098 82.0075 101.542 58 101.542Z" stroke="#000" stroke-width="5" stroke-miterlimit="10" stroke-linecap="round" stroke-linejoin="round"/>
<path d="M100.268 51.125C81.9344 51.125 73.1321 39.6667 58.0003 39.6667C42.8455 39.6667 35.2119 51.125 15.7327 51.125M67.1669 96.9583C67.1669 96.9583 67.1669 82.7385 67.1669 78.625C67.1669 72.4742 72.3461 67.1667 78.6253 67.1667C81.4692 67.1667 99.3786 67.1667 99.3786 67.1667M15.7327 67.1667C15.7327 67.1667 34.8475 67.1667 37.3753 67.1667C43.9867 67.1667 48.8336 72.2771 48.8336 78.625C48.8336 82.8806 48.8336 96.9583 48.8336 96.9583" stroke="#000" stroke-width="5" stroke-miterlimit="10" stroke-linecap="round" stroke-linejoin="round"/>
<path d="M58 67.1667C63.0626 67.1667 67.1667 63.0626 67.1667 58C67.1667 52.9374 63.0626 48.8333 58 48.8333C52.9374 48.8333 48.8333 52.9374 48.8333 58C48.8333 63.0626 52.9374 67.1667 58 67.1667Z" stroke="#000" stroke-width="5" stroke-miterlimit="10" stroke-linecap="round" stroke-linejoin="round"/>
</svg>
