<svg width="100" height="100" viewBox="0 0 100 100" fill="none" xmlns="http://www.w3.org/2000/svg">
<rect x="1" y="1" width="98" height="98" rx="49" fill="url(#paint0_linear_4981_11518)" stroke="#B0B0B0" stroke-width="2"/>
<path d="M24.3144 48.08C23.9944 47.344 23.5037 46.768 22.8424 46.352C22.1917 45.9253 21.4237 45.712 20.5384 45.712C19.7064 45.712 18.9597 45.904 18.2984 46.288C17.637 46.672 17.1144 47.2213 16.7304 47.936C16.3464 48.64 16.1544 49.4613 16.1544 50.4C16.1544 51.3387 16.3464 52.1653 16.7304 52.88C17.1144 53.5947 17.637 54.144 18.2984 54.528C18.9597 54.912 19.7064 55.104 20.5384 55.104C21.317 55.104 22.0157 54.9387 22.6344 54.608C23.2637 54.2667 23.765 53.7867 24.1384 53.168C24.5224 52.5387 24.741 51.808 24.7944 50.976H20.0904V50.064H25.9784V50.88C25.925 51.8613 25.6584 52.752 25.1784 53.552C24.6984 54.3413 24.053 54.9653 23.2424 55.424C22.4424 55.8827 21.541 56.112 20.5384 56.112C19.5037 56.112 18.565 55.872 17.7224 55.392C16.8797 54.9013 16.213 54.224 15.7224 53.36C15.2424 52.4853 15.0024 51.4987 15.0024 50.4C15.0024 49.3013 15.2424 48.32 15.7224 47.456C16.213 46.5813 16.8797 45.904 17.7224 45.424C18.565 44.9333 19.5037 44.688 20.5384 44.688C21.733 44.688 22.7784 44.9867 23.6744 45.584C24.5704 46.1813 25.221 47.0133 25.6264 48.08H24.3144ZM27.518 51.616C27.518 50.72 27.694 49.936 28.046 49.264C28.4087 48.5813 28.9047 48.0587 29.534 47.696C30.174 47.3227 30.894 47.136 31.694 47.136C32.526 47.136 33.2407 47.328 33.838 47.712C34.446 48.096 34.8833 48.5867 35.15 49.184V47.264H36.27V56H35.15V54.064C34.8727 54.6613 34.43 55.1573 33.822 55.552C33.2247 55.936 32.51 56.128 31.678 56.128C30.8887 56.128 30.174 55.9413 29.534 55.568C28.9047 55.1947 28.4087 54.6667 28.046 53.984C27.694 53.3013 27.518 52.512 27.518 51.616ZM35.15 51.632C35.15 50.928 35.006 50.3093 34.718 49.776C34.43 49.2427 34.0353 48.832 33.534 48.544C33.0433 48.256 32.4993 48.112 31.902 48.112C31.2833 48.112 30.7287 48.2507 30.238 48.528C29.7473 48.8053 29.358 49.2107 29.07 49.744C28.7927 50.2667 28.654 50.8907 28.654 51.616C28.654 52.3307 28.7927 52.96 29.07 53.504C29.358 54.0373 29.7473 54.448 30.238 54.736C30.7287 55.0133 31.2833 55.152 31.902 55.152C32.4993 55.152 33.0433 55.008 33.534 54.72C34.0353 54.432 34.43 54.0213 34.718 53.488C35.006 52.9547 35.15 52.336 35.15 51.632ZM40.2829 48.208V53.632C40.2829 54.1653 40.3842 54.5333 40.5869 54.736C40.7895 54.9387 41.1469 55.04 41.6589 55.04H42.6829V56H41.4829C40.6935 56 40.1069 55.8187 39.7229 55.456C39.3389 55.0827 39.1469 54.4747 39.1469 53.632V48.208H37.9309V47.264H39.1469V45.072H40.2829V47.264H42.6829V48.208H40.2829ZM52.434 51.184C52.434 51.568 52.4233 51.8613 52.402 52.064H45.154C45.186 52.7253 45.346 53.2907 45.634 53.76C45.922 54.2293 46.3007 54.5867 46.77 54.832C47.2393 55.0667 47.7513 55.184 48.306 55.184C49.0313 55.184 49.6393 55.008 50.13 54.656C50.6313 54.304 50.962 53.8293 51.122 53.232H52.306C52.0927 54.0853 51.634 54.784 50.93 55.328C50.2367 55.8613 49.362 56.128 48.306 56.128C47.4847 56.128 46.7487 55.9467 46.098 55.584C45.4473 55.2107 44.9353 54.688 44.562 54.016C44.1993 53.3333 44.018 52.5387 44.018 51.632C44.018 50.7253 44.1993 49.9307 44.562 49.248C44.9247 48.5653 45.4313 48.0427 46.082 47.68C46.7327 47.3173 47.474 47.136 48.306 47.136C49.138 47.136 49.8633 47.3173 50.482 47.68C51.1113 48.0427 51.5913 48.5333 51.922 49.152C52.2633 49.76 52.434 50.4373 52.434 51.184ZM51.298 51.152C51.3087 50.5013 51.1753 49.9467 50.898 49.488C50.6313 49.0293 50.2633 48.6827 49.794 48.448C49.3247 48.2133 48.8127 48.096 48.258 48.096C47.426 48.096 46.7167 48.3627 46.13 48.896C45.5433 49.4293 45.218 50.1813 45.154 51.152H51.298ZM66.0031 47.264L63.2671 56H62.1471L59.7311 48.672L57.3151 56H56.1791L53.4431 47.264H54.5791L56.7551 54.864L59.2031 47.264H60.3231L62.7391 54.88L64.8991 47.264H66.0031ZM67.018 51.616C67.018 50.72 67.194 49.936 67.546 49.264C67.9087 48.5813 68.4047 48.0587 69.034 47.696C69.674 47.3227 70.394 47.136 71.194 47.136C72.026 47.136 72.7407 47.328 73.338 47.712C73.946 48.096 74.3833 48.5867 74.65 49.184V47.264H75.77V56H74.65V54.064C74.3727 54.6613 73.93 55.1573 73.322 55.552C72.7247 55.936 72.01 56.128 71.178 56.128C70.3887 56.128 69.674 55.9413 69.034 55.568C68.4047 55.1947 67.9087 54.6667 67.546 53.984C67.194 53.3013 67.018 52.512 67.018 51.616ZM74.65 51.632C74.65 50.928 74.506 50.3093 74.218 49.776C73.93 49.2427 73.5353 48.832 73.034 48.544C72.5433 48.256 71.9993 48.112 71.402 48.112C70.7833 48.112 70.2287 48.2507 69.738 48.528C69.2473 48.8053 68.858 49.2107 68.57 49.744C68.2927 50.2667 68.154 50.8907 68.154 51.616C68.154 52.3307 68.2927 52.96 68.57 53.504C68.858 54.0373 69.2473 54.448 69.738 54.736C70.2287 55.0133 70.7833 55.152 71.402 55.152C71.9993 55.152 72.5433 55.008 73.034 54.72C73.5353 54.432 73.93 54.0213 74.218 53.488C74.506 52.9547 74.65 52.336 74.65 51.632ZM85.5269 47.264L80.3429 60.112H79.1749L80.8709 55.952L77.2869 47.264H78.5189L81.4949 54.72L84.3749 47.264H85.5269Z" fill="black"/>
<defs>
<linearGradient id="paint0_linear_4981_11518" x1="8.48214" y1="7.28572" x2="114.136" y2="49.2333" gradientUnits="userSpaceOnUse">
<stop stop-color="#EFEFEF" stop-opacity="0.6"/>
<stop offset="1" stop-color="#EFEFEF" stop-opacity="0.08"/>
</linearGradient>
</defs>
</svg>
