<svg width="532" height="819" viewBox="0 0 532 819" fill="none" xmlns="http://www.w3.org/2000/svg">
<path d="M331.16 463.558C331.166 463.616 331.166 463.675 331.16 463.733C332.561 466.651 352.751 509.803 377.347 551.263C383.795 562.146 390.535 572.883 397.333 582.774C412.126 604.307 427.123 621.725 439.581 627.152C480.429 644.921 457.087 505.689 457.087 505.689C442.188 487.957 429.374 468.574 418.895 447.919C414.022 438.291 408.362 427.116 402.439 415.825C397.888 407.217 393.219 398.61 388.639 390.645C378.281 372.555 368.623 357.967 362.759 355.108C356.34 351.956 347.47 384.489 340.759 414.745C335.303 439.954 331.16 463.558 331.16 463.558Z" fill="#AED3F0" stroke="#263238" stroke-width="0.422846" stroke-linecap="round" stroke-linejoin="round"/>
<path d="M331.161 463.561C331.166 463.62 331.166 463.678 331.161 463.736C332.561 466.654 352.751 509.807 377.348 551.267C369.937 485.006 376.881 440.687 376.881 440.687C392.665 416.82 402.556 415.916 402.556 415.916C398.005 407.308 393.336 398.701 388.756 390.736L367.865 371.217L340.876 414.836C335.304 439.957 331.161 463.561 331.161 463.561Z" fill="#263238"/>
<path d="M142.91 17.9692C106.031 44.666 73.7613 138.965 86.0739 200.237C98.3866 261.508 35.0437 279.014 35.2771 375.735C35.2771 402.695 118.781 512.283 215.736 453.813C312.69 395.342 339.62 366.574 330.401 307.928C321.181 249.283 320.772 210.711 338.278 161.49C355.784 112.269 209.813 -30.3768 142.91 17.9692Z" fill="white"/>
<path d="M1.05396 431.553L21.6528 445.529C27.0186 479.338 36.3718 512.393 49.5166 544.001C75.4548 604.893 98.417 641.189 106.441 653.181C108.425 656.098 109.504 657.557 109.504 657.557L87.9716 738.289C87.9716 738.289 199.796 820.274 390.156 866.142L379.565 781.529L365.297 667.74L360.658 630.773C360.658 630.773 362.613 604.251 365.735 571.602C367.865 549.107 370.549 523.694 373.584 502.045C373.709 501.078 373.758 500.102 373.729 499.127C373.496 485.472 362.788 456.762 362.788 456.762C371.833 442.436 380.294 429.248 387.267 418.832C396.487 404.857 402.585 395.87 402.585 395.87C402.585 395.87 370.491 356.423 368.682 351.93C358.528 325.35 323.049 330.31 323.049 330.31C320.397 327.744 317.084 325.966 313.479 325.175C296.615 320.944 248.678 354.556 222.506 354.818C196.334 355.081 67.8689 320.477 67.8689 320.477L54.7976 325.175C54.7976 325.175 37.0873 323.074 23.2575 348.691C16.6927 361.091 1.05396 431.553 1.05396 431.553Z" fill="white"/>
<path opacity="0.3" d="M362.932 456.88C371.977 442.554 380.438 429.366 387.412 418.95C381.343 404.361 372.327 390.852 359.839 391.64C359.839 391.64 368.563 430.387 362.932 456.88Z" fill="black" fill-opacity="0.7"/>
<path d="M390.156 866.139L360.658 630.916C360.658 630.916 366.202 555.289 373.584 502.188C375.247 490.283 362.788 456.876 362.788 456.876C384 423.323 402.585 395.984 402.585 395.984C402.585 395.984 370.491 356.537 368.682 352.044C358.528 325.464 323.049 330.424 323.049 330.424C320.397 327.858 317.084 326.08 313.479 325.288C296.615 321.058 248.678 354.67 222.506 354.932C196.334 355.195 67.8689 320.591 67.8689 320.591L54.7976 325.288C54.7976 325.288 37.0873 323.188 23.2575 348.805C16.6052 361.088 0.937222 431.551 0.937222 431.551L21.536 445.526C26.9019 479.335 36.255 512.39 49.3999 543.998C81.7278 619.858 109.417 657.612 109.417 657.612L87.8841 738.345" stroke="#263238" stroke-width="0.422846" stroke-linecap="round" stroke-linejoin="round"/>
<path d="M103.201 403.69C103.201 403.69 139.76 451.044 138.855 459.797C137.951 468.55 121.028 477.566 121.028 477.566" stroke="#263238" stroke-width="0.422846" stroke-linecap="round" stroke-linejoin="round"/>
<path d="M150.322 422.678C148.558 434.977 147.535 447.37 147.258 459.791C147.258 476.014 103.201 502.944 103.201 502.944" stroke="#263238" stroke-width="0.422846" stroke-linecap="round" stroke-linejoin="round"/>
<path d="M362.933 456.881C362.933 456.881 365.996 394.442 356.28 383.676" stroke="#263238" stroke-width="0.422846" stroke-linecap="round" stroke-linejoin="round"/>
<path d="M373.728 406.755C373.728 406.755 368.71 439.083 363.399 445.24" stroke="#263238" stroke-width="0.422846" stroke-linecap="round" stroke-linejoin="round"/>
<path d="M209.58 431.552C209.58 431.552 272.689 472.166 331.159 477.564" stroke="#263238" stroke-width="0.422846" stroke-linecap="round" stroke-linejoin="round"/>
<path d="M331.159 609.155C331.159 609.155 260.376 694.556 214.19 706.11" stroke="#263238" stroke-width="0.422846" stroke-linecap="round" stroke-linejoin="round"/>
<path d="M109.532 657.612C109.532 657.612 125.608 645.941 121.027 639.114" stroke="#263238" stroke-width="0.422846" stroke-linecap="round" stroke-linejoin="round"/>
<path d="M150.322 727.05C150.322 727.05 250.748 783.041 302.041 778.431" stroke="#263238" stroke-width="0.422846" stroke-linecap="round" stroke-linejoin="round"/>
<path d="M419.799 547.561C432.899 499.419 454.344 483.722 468.495 432.167C472.697 416.907 485.155 370.37 485.155 370.37C485.155 370.37 469.254 320.77 501.027 292.526C501.027 292.526 509.78 292.526 524.69 326.867C530.918 341.868 532.533 358.386 529.329 374.309C529.329 374.309 519.438 434.793 517.279 451.044C512.085 490.228 500.823 555.847 485.184 588.788C468.408 624.004 450.726 631.882 437.48 624.617" fill="#AED3F0"/>
<path d="M419.799 547.561C432.899 499.419 454.344 483.722 468.495 432.167C472.697 416.907 485.155 370.37 485.155 370.37C485.155 370.37 469.254 320.77 501.027 292.526C501.027 292.526 509.78 292.526 524.69 326.867C530.918 341.868 532.533 358.386 529.329 374.309C529.329 374.309 519.438 434.793 517.279 451.044C512.085 490.228 500.823 555.847 485.184 588.788C468.408 624.004 450.726 631.882 437.48 624.617" stroke="#263238" stroke-width="0.422846" stroke-linecap="round" stroke-linejoin="round"/>
<path d="M479.611 359.81L445.591 371.043C442.002 371.977 434.941 365.996 435.262 362.29L445.445 243.891C445.643 241.559 446.561 239.346 448.072 237.558C449.582 235.771 451.611 234.497 453.877 233.912L491.428 225.743C495.016 224.838 504.032 229.127 503.711 232.804L488.072 349.832C487.872 352.168 486.95 354.383 485.434 356.171C483.918 357.959 481.883 359.231 479.611 359.81Z" fill="#AED3F0"/>
<path opacity="0.3" d="M479.611 359.812L445.591 371.045C442.002 371.979 434.941 365.997 435.262 362.292L445.445 243.892C445.643 241.56 446.561 239.347 448.072 237.56C449.582 235.772 451.611 234.498 453.877 233.914L491.428 225.744C495.017 224.84 504.032 229.129 503.711 232.805L488.072 349.833C487.873 352.169 486.951 354.385 485.434 356.173C483.918 357.961 481.883 359.233 479.611 359.812Z" fill="black" fill-opacity="0.7"/>
<path d="M479.611 359.81L445.591 371.043C442.002 371.977 434.941 365.996 435.262 362.29L445.445 243.891C445.643 241.559 446.561 239.346 448.072 237.558C449.582 235.771 451.611 234.497 453.877 233.912L491.428 225.743C495.016 224.838 504.032 229.127 503.711 232.804L488.072 349.832C487.872 352.168 486.95 354.383 485.434 356.171C483.918 357.959 481.883 359.231 479.611 359.81V359.81Z" stroke="#263238" stroke-width="0.422846" stroke-linecap="round" stroke-linejoin="round"/>
<path d="M485.212 362.727L447.662 370.867C446.833 371.086 445.964 371.102 445.128 370.914C444.292 370.726 443.513 370.34 442.858 369.788C442.203 369.235 441.69 368.533 441.363 367.741C441.036 366.949 440.905 366.09 440.98 365.236L451.017 246.807C451.217 244.472 452.139 242.256 453.655 240.468C455.171 238.68 457.206 237.408 459.478 236.829L497 228.659C497.83 228.447 498.7 228.436 499.535 228.628C500.371 228.82 501.148 229.21 501.802 229.764C502.457 230.318 502.969 231.021 503.295 231.813C503.622 232.606 503.755 233.466 503.681 234.32L493.644 352.749C493.446 355.081 492.528 357.293 491.018 359.081C489.507 360.869 487.478 362.143 485.212 362.727Z" fill="#AED3F0" stroke="#263238" stroke-width="0.422846" stroke-linecap="round" stroke-linejoin="round"/>
<path opacity="0.3" d="M464.381 268.722L458.341 270.035C458.208 270.067 458.069 270.067 457.936 270.036C457.802 270.005 457.678 269.943 457.573 269.855C457.468 269.767 457.385 269.655 457.331 269.53C457.277 269.404 457.253 269.267 457.262 269.13L458.866 250.019C458.902 249.643 459.053 249.288 459.299 249.001C459.544 248.713 459.872 248.509 460.238 248.415L466.306 247.102C466.44 247.069 466.578 247.069 466.712 247.1C466.845 247.131 466.969 247.193 467.074 247.281C467.179 247.369 467.262 247.481 467.316 247.607C467.371 247.733 467.394 247.869 467.386 248.006L465.752 267.117C465.716 267.493 465.565 267.849 465.32 268.136C465.074 268.423 464.747 268.628 464.381 268.722Z" fill="black" fill-opacity="0.7"/>
<path d="M517.191 328.062C518.649 311.46 503.536 286.543 493.47 286.543C483.404 286.543 452.826 310.118 452.826 310.118C440.981 318.696 446.845 326.865 446.845 326.865C439.872 331.475 438.092 337.719 441.156 340.608C444.219 343.496 454.46 340.608 454.46 340.608C454.46 340.608 444.307 348.019 446.845 351.666C452.826 360.273 472.492 348.923 472.492 348.923C472.492 348.923 461.083 356.451 461.725 357.88C466.044 367.275 484.688 356.334 484.688 356.334L497.788 363.045C497.776 364.59 498.084 366.12 498.692 367.54C499.3 368.961 500.195 370.24 501.321 371.298C502.448 372.355 503.78 373.169 505.236 373.686C506.692 374.204 508.238 374.416 509.78 374.307" fill="#AED3F0"/>
<path d="M517.191 328.062C518.649 311.46 503.536 286.543 493.47 286.543C483.404 286.543 452.826 310.118 452.826 310.118C440.981 318.696 446.845 326.865 446.845 326.865C439.872 331.475 438.092 337.719 441.156 340.608C444.219 343.496 454.46 340.608 454.46 340.608C454.46 340.608 444.307 348.019 446.845 351.666C452.826 360.273 472.492 348.923 472.492 348.923C472.492 348.923 461.083 356.451 461.725 357.88C466.044 367.275 484.688 356.334 484.688 356.334L497.788 363.045C497.776 364.59 498.084 366.12 498.692 367.54C499.3 368.961 500.195 370.24 501.321 371.298C502.448 372.355 503.78 373.169 505.236 373.686C506.692 374.204 508.238 374.416 509.78 374.307" stroke="#263238" stroke-width="0.422846" stroke-linecap="round" stroke-linejoin="round"/>
<path d="M446.846 326.865C446.846 326.865 475.498 308.367 479.116 307.871C482.734 307.375 496.009 304.487 496.009 304.487" fill="white"/>
<path d="M446.846 326.865C446.846 326.865 475.498 308.367 479.116 307.871C482.734 307.375 496.009 304.487 496.009 304.487" stroke="#263238" stroke-width="0.422846" stroke-linecap="round" stroke-linejoin="round"/>
<path d="M454.344 340.614C454.344 340.614 477.686 328.593 481.887 328.593C488.329 327.887 494.721 326.786 501.027 325.296" fill="white"/>
<path d="M454.344 340.614C454.344 340.614 477.686 328.593 481.887 328.593C488.329 327.887 494.721 326.786 501.027 325.296" stroke="#263238" stroke-width="0.422846" stroke-linecap="round" stroke-linejoin="round"/>
<path d="M472.493 348.925C475.212 346.989 478.091 345.291 481.1 343.848C486.656 343.45 492.233 343.45 497.789 343.848" fill="white"/>
<path d="M472.493 348.925C475.212 346.989 478.091 345.291 481.1 343.848C486.656 343.45 492.233 343.45 497.789 343.848" stroke="#263238" stroke-width="0.422846" stroke-linecap="round" stroke-linejoin="round"/>
<path d="M180.722 535.28C180.722 535.28 162.632 525.098 146.468 487.109C130.304 449.121 125.694 452.943 125.694 452.943C125.694 452.943 90.3028 435.583 73.3803 431.557C56.4577 427.53 25.6761 431.557 25.6761 431.557C25.6761 431.557 51.9353 507.738 78.7488 557.28C105.562 606.822 127.153 636.057 141.479 638.975C155.805 641.893 180.722 535.28 180.722 535.28Z" fill="#AED3F0" stroke="#263238" stroke-width="0.422846" stroke-linecap="round" stroke-linejoin="round"/>
<path d="M75.6859 325.582C75.6859 325.582 204.472 394.177 241.702 393.798C278.932 393.418 302.127 329.609 302.127 329.609C302.127 329.609 233.27 328.062 241.264 295.151C241.264 294.596 241.527 293.984 241.702 293.4C244.999 281.904 257.633 261.772 262.33 254.537C263.439 252.815 264.11 251.823 264.11 251.823L162.195 175.73C168.031 252.669 156.768 286.398 149.853 299.06C137.978 320.739 75.6859 325.582 75.6859 325.582Z" fill="#AED3F0" stroke="#263238" stroke-width="0.422846" stroke-linecap="round" stroke-linejoin="round"/>
<path d="M191.11 218.856C191.11 218.856 212.35 278.902 241.352 295.153C241.352 294.599 241.615 293.986 241.79 293.403C245.087 281.907 257.72 261.775 262.418 254.539L191.11 218.856Z" fill="#263238"/>
<path d="M235.256 375.501C235.256 375.501 228.049 361.584 217.283 359.95C206.516 358.316 176.873 358.024 122.05 348.921" stroke="#263238" stroke-width="0.422846" stroke-linecap="round" stroke-linejoin="round"/>
<path d="M251.797 375.503C251.797 375.503 256.407 364.679 257.632 359.952C258.858 355.226 287.51 349.273 297.021 341.454" stroke="#263238" stroke-width="0.422846" stroke-linecap="round" stroke-linejoin="round"/>
<path d="M329.73 49.0769C348.607 69.6466 354.238 136.782 344.814 165.784C344.814 165.784 297.519 172.553 286.461 164.034C275.403 155.514 329.73 49.0769 329.73 49.0769Z" fill="white"/>
<path d="M151.867 184.657C147.316 164.554 123.186 67.1037 179.994 23.9804C236.801 -19.143 306.096 38.3646 315.812 51.9318C354.996 106.667 337.636 150.17 330.4 176.4C323.164 202.63 326.724 234.404 290.078 278.081C274.673 296.433 246.955 286.659 219.645 267.665C203.277 256.286 180.227 236.271 179.644 216.985" fill="#AED3F0"/>
<path d="M151.867 184.657C147.316 164.554 123.186 67.1037 179.994 23.9804C236.801 -19.143 306.096 38.3646 315.812 51.9318C354.996 106.667 337.636 150.17 330.4 176.4C323.164 202.63 326.724 234.404 290.078 278.081C274.673 296.433 246.955 286.659 219.645 267.665C203.277 256.286 180.227 236.271 179.644 216.985" stroke="#263238" stroke-width="0.422846" stroke-linecap="round" stroke-linejoin="round"/>
<path d="M280.283 157.458C280.283 157.458 250.526 147.859 231.792 156.315" stroke="#263238" stroke-width="0.422846" stroke-linecap="round" stroke-linejoin="round"/>
<path d="M249.172 171.704C248.414 176.43 250.077 180.632 252.907 181.098C255.737 181.565 258.742 178.181 259.443 173.396C260.143 168.611 258.538 164.468 255.708 164.001C252.878 163.534 249.96 166.977 249.172 171.704Z" fill="#263238"/>
<path d="M310.677 171.704C309.918 176.43 311.581 180.632 314.411 181.098C317.241 181.565 320.247 178.181 320.947 173.396C321.647 168.611 320.042 164.468 317.212 164.001C314.382 163.534 311.377 166.977 310.677 171.704Z" fill="#263238"/>
<path d="M306.194 151.461C306.194 151.461 323.417 146.117 328.567 154.133" stroke="#263238" stroke-width="0.422846" stroke-linecap="round" stroke-linejoin="round"/>
<path d="M305.104 169.369C303.354 176.021 316.775 206.015 315.812 208.612C314.849 211.208 308.255 215.818 296.439 216.985" stroke="#263238" stroke-width="0.422846" stroke-linecap="round" stroke-linejoin="round"/>
<path d="M252.555 233.931C252.555 233.931 272.491 248.386 289.845 248.608" stroke="#263238" stroke-width="0.422846" stroke-linecap="round" stroke-linejoin="round"/>
<path d="M322.698 34.6001C322.698 34.6001 348.666 58.7293 331.918 106.171C328.221 115.845 322.76 124.749 315.812 132.43C298.452 122.656 289.787 137.915 279.4 132.926C269.013 127.937 252.47 138.528 241.703 136.427C236.409 135.248 230.914 135.3 225.643 136.58C220.372 137.859 215.465 140.333 211.301 143.809C203.219 151.045 203.219 166.888 191.111 174.532C191.111 174.532 184.05 149.761 169.17 153.35C154.29 156.938 167.448 200.033 167.448 200.033C148.801 177.302 137.173 149.636 133.983 120.409C128.147 70.8085 147.754 27.4809 180.666 18.2902C180.666 18.2902 191.636 -3.06724 229.157 0.375623C266.679 3.81849 300.699 1.71779 322.698 34.6001Z" fill="white"/>
<path d="M180.722 159.86C180.722 159.86 166.863 125.899 146.672 139.991C126.482 154.083 150.699 197.353 160.531 208.323C170.364 219.294 173.223 207.185 174.361 203.713" fill="white"/>
<path d="M180.722 159.86C180.722 159.86 166.863 125.899 146.672 139.991C126.482 154.083 150.699 197.353 160.531 208.323C170.364 219.294 173.223 207.185 174.361 203.713" stroke="#263238" stroke-width="0.422846" stroke-linecap="round" stroke-linejoin="round"/>
<path d="M313.593 59.2883C313.011 50.7874 310.464 42.5376 306.153 35.1882" stroke="black" stroke-width="0.422846" stroke-linecap="round" stroke-linejoin="round"/>
<path d="M290.602 117.728C303.09 103.781 312.602 85.0203 313.623 66.1721" stroke="black" stroke-width="0.422846" stroke-linecap="round" stroke-linejoin="round"/>
<path d="M264.109 94.27C257.063 105.8 247.112 115.277 235.253 121.755" stroke="black" stroke-width="0.422846" stroke-linecap="round" stroke-linejoin="round"/>
<path d="M271.2 35.1882C280.77 50.5644 275.255 72.6221 267.786 87.7065" stroke="black" stroke-width="0.422846" stroke-linecap="round" stroke-linejoin="round"/>
<path d="M173.953 122.632C166.722 126.383 159.126 129.385 151.283 131.589" stroke="black" stroke-width="0.422846" stroke-linecap="round" stroke-linejoin="round"/>
<path d="M241.701 55.4041C227.115 81.7281 205.864 103.754 180.079 119.272" stroke="black" stroke-width="0.422846" stroke-linecap="round" stroke-linejoin="round"/>
<path d="M386.857 308.482C386.857 308.482 395.61 308.482 396.398 314.872C397.186 321.262 384.144 329.606 384.144 329.606" fill="#AED3F0"/>
<path d="M386.857 308.482C386.857 308.482 395.61 308.482 396.398 314.872C397.186 321.262 384.144 329.606 384.144 329.606" stroke="#263238" stroke-width="0.422846" stroke-linecap="round" stroke-linejoin="round"/>
<path d="M140.984 540.585C160.707 510.504 188.542 491.685 213.43 458.306C234.03 430.624 253.036 401.789 270.354 371.943L296.759 322.342C296.759 322.342 329.087 283.362 342.158 278.577C355.229 273.792 426.771 271.516 426.771 271.516C426.771 271.516 429.689 279.277 418.631 283.187C407.573 287.097 373.698 290.277 373.698 290.277C373.698 290.277 383.677 294.566 385.982 298.096C388.287 301.627 385.982 330.629 381.372 336.522C376.762 342.416 359.051 347.785 359.051 347.785C359.051 347.785 356.717 368.208 339.415 378.333C322.114 388.457 313.652 388.574 313.652 388.574C313.652 388.574 297.372 416.233 290.573 435.986C275.985 478.088 239.193 573.817 212.613 608.334C181.16 649.181 140.4 650.757 125.666 624.76" fill="#AED3F0"/>
<path d="M140.984 540.585C160.707 510.504 188.542 491.685 213.43 458.306C234.03 430.624 253.036 401.789 270.354 371.943L296.759 322.342C296.759 322.342 329.087 283.362 342.158 278.577C355.229 273.792 426.771 271.516 426.771 271.516C426.771 271.516 429.689 279.277 418.631 283.187C407.573 287.097 373.698 290.277 373.698 290.277C373.698 290.277 383.677 294.566 385.982 298.096C388.287 301.627 385.982 330.629 381.372 336.522C376.762 342.416 359.051 347.785 359.051 347.785C359.051 347.785 356.717 368.208 339.415 378.333C322.114 388.457 313.652 388.574 313.652 388.574C313.652 388.574 297.372 416.233 290.573 435.986C275.985 478.088 239.193 573.817 212.613 608.334C181.16 649.181 140.4 650.757 125.666 624.76" stroke="#263238" stroke-width="0.422846" stroke-linecap="round" stroke-linejoin="round"/>
<path d="M343.472 305.687C343.472 305.687 368.564 308.604 371.744 310.88C374.924 313.156 373.407 331.1 371.744 337.373C371.461 339.007 370.823 340.559 369.875 341.92C368.928 343.281 367.693 344.418 366.259 345.251" stroke="#263238" stroke-width="0.422846" stroke-linecap="round" stroke-linejoin="round"/>
<path d="M353.83 290.862C353.83 290.862 378.514 297.018 380.089 300.198C382.385 308.882 382.773 317.96 381.227 326.808C379.214 336.553 378.63 339.616 374.867 341.396" stroke="#263238" stroke-width="0.422846" stroke-linecap="round" stroke-linejoin="round"/>
<path d="M373.728 290.306C370.217 288.838 366.61 287.609 362.933 286.63" stroke="#263238" stroke-width="0.422846" stroke-linecap="round" stroke-linejoin="round"/>
<path d="M358.672 325.586C356.564 327.996 353.967 329.932 351.055 331.264C348.143 332.597 344.982 333.297 341.779 333.318C341.779 333.318 347.177 354.092 337.548 367.571" stroke="#263238" stroke-width="0.422846" stroke-linecap="round" stroke-linejoin="round"/>
<path d="M353.822 329.607C353.822 329.607 359.402 334.136 358.672 336.56" stroke="#263238" stroke-width="0.422846" stroke-linecap="round" stroke-linejoin="round"/>
<path d="M125.695 452.94C125.695 452.94 76.0941 431.232 68.9166 429.773C61.7391 428.315 7.96631 430.97 7.96631 430.97C14.6201 437.11 22.2912 442.047 30.6367 445.558C30.6367 445.558 31.8329 435.667 45.2251 434.529C58.6172 433.391 125.695 452.94 125.695 452.94Z" fill="#263238"/>
</svg>
