<svg width="222" height="269" viewBox="0 0 327 519" fill="none" xmlns="http://www.w3.org/2000/svg">
<path d="M132.248 218.321C120.563 225.475 111.614 236.34 106.832 249.179C99.4359 270.166 94.9133 366.272 94.9133 366.272L60.6405 344.389C60.6405 344.389 38.899 338.524 38.1923 347.215C37.4857 355.907 40.3594 371.689 40.3594 371.689C40.3594 371.689 86.2685 410.673 92.4636 417.504C98.6586 424.335 105.772 431.991 116.16 430.907C126.548 429.824 120.212 369.24 120.212 369.24L132.248 218.321Z" fill="white" stroke="#263238" stroke-width="0.536654" stroke-linecap="round" stroke-linejoin="round"/>
<path d="M60.6413 344.39C60.6413 344.39 53.2214 363.634 40.3603 371.69C40.2646 363.489 39.5401 355.307 38.1932 347.216C36.2145 337.935 51.6903 330.68 60.6413 344.39Z" fill="#263238" stroke="#263238" stroke-width="0.536654" stroke-linecap="round" stroke-linejoin="round"/>
<path d="M203.408 193.211L250.518 210.712L245.053 491.797C245.053 491.797 170.736 510.076 125.134 485.225L123.485 433.403C123.485 433.403 126.453 310.751 131.258 279.211C136.063 247.67 154.813 212.55 154.813 212.55C154.813 212.55 176.225 199.123 182.703 196.815C189.486 195.012 196.414 193.806 203.408 193.211Z" fill="white" stroke="#263238" stroke-width="0.536654" stroke-linecap="round" stroke-linejoin="round"/>
<path d="M115.503 250.004C115.503 250.004 108.719 321.07 109.378 354.989C110.038 388.909 112.323 501.927 112.323 501.927L126.88 509.865C126.88 509.865 128.835 401.888 130.931 352.493C133.028 303.097 161.954 206.921 161.954 206.921L166.806 193.448C166.806 193.448 152.155 204.212 137.927 212.716C123.7 221.219 115.903 242.984 115.903 242.984" fill="white"/>
<path d="M115.503 250.004C115.503 250.004 108.719 321.07 109.378 354.989C110.038 388.909 112.323 501.927 112.323 501.927L126.88 509.865C126.88 509.865 128.835 401.888 130.931 352.493C133.028 303.097 161.954 206.921 161.954 206.921L166.806 193.448C166.806 193.448 152.155 204.212 137.927 212.716C123.7 221.219 115.903 242.984 115.903 242.984" stroke="#263238" stroke-width="0.536654" stroke-linecap="round" stroke-linejoin="round"/>
<path d="M151.707 225.248C151.707 225.248 135.477 281.592 130.366 308.939C125.254 336.287 120.119 382.361 120.944 405.516C121.768 428.67 126.762 509.96 126.762 509.96" stroke="#263238" stroke-width="0.536654" stroke-linecap="round" stroke-linejoin="round"/>
<path d="M174.836 209.346L151.069 242.794L163.883 201.596L170.03 185.838L174.836 209.346Z" fill="white" stroke="#263238" stroke-width="0.536654" stroke-linecap="round" stroke-linejoin="round"/>
<path d="M202.513 135.901C202.513 135.901 216.128 190.361 216.647 192.764C217.165 195.166 177.286 233.656 177.286 233.656L161.904 186.545C161.904 186.545 186.543 171.046 191.278 158.09C196.012 145.135 200.181 133.946 202.513 135.901Z" fill="#ABD4FA" stroke="#263238" stroke-width="0.536654" stroke-linecap="round" stroke-linejoin="round"/>
<path d="M213.868 186.337C205.333 216.955 200.105 248.401 198.275 280.134C196.155 328.493 197.898 518.654 197.898 518.654L284.016 506.735C284.016 506.735 277.538 388.629 277.468 384.531C277.397 380.432 300.575 223.601 300.481 218.372C300.387 213.143 222.56 184.641 213.868 186.337Z" fill="white" stroke="#263238" stroke-width="0.536654" stroke-linecap="round" stroke-linejoin="round"/>
<path d="M208.52 425.046L207.225 511.329" stroke="#263238" stroke-width="0.536654" stroke-linecap="round" stroke-linejoin="round"/>
<path d="M211.489 227.794L208.662 415.67" stroke="#263238" stroke-width="0.536654" stroke-linecap="round" stroke-linejoin="round"/>
<path d="M215.587 172.487L182.963 211.164L202.891 248.075L228.684 187.162L215.587 172.487Z" fill="white" stroke="#263238" stroke-width="0.536654" stroke-linecap="round" stroke-linejoin="round"/>
<path d="M182.963 211.164L177.38 233.659L190.359 225.226L182.963 211.164Z" fill="#ABD4FA" stroke="#263238" stroke-width="0.536654" stroke-linecap="round" stroke-linejoin="round"/>
<path d="M106.928 95.929C106.928 95.929 111.191 113.313 122.356 147.609C133.522 181.906 143.933 200.043 156.629 196.274C169.325 192.505 196.932 175.852 202.044 165.841C207.155 155.83 205.53 143.487 205.53 143.487C205.53 143.487 216.436 142.733 216.624 129.354C216.813 115.974 209.558 109.756 204.117 109.073C198.675 108.39 189.206 115.668 185.272 104.762C181.339 93.8561 190.148 82.3141 181.503 76.0719C172.859 69.8298 153.096 70.0182 135.901 76.0719C125.156 79.9618 115.424 86.2167 107.422 94.3743L106.928 95.929Z" fill="#ABD4FA" stroke="#263238" stroke-width="0.536654" stroke-linecap="round" stroke-linejoin="round"/>
<path d="M129.917 129.143C129.917 129.143 129.234 149.542 130.788 152.156C132.343 154.771 149.845 148.741 149.845 148.741" stroke="#263238" stroke-width="0.536654" stroke-linecap="round" stroke-linejoin="round"/>
<path d="M139.057 164.054C145.702 163.483 152.026 160.94 157.218 156.752C166.051 149.685 166.828 144.574 166.828 144.574" stroke="#263238" stroke-width="0.536654" stroke-linecap="round" stroke-linejoin="round"/>
<path d="M163.718 142.147L170.384 145.539" stroke="#263238" stroke-width="0.536654" stroke-linecap="round" stroke-linejoin="round"/>
<path d="M166.168 147.373C166.168 147.373 167.04 159.857 164.166 164.945C161.293 170.033 152.389 160.776 152.389 160.776C152.389 160.776 164.049 151.542 166.168 147.373Z" fill="#263238" stroke="#263238" stroke-width="0.536654" stroke-linecap="round" stroke-linejoin="round"/>
<path d="M141.718 126.339C142.613 129.119 144.404 131.05 145.699 130.603C146.995 130.155 147.324 127.588 146.429 124.808C145.534 122.028 143.744 120.097 142.425 120.545C141.106 120.992 140.8 123.56 141.718 126.339Z" fill="#263238"/>
<path d="M120.848 132.795C121.743 135.575 123.533 137.506 124.829 137.059C126.125 136.611 126.454 134.043 125.559 131.264C124.664 128.484 122.874 126.553 121.555 127C120.236 127.448 119.93 130.016 120.848 132.795Z" fill="#263238"/>
<path d="M157.57 107.259C157.57 107.259 149.891 99.6746 138.726 107.142" stroke="#263238" stroke-width="0.536654" stroke-linecap="round" stroke-linejoin="round"/>
<path d="M125.418 113.22C125.418 113.22 117.198 109.286 114.724 117.742" stroke="#263238" stroke-width="0.536654" stroke-linecap="round" stroke-linejoin="round"/>
<path d="M99.3661 84.1291C103.736 75.02 111 67.6149 120.024 63.0707C149.633 47.3359 195.542 34.0507 207.626 85.778C209.538 94.6834 210.384 103.785 210.146 112.89C208.643 112.13 206.935 111.875 205.276 112.163C203.616 112.452 202.094 113.269 200.936 114.492C197.144 118.873 200.653 124.338 194.058 124.385C187.463 124.432 186.073 116.894 184.848 113.126C183.623 109.357 171.327 116.494 169.066 109.569C166.451 101.513 178.488 91.0543 169.631 84.5295C162.8 79.4887 153.661 86.5553 148.196 90.4183C139.221 96.7311 130.506 103.02 119.93 106.459C110.696 109.451 97.2461 113.526 96.3746 100.1C96.0536 94.6117 97.0806 89.1287 99.3661 84.1291Z" fill="white" stroke="#263238" stroke-width="0.536654" stroke-linecap="round" stroke-linejoin="round"/>
<path d="M56.2847 331.742C57.4043 326.392 58.1364 320.968 58.4753 315.512C58.2397 311.531 45.1195 297.61 45.1195 297.61L36.4983 307.197L56.2847 331.742Z" fill="#ABD4FA" stroke="#263238" stroke-width="0.536654" stroke-linecap="round" stroke-linejoin="round"/>
<path d="M20.7393 244.731L58.2392 311.533L35.2729 313.229L1.00001 252.81L20.7393 244.731Z" fill="white" stroke="#263238" stroke-width="0.536654" stroke-linecap="round" stroke-linejoin="round"/>
<path d="M15.9583 300.411C15.9583 300.411 8.06729 289.929 7.9024 286.584C8.28049 280.738 9.55968 274.986 11.6948 269.53C13.4143 265.973 16.9476 259.896 19.044 263.665C21.1404 267.434 17.9369 274.524 17.8663 275.796C17.7956 277.068 17.2067 285.218 17.2067 285.218L19.256 290.471L15.9583 300.411Z" fill="#ABD4FA" stroke="#263238" stroke-width="0.536654" stroke-linecap="round" stroke-linejoin="round"/>
<path d="M59.3697 336.664C58.8678 334.457 58.2467 332.279 57.5088 330.139C56.5195 327.477 48.4636 317.302 48.4636 317.302C48.4636 317.302 66.9309 290.331 64.6696 288.494C62.4083 286.656 51.8085 297.539 51.8085 297.539L43.0459 303.428L39.9131 305.665C39.9131 305.665 43.8703 301.449 46.1081 298.881C48.3458 296.314 57.1084 289.883 59.7937 287.481C62.479 285.078 65.0465 283.523 62.6203 280.626C60.1941 277.729 59.1812 278.059 56.8257 279.59C54.4702 281.121 54.4702 283.005 45.4485 287.175C36.4269 291.344 33.671 292.898 31.8572 295.607C30.0435 298.316 27.5937 302.839 27.5937 302.839L27.8292 289.742C27.8292 289.742 41.0673 276.08 42.4335 273.253C43.7997 270.427 43.6819 267.435 40.714 267.341C37.746 267.247 25.144 276.763 22.6236 278.812C20.1032 280.862 15.8867 286.515 15.7219 288.847C15.8187 295.414 16.338 301.968 17.2765 308.468C17.9125 310.494 38.1935 347.193 38.1935 347.193L45.2601 361.161C45.2601 361.161 50.3481 367.121 56.1898 355.108C62.0315 343.095 59.3697 336.664 59.3697 336.664Z" fill="#ABD4FA" stroke="#263238" stroke-width="0.536654" stroke-linecap="round" stroke-linejoin="round"/>
<path d="M103.959 314.615C100.264 314.077 96.6579 313.039 93.2418 311.529C87.6356 309.032 80.9459 312.236 85.6805 317.559C90.4151 322.883 88.201 322.624 96.3746 324.979C104.548 327.335 103.959 314.615 103.959 314.615Z" fill="#ABD4FA" stroke="#263238" stroke-width="0.536654" stroke-linecap="round" stroke-linejoin="round"/>
<path d="M153.519 351.926C153.519 351.926 142.778 355.13 134.227 353.646C125.677 352.162 121.484 342.339 121.484 342.339C121.484 342.339 118.987 351.761 114.205 351.502C109.424 351.243 96.798 337.982 96.798 337.982L96.3741 324.979C96.3058 322.654 97.0145 320.373 98.3882 318.496C99.7618 316.619 101.722 315.253 103.959 314.615L115.736 311.294C111.321 307.877 106.704 304.731 101.91 301.871C99.1064 300.741 86.5515 301.871 80.9454 299.657C75.3392 297.443 77.6241 290.824 89.1662 290.565C100.708 290.306 113.122 291.036 121.39 297.278C127.988 302.808 134.045 308.952 139.48 315.628L157.735 331.104L168.194 332.682L165.038 353.599L153.519 351.926Z" fill="#ABD4FA" stroke="#263238" stroke-width="0.536654" stroke-linecap="round" stroke-linejoin="round"/>
<path d="M124.781 327.103C124.781 327.103 121.318 324.747 116.701 329.458C112.084 334.169 108.386 347.714 108.386 347.714" stroke="#263238" stroke-width="0.536654" stroke-linecap="round" stroke-linejoin="round"/>
<path d="M118.093 318.058C118.093 318.058 107.187 319.566 104.784 323.758C102.381 327.951 101.651 340.247 101.651 340.247" stroke="#263238" stroke-width="0.536654" stroke-linecap="round" stroke-linejoin="round"/>
<path d="M290.069 211.306C290.069 211.306 315.109 218.49 316.239 227.088C317.37 235.685 323.848 391.315 325.025 401.844C326.203 412.373 327.381 420.947 321.68 426.812C315.98 432.678 155.475 365.569 155.475 365.569L157.642 331.037L262.039 350.8L256.527 291.912" fill="white"/>
<path d="M290.069 211.306C290.069 211.306 315.109 218.49 316.239 227.088C317.37 235.685 323.848 391.315 325.025 401.844C326.203 412.373 327.381 420.947 321.68 426.812C315.98 432.678 155.475 365.569 155.475 365.569L157.642 331.037L262.039 350.8L256.527 291.912" stroke="#263238" stroke-width="0.536654" stroke-linecap="round" stroke-linejoin="round"/>
<path d="M262.038 350.797C262.038 350.797 284.086 355.885 296.876 375.53" stroke="#263238" stroke-width="0.536654" stroke-linecap="round" stroke-linejoin="round"/>
<path d="M206.118 81.049C206.084 81.085 206.057 81.1149 206.034 81.1385L104.852 106.512L90.478 102.032C82.5747 97.5427 76.2581 89.7779 75.3079 82.5403C75.0802 80.7974 75.0129 78.9488 75.1896 77.0002L75.1897 76.9995C75.7016 71.171 79.7903 62.9382 85.3484 55.2538C90.9022 47.5753 97.8828 40.5 104.123 36.9697L104.123 36.9695C108.18 34.6663 113.992 32.9003 120.653 31.5979C127.31 30.2964 134.795 29.4613 142.187 29.0109C156.98 28.1096 171.36 28.7508 177.945 30.2603C184.559 31.7765 192.398 33.9815 199.212 37.5862C206.026 41.1914 211.785 46.1812 214.29 53.2539C216.79 60.3152 214.73 67.2903 212.017 72.5258C210.662 75.1407 209.149 77.3123 207.975 78.8302C207.388 79.5889 206.886 80.1837 206.531 80.5883C206.354 80.7906 206.214 80.9452 206.118 81.049Z" fill="white" stroke="#263238" stroke-width="0.5"/>
<path d="M102.26 97.3066L102.26 97.306L102.269 97.2966L102.303 97.2582C102.334 97.224 102.381 97.1727 102.444 97.1053C102.57 96.9704 102.759 96.7712 103.013 96.5155C103.522 96.0041 104.289 95.2667 105.318 94.3664C107.378 92.5657 110.489 90.1136 114.69 87.5145C123.093 82.3166 135.858 76.5298 153.295 74.1896C170.766 71.8446 179.147 72.2339 183.151 73.1918C185.152 73.6706 186.025 74.2837 186.403 74.7352C186.591 74.9591 186.659 75.1463 186.684 75.2665C186.692 75.3062 186.696 75.3395 186.698 75.3655L186.657 75.3984C186.551 75.4853 186.392 75.6135 186.187 75.7785C185.776 76.1085 185.177 76.5859 184.422 77.1744C182.911 78.3517 180.781 79.9737 178.298 81.7526C173.328 85.3128 166.963 89.4915 161.345 91.9947C155.711 94.5054 138.167 101.548 121.622 107.817C113.35 110.951 105.332 113.891 99.1795 115.973C96.103 117.015 93.4968 117.841 91.5604 118.369C90.5917 118.633 89.7956 118.822 89.1944 118.926C88.8936 118.979 88.6468 119.009 88.4543 119.018C88.2544 119.027 88.1398 119.011 88.0867 118.992L88.0865 118.992C87.9775 118.953 87.9099 118.879 87.8771 118.734C87.8406 118.573 87.8524 118.333 87.932 118.007C88.0901 117.358 88.4889 116.469 89.0713 115.411C90.2325 113.301 92.0831 110.588 94.0402 107.901C95.9956 105.216 98.0514 102.566 99.6187 100.588C100.402 99.5982 101.064 98.7769 101.529 98.2029C101.761 97.9159 101.945 97.6908 102.071 97.5375L102.214 97.3626L102.251 97.3179L102.26 97.3066Z" fill="white" stroke="black" stroke-width="0.5"/>
<path d="M119.04 64.1593L119.04 64.159C149.574 51.4062 170.101 51.697 182.978 55.1511C189.419 56.8789 193.952 59.3998 196.872 61.4843C198.333 62.5267 199.39 63.4602 200.081 64.1313C200.426 64.4668 200.68 64.7367 200.846 64.9218C200.929 65.0144 200.991 65.0857 201.031 65.1334C201.041 65.1451 201.05 65.1554 201.057 65.1642L205.007 80.0891L205.007 81.164C204.848 81.1166 204.631 81.0526 204.361 80.9739C203.734 80.7911 202.82 80.529 201.674 80.2122C199.381 79.5785 196.157 78.7254 192.428 77.8477C184.975 76.093 175.495 74.2365 167.422 73.8414C152.654 73.1145 135.505 79.2401 122.38 85.6532C115.814 88.8619 110.243 92.1482 106.468 94.6973C104.582 95.9709 103.138 97.0649 102.24 97.8764C101.921 98.1653 101.662 98.4255 101.477 98.6506L96.1543 82.8222C96.8789 81.0845 98.6243 79.0625 100.88 76.9894C103.165 74.8897 105.945 72.7633 108.64 70.8596C111.334 68.9564 113.938 67.279 115.869 66.0772C116.834 65.4763 117.631 64.9945 118.186 64.6631C118.464 64.4974 118.681 64.3692 118.829 64.2826C118.902 64.2393 118.959 64.2063 118.997 64.1842L119.04 64.1593Z" fill="white" stroke="black" stroke-width="0.5"/>
</svg>
