<svg width="138" height="151" viewBox="0 0 138 151" fill="none" xmlns="http://www.w3.org/2000/svg">
<path d="M34.2534 127.872V129.648H29.6934V144.6H27.5094V129.648H22.9254V127.872H34.2534ZM36.1258 137.976C36.1258 136.632 36.3978 135.456 36.9418 134.448C37.4858 133.424 38.2298 132.632 39.1738 132.072C40.1338 131.512 41.1978 131.232 42.3658 131.232C43.5178 131.232 44.5178 131.48 45.3658 131.976C46.2138 132.472 46.8458 133.096 47.2618 133.848V131.448H49.4698V144.6H47.2618V142.152C46.8298 142.92 46.1818 143.56 45.3178 144.072C44.4698 144.568 43.4778 144.816 42.3418 144.816C41.1738 144.816 40.1178 144.528 39.1738 143.952C38.2298 143.376 37.4858 142.568 36.9418 141.528C36.3978 140.488 36.1258 139.304 36.1258 137.976ZM47.2618 138C47.2618 137.008 47.0618 136.144 46.6618 135.408C46.2618 134.672 45.7178 134.112 45.0298 133.728C44.3578 133.328 43.6138 133.128 42.7978 133.128C41.9818 133.128 41.2378 133.32 40.5658 133.704C39.8938 134.088 39.3578 134.648 38.9578 135.384C38.5578 136.12 38.3578 136.984 38.3578 137.976C38.3578 138.984 38.5578 139.864 38.9578 140.616C39.3578 141.352 39.8938 141.92 40.5658 142.32C41.2378 142.704 41.9818 142.896 42.7978 142.896C43.6138 142.896 44.3578 142.704 45.0298 142.32C45.7178 141.92 46.2618 141.352 46.6618 140.616C47.0618 139.864 47.2618 138.992 47.2618 138ZM60.0245 144.6L56.9045 139.704L53.9045 144.6H51.6245L55.8725 138.072L51.6245 131.448H54.0965L57.2165 136.32L60.1925 131.448H62.4725L58.2485 137.952L62.4965 144.6H60.0245ZM65.7729 129.312C65.3569 129.312 65.0049 129.168 64.7169 128.88C64.4289 128.592 64.2849 128.24 64.2849 127.824C64.2849 127.408 64.4289 127.056 64.7169 126.768C65.0049 126.48 65.3569 126.336 65.7729 126.336C66.1729 126.336 66.5089 126.48 66.7809 126.768C67.0689 127.056 67.2129 127.408 67.2129 127.824C67.2129 128.24 67.0689 128.592 66.7809 128.88C66.5089 129.168 66.1729 129.312 65.7729 129.312ZM66.8289 131.448V144.6H64.6449V131.448H66.8289ZM83.4391 127.872V144.6H81.2551V137.016H72.7351V144.6H70.5511V127.872H72.7351V135.216H81.2551V127.872H83.4391ZM98.8323 131.448V144.6H96.6483V142.656C96.2323 143.328 95.6483 143.856 94.8963 144.24C94.1603 144.608 93.3443 144.792 92.4483 144.792C91.4243 144.792 90.5043 144.584 89.6883 144.168C88.8723 143.736 88.2243 143.096 87.7443 142.248C87.2803 141.4 87.0483 140.368 87.0483 139.152V131.448H89.2083V138.864C89.2083 140.16 89.5363 141.16 90.1923 141.864C90.8483 142.552 91.7443 142.896 92.8803 142.896C94.0483 142.896 94.9683 142.536 95.6403 141.816C96.3123 141.096 96.6483 140.048 96.6483 138.672V131.448H98.8323ZM104.704 133.896C105.152 133.112 105.808 132.472 106.672 131.976C107.536 131.48 108.52 131.232 109.624 131.232C110.808 131.232 111.872 131.512 112.816 132.072C113.76 132.632 114.504 133.424 115.048 134.448C115.592 135.456 115.864 136.632 115.864 137.976C115.864 139.304 115.592 140.488 115.048 141.528C114.504 142.568 113.752 143.376 112.792 143.952C111.848 144.528 110.792 144.816 109.624 144.816C108.488 144.816 107.488 144.568 106.624 144.072C105.776 143.576 105.136 142.944 104.704 142.176V144.6H102.52V126.84H104.704V133.896ZM113.632 137.976C113.632 136.984 113.432 136.12 113.032 135.384C112.632 134.648 112.088 134.088 111.4 133.704C110.728 133.32 109.984 133.128 109.168 133.128C108.368 133.128 107.624 133.328 106.936 133.728C106.264 134.112 105.72 134.68 105.304 135.432C104.904 136.168 104.704 137.024 104.704 138C104.704 138.992 104.904 139.864 105.304 140.616C105.72 141.352 106.264 141.92 106.936 142.32C107.624 142.704 108.368 142.896 109.168 142.896C109.984 142.896 110.728 142.704 111.4 142.32C112.088 141.92 112.632 141.352 113.032 140.616C113.432 139.864 113.632 138.984 113.632 137.976Z" fill="black"/>
<path d="M5.53333 68.9987C4.33102 68.9987 3.17795 68.5211 2.32778 67.6709C1.47762 66.8208 1 65.6677 1 64.4654V46.332C1 43.9274 1.95524 41.6213 3.65557 39.9209C5.3559 38.2206 7.66204 37.2654 10.0667 37.2654H127.933C130.338 37.2654 132.644 38.2206 134.344 39.9209C136.045 41.6213 137 43.9274 137 46.332V64.4654C137 65.6677 136.522 66.8208 135.672 67.6709C134.822 68.5211 133.669 68.9987 132.467 68.9987H5.53333Z" fill="#F9D18B"/>
<path d="M130.2 50.8654H137V46.332C137 43.9274 136.045 41.6213 134.344 39.9209C132.644 38.2206 130.338 37.2654 127.933 37.2654H123.4V44.0654C123.4 45.8689 124.116 47.5985 125.392 48.8737C126.667 50.149 128.396 50.8654 130.2 50.8654Z" fill="#ED5C58"/>
<path d="M16.8667 59.932C38.3861 60.1357 59.1516 52.0143 74.8231 37.2654H10.0667C7.66204 37.2654 5.3559 38.2206 3.65557 39.9209C1.95524 41.6213 1 43.9274 1 46.332V58.5018C6.235 59.4556 11.5455 59.9343 16.8667 59.932Z" fill="#FBE3B9"/>
<path d="M1 46.332V55.3987C3.40463 55.3987 5.71077 54.4435 7.4111 52.7431C9.11143 51.0428 10.0667 48.7367 10.0667 46.332V37.2654C7.66204 37.2654 5.3559 38.2206 3.65557 39.9209C1.95524 41.6213 1 43.9274 1 46.332Z" fill="#ED5C58"/>
<path d="M14.6004 37.266L25.3308 21.1726C27.6074 17.7565 30.6922 14.9552 34.3114 13.0177C37.9307 11.0801 41.9724 10.0662 46.0776 10.066H75.1204C81.3883 10.0659 87.4263 12.4266 92.032 16.6778L114.334 37.266H14.6004Z" fill="#7FCDEE"/>
<path d="M74.8235 37.266C81.371 31.0101 86.6613 23.5594 90.4091 15.3156C86.0372 11.9164 80.6582 10.0695 75.1204 10.066H46.0776C41.9724 10.0662 37.9307 11.0801 34.3114 13.0177C30.6922 14.9552 27.6073 17.7565 25.3308 21.1726L14.6004 37.266H74.8235Z" fill="#B2E1F5"/>
<path d="M28.2004 82.6001C35.7115 82.6001 41.8004 76.5112 41.8004 69.0001C41.8004 61.489 35.7115 55.4001 28.2004 55.4001C20.6893 55.4001 14.6004 61.489 14.6004 69.0001C14.6004 76.5112 20.6893 82.6001 28.2004 82.6001Z" fill="#758190"/>
<path d="M28.2004 73.5328C30.7041 73.5328 32.7337 71.5032 32.7337 68.9995C32.7337 66.4958 30.7041 64.4661 28.2004 64.4661C25.6967 64.4661 23.6671 66.4958 23.6671 68.9995C23.6671 71.5032 25.6967 73.5328 28.2004 73.5328Z" fill="white"/>
<path d="M105.267 82.6001C112.778 82.6001 118.867 76.5112 118.867 69.0001C118.867 61.489 112.778 55.4001 105.267 55.4001C97.7558 55.4001 91.6669 61.489 91.6669 69.0001C91.6669 76.5112 97.7558 82.6001 105.267 82.6001Z" fill="#758190"/>
<path d="M105.267 73.5328C107.771 73.5328 109.8 71.5032 109.8 68.9995C109.8 66.4958 107.771 64.4661 105.267 64.4661C102.763 64.4661 100.734 66.4958 100.734 68.9995C100.734 71.5032 102.763 73.5328 105.267 73.5328Z" fill="white"/>
<path d="M62.2 10.066H53.1333V37.266H62.2V10.066Z" fill="#758190"/>
<path d="M78.0671 1H41.8004V10.0667H78.0671V1Z" fill="#F9D18B"/>
<path d="M14.6 68.9987H5.53333C4.33102 68.9987 3.17795 68.5211 2.32778 67.6709C1.47762 66.8208 1 65.6677 1 64.4654V46.332C1 43.9274 1.95524 41.6213 3.65557 39.9209C5.3559 38.2206 7.66204 37.2654 10.0667 37.2654H127.933C130.338 37.2654 132.644 38.2206 134.344 39.9209C136.045 41.6213 137 43.9274 137 46.332V64.4654C137 65.6677 136.522 66.8208 135.672 67.6709C134.822 68.5211 133.669 68.9987 132.467 68.9987H118.867" stroke="black" stroke-width="2" stroke-linejoin="round"/>
<path d="M14.6004 37.266L25.3308 21.1726C27.6074 17.7565 30.6922 14.9552 34.3114 13.0177C37.9307 11.0801 41.9724 10.0662 46.0776 10.066H75.1204C81.3883 10.0659 87.4263 12.4266 92.032 16.6778L114.334 37.266" stroke="black" stroke-width="2" stroke-linejoin="round"/>
<path d="M137 50.8654H130.2C128.396 50.8654 126.667 50.149 125.392 48.8737C124.116 47.5985 123.4 45.8689 123.4 44.0654V37.2654" stroke="black" stroke-width="2" stroke-linejoin="round"/>
<path d="M105.267 82.6001C112.778 82.6001 118.867 76.5112 118.867 69.0001C118.867 61.489 112.778 55.4001 105.267 55.4001C97.7558 55.4001 91.6669 61.489 91.6669 69.0001C91.6669 76.5112 97.7558 82.6001 105.267 82.6001Z" stroke="black" stroke-width="2" stroke-linejoin="round"/>
<path d="M28.2004 82.6001C35.7115 82.6001 41.8004 76.5112 41.8004 69.0001C41.8004 61.489 35.7115 55.4001 28.2004 55.4001C20.6893 55.4001 14.6004 61.489 14.6004 69.0001C14.6004 76.5112 20.6893 82.6001 28.2004 82.6001Z" stroke="black" stroke-width="2" stroke-linejoin="round"/>
<path d="M10.0667 37.2654V46.332C10.0667 48.7367 9.11143 51.0428 7.4111 52.7431C5.71077 54.4435 3.40463 55.3987 1 55.3987" stroke="black" stroke-width="2" stroke-linejoin="round"/>
<path d="M78.1192 10.0667V1H41.8004V10.0667" stroke="black" stroke-width="2" stroke-linejoin="round"/>
<path d="M105.267 73.5328C107.771 73.5328 109.8 71.5032 109.8 68.9995C109.8 66.4958 107.771 64.4661 105.267 64.4661C102.763 64.4661 100.734 66.4958 100.734 68.9995C100.734 71.5032 102.763 73.5328 105.267 73.5328Z" stroke="black" stroke-width="2" stroke-linejoin="round"/>
<path d="M28.2004 73.5328C30.7041 73.5328 32.7337 71.5032 32.7337 68.9995C32.7337 66.4958 30.7041 64.4661 28.2004 64.4661C25.6967 64.4661 23.6671 66.4958 23.6671 68.9995C23.6671 71.5032 25.6967 73.5328 28.2004 73.5328Z" stroke="black" stroke-width="2" stroke-linejoin="round"/>
<path d="M91.6671 68.9984H41.8004" stroke="black" stroke-width="2" stroke-linejoin="round"/>
<path d="M53.1852 10.066V37.266" stroke="black" stroke-width="2" stroke-linejoin="round"/>
<path d="M62.2519 10.066V37.266" stroke="black" stroke-width="2" stroke-linejoin="round"/>
<path d="M48.6003 48.5996V53.1329" stroke="black" stroke-width="2" stroke-linejoin="round"/>
<path d="M53.1333 44.0659V48.5992" stroke="black" stroke-width="2" stroke-linejoin="round"/>
<path d="M57.667 48.5996V53.1329" stroke="black" stroke-width="2" stroke-linejoin="round"/>
<path d="M62.2 44.0659V48.5992" stroke="black" stroke-width="2" stroke-linejoin="round"/>
<path d="M66.7336 48.5996V53.1329" stroke="black" stroke-width="2" stroke-linejoin="round"/>
<path d="M71.2667 44.0659V48.5992" stroke="black" stroke-width="2" stroke-linejoin="round"/>
<path d="M75.7997 48.5996V53.1329" stroke="black" stroke-width="2" stroke-linejoin="round"/>
<path d="M80.3333 44.0659V48.5992" stroke="black" stroke-width="2" stroke-linejoin="round"/>
<path d="M84.867 48.5996V53.1329" stroke="black" stroke-width="2" stroke-linejoin="round"/>
</svg>
