<svg width="77" height="72" viewBox="0 0 77 72" fill="none" xmlns="http://www.w3.org/2000/svg">
<path d="M18.5601 0.488454C18.5601 0.928035 18.3892 0.976877 16.9483 0.976877C15.5563 0.976877 15.3121 1.05014 15.2144 1.44088C15.1411 1.75836 14.7992 1.97815 14.1399 2.07583C13.6026 2.17352 13.1874 2.36888 13.1874 2.56425C13.1874 2.75962 12.7723 2.95499 12.2106 3.05268C11.5024 3.17478 11.2337 3.34573 11.2337 3.66321C11.2337 3.98068 10.9651 4.12721 10.2813 4.24932C9.62195 4.347 9.30447 4.54237 9.20679 4.88427C9.13352 5.17732 8.86489 5.37269 8.57184 5.37269C8.22994 5.37269 8.05899 5.51922 8.05899 5.86111C8.05899 6.17859 7.88804 6.34954 7.57057 6.34954C7.20425 6.34954 7.08214 6.52049 7.08214 6.96007C7.08214 7.39965 6.96004 7.5706 6.59372 7.5706C6.27624 7.5706 6.1053 7.74155 6.1053 8.05902C6.1053 8.3765 5.93435 8.54744 5.61687 8.54744C5.27498 8.54744 5.12845 8.71839 5.12845 9.06029C5.12845 9.35334 4.93308 9.62198 4.66445 9.69524C4.34697 9.7685 4.12718 10.1104 4.0295 10.7698C3.90739 11.478 3.76086 11.7222 3.39454 11.7222C3.00381 11.7222 2.93054 11.8931 2.93054 12.8212C2.93054 13.7492 2.85728 13.9201 2.44212 13.9201C2.02696 13.9201 1.95369 14.0911 1.95369 15.0191C1.95369 15.9471 1.88043 16.118 1.46527 16.118C1.02569 16.118 0.976847 16.289 0.976847 17.7054C0.976847 19.1218 0.928005 19.2928 0.488424 19.2928C0.0244212 19.2928 0 19.4637 0 24.0305C0 28.5484 0.0244212 28.7682 0.488424 28.8903C0.903584 28.988 0.976847 29.2322 0.976847 30.6242C0.976847 32.065 1.02569 32.236 1.46527 32.236C1.90485 32.236 1.95369 32.4069 1.95369 33.8234C1.95369 35.2398 2.00254 35.4107 2.44212 35.4107C2.85728 35.4107 2.93054 35.5817 2.93054 36.5097C2.93054 37.4133 3.00381 37.6087 3.39454 37.6087C3.76086 37.6087 3.88297 37.8529 4.00507 38.7076C4.12718 39.3914 4.29813 39.8066 4.51792 39.8066C4.73771 39.8066 4.90866 40.2217 5.03076 40.9055C5.15287 41.7603 5.27498 42.0045 5.64129 42.0045C6.03203 42.0045 6.1053 42.1998 6.1053 43.1034C6.1053 44.0314 6.17856 44.2024 6.59372 44.2024C7.00888 44.2024 7.08214 44.3733 7.08214 45.1792C7.08214 45.9851 7.17983 46.1561 7.54615 46.1561C7.91246 46.1561 8.03457 46.4003 8.15668 47.255C8.27878 47.9632 8.44973 48.354 8.69394 48.354C8.88931 48.354 9.03584 48.5738 9.03584 48.8668C9.03584 49.1599 9.23121 49.4285 9.49984 49.5018C9.81732 49.575 10.0371 49.9169 10.1348 50.5519C10.2325 51.1868 10.4523 51.5287 10.7697 51.602C11.1361 51.6997 11.2337 51.9439 11.2337 52.7254C11.2337 53.5557 11.307 53.7266 11.7222 53.7266C12.0885 53.7266 12.2106 53.8976 12.2106 54.3372C12.2106 54.7767 12.3327 54.9477 12.699 54.9477C13.1142 54.9477 13.1874 55.1186 13.1874 55.9245C13.1874 56.7304 13.2607 56.9014 13.6759 56.9014C14.0422 56.9014 14.1643 57.0723 14.1643 57.5119C14.1643 57.9515 14.2864 58.1224 14.6283 58.1224C15.019 58.1224 15.1411 58.3422 15.2877 59.2214C15.4098 60.0761 15.5319 60.3204 15.8982 60.3204C16.1912 60.3204 16.3622 60.4913 16.3622 60.8088C16.3622 61.1263 16.5331 61.2972 16.8506 61.2972C17.2658 61.2972 17.339 61.4681 17.339 62.3962C17.339 63.3242 17.4123 63.4951 17.8275 63.4951C18.1694 63.4951 18.3159 63.6661 18.3159 64.008C18.3159 64.301 18.5113 64.5696 18.7799 64.6429C19.0974 64.7162 19.3172 65.0581 19.4148 65.7174C19.5369 66.4256 19.6835 66.6699 20.0498 66.6699C20.3917 66.6699 20.5138 66.8408 20.5138 67.2804C20.5138 67.72 20.6359 67.8909 21.0022 67.8909C21.4174 67.8909 21.4906 68.0619 21.4906 68.8678C21.4906 69.6737 21.5639 69.8446 21.9791 69.8446C22.3454 69.8446 22.4675 70.0156 22.4675 70.4551C22.4675 70.9924 22.5652 71.0657 23.4443 71.0657C24.3235 71.0657 24.4212 70.9924 24.4212 70.4551C24.4212 70.0156 24.5433 69.8446 24.8852 69.8446C25.2515 69.8446 25.398 69.6004 25.5201 68.8678C25.6422 68.1351 25.7888 67.8909 26.1551 67.8909C26.497 67.8909 26.6191 67.72 26.6191 67.2804C26.6191 66.8408 26.7412 66.6699 27.1075 66.6699C27.5227 66.6699 27.5959 66.4989 27.5959 65.693C27.5959 64.8871 27.6692 64.7162 28.0844 64.7162C28.4507 64.7162 28.5728 64.5452 28.5728 64.1056C28.5728 63.6661 28.6949 63.4951 29.0368 63.4951C29.4031 63.4951 29.5252 63.2509 29.6473 62.3962L29.8183 61.2972H46.6689H63.4951V63.3486C63.4951 65.3023 63.5195 65.4244 64.0568 65.4976C64.3987 65.5465 64.6185 65.7663 64.6673 66.1082C64.7406 66.6699 64.765 66.6699 69.2585 66.6699H73.752V66.0593C73.752 65.6197 73.8741 65.4488 74.2404 65.4488C74.7288 65.4488 74.7288 65.2779 74.7288 51.0403C74.7288 36.8028 74.7288 36.6318 74.2404 36.6318C73.8252 36.6318 73.752 36.4609 73.752 35.5329C73.752 34.6048 73.6787 34.4339 73.2636 34.4339C72.8484 34.4339 72.7751 34.263 72.7751 33.3349V32.236H74.8754H77L76.8535 30.5754C76.7558 29.6718 76.6825 28.6949 76.6825 28.3774C76.6825 28.0844 76.536 27.8402 76.3406 27.8402C76.0964 27.8402 75.9255 27.4494 75.8034 26.7412C75.6813 25.8865 75.5591 25.6423 75.1928 25.6423C74.8998 25.6423 74.7288 25.4713 74.7288 25.1538C74.7288 24.8364 74.5579 24.6654 74.2404 24.6654C73.9229 24.6654 73.752 24.4945 73.752 24.177C73.752 23.713 73.581 23.6886 70.6993 23.6886H67.6467V22.5896C67.6467 21.6616 67.5734 21.4907 67.1583 21.4907C66.7431 21.4907 66.6698 21.3197 66.6698 20.3917C66.6698 19.4881 66.5966 19.2928 66.2058 19.2928C65.7418 19.2928 65.4488 18.3403 65.4488 16.8262C65.4488 16.3866 65.3022 16.1424 64.9604 16.0447C64.5696 15.9471 64.4719 15.7029 64.4719 14.9214C64.4719 14.0911 64.3987 13.9201 63.9835 13.9201C63.5683 13.9201 63.4951 13.7492 63.4951 12.8212C63.4951 11.8931 63.4218 11.7222 63.0067 11.7222C62.6892 11.7222 62.5182 11.5512 62.5182 11.2338C62.5182 10.9163 62.3473 10.7454 62.0542 10.7454C61.7368 10.7454 61.5414 10.55 61.4925 10.1837C61.4437 9.74408 61.2483 9.62198 60.5157 9.57313C59.7831 9.49987 59.5877 9.40219 59.5877 9.01145C59.5877 8.57187 59.3679 8.54744 54.4837 8.54744H49.4041L49.2331 7.79039C49.1598 7.37523 49.0866 6.64259 49.0866 6.20301C49.0866 5.54364 48.9889 5.37269 48.5982 5.37269C48.2318 5.37269 48.1097 5.20174 48.1097 4.76216C48.1097 4.32258 47.9876 4.15163 47.6213 4.15163C47.3038 4.15163 47.1329 3.98068 47.1329 3.66321C47.1329 3.17478 46.9619 3.17478 40.5392 3.17478C34.2385 3.17478 33.9454 3.15036 33.9454 2.71078C33.9454 2.34446 33.7012 2.22236 32.8465 2.10025C31.9673 1.95372 31.7475 1.83162 31.7475 1.44088C31.7475 1.02572 31.5766 0.976877 30.1602 0.976877C28.7437 0.976877 28.5728 0.928035 28.5728 0.488454C28.5728 0.0244513 28.4018 3.01562e-05 23.5664 3.01562e-05C18.731 3.01562e-05 18.5601 0.0244513 18.5601 0.488454ZM28.5728 2.68636C28.5728 3.12594 28.7437 3.17478 30.1602 3.17478C31.5522 3.17478 31.7475 3.22363 31.7475 3.63879C31.7475 4.0051 31.9918 4.15163 32.7244 4.27374C33.457 4.39584 33.7012 4.54237 33.7012 4.90869C33.7012 5.29943 33.8722 5.37269 34.6781 5.37269C35.484 5.37269 35.6549 5.44595 35.6549 5.86111C35.6549 6.22743 35.8259 6.34954 36.2655 6.34954C36.705 6.34954 36.876 6.47164 36.876 6.83796C36.876 7.15544 37.0469 7.32639 37.3644 7.32639C37.7307 7.32639 37.8528 7.49733 37.8528 7.93691C37.8528 8.3765 37.9749 8.54744 38.3413 8.54744C38.6587 8.54744 38.8297 8.71839 38.8297 9.03587C38.8297 9.35334 39.0006 9.52429 39.2937 9.52429C39.6112 9.52429 39.8065 9.71966 39.8554 10.0616C39.9042 10.4279 40.124 10.6477 40.4903 10.6965C40.8811 10.7698 41.0276 10.9407 41.0276 11.3803C41.0276 11.7466 41.1741 11.9664 41.3939 11.9664C41.6381 11.9664 41.8091 12.3083 41.9068 12.9433C42.0289 13.6759 42.1754 13.9201 42.5173 13.9201C42.908 13.9201 42.9813 14.1155 42.9813 15.0191C42.9813 15.9471 43.0545 16.118 43.4697 16.118C43.9093 16.118 43.9581 16.289 43.9581 17.4368C43.9581 19.2195 44.2023 20.2696 44.5931 20.2696C44.8617 20.2696 44.935 21.0267 44.935 24.177C44.935 27.3273 44.8617 28.0844 44.5931 28.0844C44.2023 28.0844 43.9581 29.1345 43.9581 30.9172C43.9581 32.065 43.9093 32.236 43.4697 32.236C43.0545 32.236 42.9813 32.4069 42.9813 33.3349C42.9813 34.263 42.908 34.4339 42.4929 34.4339C42.1021 34.4339 42.0044 34.6048 42.0044 35.2642C42.0044 36.5585 41.7358 37.6087 41.3939 37.6087C41.1985 37.6087 41.0032 38.0238 40.9055 38.5611C40.8078 39.2205 40.588 39.5623 40.2705 39.6356C39.9042 39.7333 39.8065 39.9775 39.8065 40.7346C39.8065 41.4916 39.7088 41.7358 39.3181 41.8335C38.9762 41.9068 38.8297 42.1754 38.8297 42.5906C38.8297 43.0546 38.7076 43.2255 38.3413 43.2255C37.9261 43.2255 37.8528 43.3965 37.8528 44.2024C37.8528 45.0083 37.7796 45.1792 37.3644 45.1792C36.9493 45.1792 36.876 45.3502 36.876 46.1805C36.876 46.962 36.7783 47.2062 36.412 47.3039C36.0945 47.3771 35.8747 47.719 35.777 48.354C35.6794 48.9889 35.4596 49.3308 35.1421 49.4041C34.8735 49.4773 34.6781 49.746 34.6781 50.039C34.6781 50.3321 34.5316 50.5519 34.3362 50.5519C34.092 50.5519 33.921 50.9426 33.7989 51.6508C33.6768 52.5056 33.5547 52.7498 33.1884 52.7498C32.8221 52.7498 32.7244 52.9207 32.7244 53.7266C32.7244 54.5325 32.6511 54.7035 32.236 54.7035C31.8696 54.7035 31.7475 54.8744 31.7475 55.314C31.7475 55.7536 31.6254 55.9245 31.2835 55.9245C30.9172 55.9245 30.7951 56.1688 30.673 57.0235C30.5265 57.9027 30.4044 58.1224 30.0136 58.1224C29.6717 58.1224 29.5496 58.2934 29.5496 58.733C29.5496 59.0993 29.4031 59.3435 29.1833 59.3435C28.9391 59.3435 28.7682 59.6854 28.6705 60.3204C28.5484 61.053 28.4018 61.2972 28.0599 61.2972C27.718 61.2972 27.5959 61.4681 27.5959 61.9077C27.5959 62.3473 27.4738 62.5183 27.1319 62.5183C26.7656 62.5183 26.6191 62.7625 26.497 63.4951C26.3993 64.1056 26.2039 64.472 25.9841 64.472C25.7888 64.472 25.6422 64.6917 25.6422 64.9848C25.6422 65.2779 25.4469 65.5465 25.1782 65.6197C24.8608 65.693 24.641 66.0349 24.5433 66.6943C24.3723 67.6223 24.3479 67.6467 23.4199 67.6467C22.4675 67.6467 22.4675 67.6467 22.4675 66.6699C22.4675 65.864 22.3942 65.693 21.9791 65.693C21.6127 65.693 21.4906 65.5221 21.4906 65.0825C21.4906 64.6429 21.3685 64.472 21.0266 64.472C20.6603 64.472 20.5138 64.2277 20.3917 63.5195C20.294 62.8602 20.0742 62.5183 19.7567 62.445C19.4881 62.3717 19.2927 62.1031 19.2927 61.81C19.2927 61.4681 19.1462 61.2972 18.8043 61.2972C18.3892 61.2972 18.3159 61.1263 18.3159 60.3204C18.3159 59.5145 18.2426 59.3435 17.8275 59.3435C17.4611 59.3435 17.339 59.1726 17.339 58.733C17.339 58.2934 17.2169 58.1224 16.8506 58.1224C16.4355 58.1224 16.3622 57.9515 16.3622 57.1212C16.3622 56.3397 16.2645 56.0955 15.8738 55.9978C15.6051 55.9245 15.3853 55.6559 15.3853 55.3873C15.3853 55.1186 15.19 54.85 14.9213 54.7767C14.6039 54.7035 14.3841 54.3616 14.2864 53.7022C14.1643 52.994 14.0178 52.7498 13.6514 52.7498C13.2607 52.7498 13.1874 52.5788 13.1874 51.6508C13.1874 50.7228 13.1142 50.5519 12.699 50.5519C12.3327 50.5519 12.2106 50.3809 12.2106 49.9414C12.2106 49.5018 12.0885 49.3308 11.7222 49.3308C11.307 49.3308 11.2337 49.1599 11.2337 48.354C11.2337 47.5481 11.1361 47.3771 10.7697 47.3771C10.4034 47.3771 10.2813 47.1329 10.1592 46.2782C10.0127 45.399 9.89058 45.1792 9.49984 45.1792C9.15794 45.1792 9.03584 45.0083 9.03584 44.5687C9.03584 44.2024 8.88931 43.9582 8.69394 43.9582C8.44973 43.9582 8.27878 43.5674 8.15668 42.8592C8.03457 42.0045 7.91246 41.7603 7.54615 41.7603C7.17983 41.7603 7.08214 41.5893 7.08214 40.7834C7.08214 39.9775 7.00888 39.8066 6.59372 39.8066C6.17856 39.8066 6.1053 39.6356 6.1053 38.7076C6.1053 37.7796 6.03203 37.6087 5.61687 37.6087C5.22613 37.6087 5.12845 37.4377 5.12845 36.7783C5.12845 35.3619 4.85982 34.4827 4.37139 34.3606C4.00507 34.263 3.90739 34.0187 3.90739 33.2373C3.90739 32.5535 3.8097 32.236 3.56549 32.236C3.17475 32.236 2.93054 31.1859 2.93054 29.4031C2.93054 28.2553 2.8817 28.0844 2.44212 28.0844C1.97812 28.0844 1.95369 27.9134 1.95369 23.8107C1.95369 19.7079 1.97812 19.537 2.44212 19.537C2.85728 19.537 2.93054 19.366 2.93054 18.5846C2.93054 17.1925 3.19918 16.118 3.54107 16.118C3.71202 16.118 3.93181 15.654 4.00507 15.0191C4.1516 14.1399 4.27371 13.9201 4.66445 13.9201C5.03076 13.9201 5.12845 13.7492 5.12845 12.9677C5.12845 12.235 5.22613 11.9908 5.61687 11.8931C5.90993 11.8199 6.1053 11.5512 6.1053 11.2582C6.1053 10.9163 6.25182 10.7454 6.59372 10.7454C6.96004 10.7454 7.08214 10.5744 7.08214 10.1348C7.08214 9.69524 7.20425 9.52429 7.57057 9.52429C7.88804 9.52429 8.05899 9.35334 8.05899 9.03587C8.05899 8.71839 8.22994 8.54744 8.52299 8.54744C8.84047 8.54744 9.03584 8.35207 9.08468 7.98576C9.13352 7.64386 9.35331 7.42407 9.71963 7.37523C10.0615 7.32639 10.2569 7.13102 10.2569 6.81354C10.2569 6.52049 10.4278 6.34954 10.7453 6.34954C11.0628 6.34954 11.2337 6.17859 11.2337 5.86111C11.2337 5.44595 11.4047 5.37269 12.2106 5.37269C13.0165 5.37269 13.1874 5.29943 13.1874 4.90869C13.1874 4.51795 13.4072 4.39584 14.2864 4.24932C15.1411 4.12721 15.3853 4.0051 15.3853 3.63879C15.3853 3.22363 15.5807 3.17478 16.875 3.17478C18.1449 3.17478 18.3892 3.10152 18.4868 2.68636C18.6089 2.22236 18.8287 2.19794 23.5909 2.19794C28.4018 2.19794 28.5728 2.22236 28.5728 2.68636ZM46.156 5.86111C46.156 6.17859 46.327 6.34954 46.6445 6.34954C47.0596 6.34954 47.1329 6.52049 47.1329 7.44849V8.54744H44.0802C41.223 8.54744 41.0276 8.52302 41.0276 8.08344C41.0276 7.76597 40.8322 7.5706 40.4903 7.52175C40.124 7.47291 39.9042 7.25312 39.8554 6.8868C39.8065 6.54491 39.6112 6.34954 39.2937 6.34954C39.0006 6.34954 38.8297 6.17859 38.8297 5.86111C38.8297 5.39711 39.0006 5.37269 42.4929 5.37269C45.9851 5.37269 46.156 5.39711 46.156 5.86111ZM59.3435 11.2338C59.3435 11.6001 59.5144 11.7222 59.954 11.7222C60.3936 11.7222 60.5645 11.8443 60.5645 12.1862C60.5645 12.4304 60.7843 12.699 61.053 12.7723C61.346 12.8456 61.5414 13.1142 61.5414 13.4073C61.5414 13.7492 61.6879 13.9201 62.0298 13.9201C62.445 13.9201 62.5182 14.0911 62.5182 15.0191C62.5182 15.9471 62.5915 16.118 63.0067 16.118C63.4462 16.118 63.4951 16.289 63.4951 17.7054C63.4951 19.1218 63.5439 19.2928 63.9835 19.2928C64.3987 19.2928 64.4719 19.4637 64.4719 20.3917C64.4719 21.3197 64.5452 21.4907 64.9604 21.4907C65.3511 21.4907 65.4488 21.6616 65.4488 22.321C65.4488 23.6153 65.7174 24.6654 66.0837 24.6654C66.2791 24.6654 66.45 25.105 66.5722 25.7644C66.7187 26.8389 66.7431 26.8633 67.6711 26.8633C68.4526 26.8633 68.6235 26.7901 68.6235 26.3749C68.6235 25.9353 68.7945 25.8865 70.6993 25.8865C72.6042 25.8865 72.7751 25.9353 72.7751 26.3749C72.7751 26.6924 72.9461 26.8633 73.2636 26.8633C73.6299 26.8633 73.752 27.0343 73.752 27.4739C73.752 27.9134 73.8741 28.0844 74.2404 28.0844C74.6556 28.0844 74.7288 28.2553 74.7288 29.0612V30.0381H71.6762H68.6235V30.6486C68.6235 31.0882 68.7456 31.2591 69.0875 31.2591C69.4539 31.2591 69.6004 31.5034 69.7225 32.236C69.8202 32.8465 70.0155 33.2128 70.2353 33.2128C70.4307 33.2128 70.5772 33.4326 70.5772 33.7257C70.5772 34.0187 70.7726 34.2874 71.0656 34.3606C71.4075 34.4583 71.5785 34.7758 71.7006 35.5573C71.7739 36.1678 71.9937 36.6318 72.1646 36.6318C72.3356 36.6318 72.5309 36.9737 72.6286 37.3889C72.7019 37.804 72.7751 44.0803 72.7751 51.3089V64.472H69.2585H65.7663L65.5953 63.7149C65.522 63.2997 65.4488 62.0787 65.4488 61.0286V59.0993H48.5982C31.9185 59.0993 31.7475 59.0993 31.7475 58.6109C31.7475 58.2934 31.9185 58.1224 32.236 58.1224C32.6023 58.1224 32.7244 57.9515 32.7244 57.5119C32.7244 57.0723 32.8465 56.9014 33.2128 56.9014C33.628 56.9014 33.7012 56.7304 33.7012 55.9245C33.7012 55.1186 33.7745 54.9477 34.1897 54.9477C34.556 54.9477 34.6781 54.7767 34.6781 54.3372C34.6781 53.8487 34.8002 53.7266 35.2886 53.7266C35.7282 53.7266 35.8991 53.8487 35.8991 54.2151C35.8991 54.6302 36.0701 54.7035 36.876 54.7035H37.8528V53.7266V52.7498H36.876C35.9968 52.7498 35.8991 52.6765 35.8991 52.1393C35.8991 51.6997 36.0212 51.5287 36.3876 51.5287C36.8027 51.5287 36.876 51.3578 36.876 50.5519C36.876 49.746 36.9493 49.575 37.3644 49.575C37.7307 49.575 37.8528 49.4041 37.8528 48.9645C37.8528 48.5249 37.9749 48.354 38.3413 48.354C38.7564 48.354 38.8297 48.183 38.8297 47.255C38.8297 46.327 38.9029 46.1561 39.3181 46.1561C39.6356 46.1561 39.8065 45.9851 39.8065 45.6676C39.8065 45.2036 39.9775 45.1792 46.0339 45.1792H52.2613V44.0803V42.9813H46.6445C41.2962 42.9813 41.0276 42.9569 41.0276 42.5173C41.0276 42.2731 41.2474 42.0045 41.516 41.9312C41.9068 41.8335 42.0044 41.5893 42.0044 40.8078V39.8066H48.1097H54.215V38.7076V37.6087H49.0866H43.9581V36.5097C43.9581 35.5817 44.0314 35.4107 44.4466 35.4107C44.8373 35.4107 44.935 35.2398 44.935 34.5804C44.935 33.2861 45.2036 32.236 45.5455 32.236C45.8874 32.236 46.156 31.1615 46.156 29.7695C46.156 29.1345 46.2537 28.817 46.4979 28.817C46.9864 28.817 47.1329 27.6937 47.1329 24.177C47.1329 20.6604 46.9864 19.537 46.4979 19.537C46.2537 19.537 46.156 19.2195 46.156 18.5846C46.156 17.1681 45.8874 16.118 45.5211 16.118C45.3257 16.118 45.1548 15.6784 45.0327 15.0191C44.935 14.3597 44.764 13.9201 44.5442 13.9201C44.3489 13.9201 44.1779 13.4805 44.0558 12.8212C43.9337 11.9664 43.8116 11.7222 43.4453 11.7222C43.1522 11.7222 42.9813 11.5512 42.9813 11.2338C42.9813 10.7454 43.1522 10.7454 51.1624 10.7454C59.1725 10.7454 59.3435 10.7454 59.3435 11.2338Z" fill="black"/>
<path d="M8.05884 24.6654V27.8401H11.1115H14.1641V31.137V34.4338H17.3389H20.5136V31.137V27.8157L23.5175 27.889L26.4968 27.9622L26.5701 31.1858L26.6434 34.4338H29.6716H32.7242V31.137V27.8401H35.7769H38.8295V24.6654V21.4906H35.7769H32.7242V24.6654V27.8401H29.6716H26.6189V24.6654V21.4906H23.5663H20.5136V24.6654V27.8401H17.3389H14.1641V24.6654V21.4906H11.1115H8.05884V24.6654Z" fill="black"/>
<path d="M48.1097 31.1371V32.2361H49.0866H50.0634V31.1371V30.0382H49.0866H48.1097V31.1371Z" fill="black"/>
<path d="M52.2613 31.1371V32.2361H53.2381H54.215V31.1371V30.0382H53.2381H52.2613V31.1371Z" fill="black"/>
<path d="M56.413 31.1371V32.2361H57.3898H58.3667V31.1371V30.0382H57.3898H56.413V31.1371Z" fill="black"/>
<path d="M60.5645 31.1127V32.2361H61.5658H62.5426L62.4693 31.186C62.3961 30.1847 62.3717 30.1603 61.4925 30.087L60.5645 30.0138V31.1127Z" fill="black"/>
<path d="M64.6428 30.2091C64.5451 30.2824 64.4718 30.7952 64.4718 31.3081C64.4718 32.2361 64.4718 32.2361 65.4487 32.2361H66.4255V31.1371C66.4255 30.0626 66.4255 30.0382 65.6196 30.0382C65.1556 30.0382 64.716 30.1114 64.6428 30.2091Z" fill="black"/>
<path d="M61.3704 35.8994C61.2971 36.2168 60.9552 36.4366 60.4424 36.5343C59.7097 36.6564 59.6121 36.8029 59.4655 37.6333C59.3434 38.3415 59.1969 38.5857 58.8306 38.5857C58.4154 38.5857 58.3666 38.7811 58.3666 40.7836C58.3666 42.7861 58.4154 42.9815 58.8306 42.9815C59.1969 42.9815 59.319 43.2257 59.4411 44.0804C59.6121 45.1306 59.6609 45.1794 60.4668 45.1794C61.1262 45.1794 61.2971 45.2771 61.2971 45.6678C61.2971 46.1318 61.4681 46.1562 63.495 46.1562C65.522 46.1562 65.6929 46.1318 65.6929 45.6678C65.6929 45.2771 65.8639 45.1794 66.5233 45.1794C67.3292 45.1794 67.378 45.1306 67.5489 44.0804C67.671 43.2257 67.7932 42.9815 68.1595 42.9815C68.5746 42.9815 68.6235 42.7861 68.6235 40.7836C68.6235 38.7811 68.5746 38.5857 68.1595 38.5857C67.7932 38.5857 67.6466 38.3415 67.5245 37.6333C67.378 36.8029 67.2803 36.6564 66.5477 36.5343C66.0348 36.4366 65.6929 36.2168 65.6197 35.8994C65.4976 35.4598 65.2778 35.4109 63.495 35.4109C61.7123 35.4109 61.4925 35.4598 61.3704 35.8994ZM65.4487 38.2194C65.4487 38.6589 65.5708 38.8299 65.9127 38.8299C66.4988 38.8299 66.7919 40.2952 66.5477 41.907C66.4256 42.7617 66.3035 42.9815 65.9127 42.9815C65.6197 42.9815 65.4487 43.1524 65.4487 43.4699C65.4487 43.9095 65.2778 43.9583 63.495 43.9583C61.7123 43.9583 61.5413 43.9095 61.5413 43.4699C61.5413 43.1524 61.3704 42.9815 61.0773 42.9815C60.4912 42.9815 60.1982 41.5162 60.4424 39.9044C60.5645 39.0497 60.6866 38.8299 61.0773 38.8299C61.4192 38.8299 61.5413 38.6589 61.5413 38.2194C61.5413 37.6088 61.5658 37.6088 63.495 37.6088C65.4243 37.6088 65.4487 37.6088 65.4487 38.2194Z" fill="black"/>
<path d="M40.0507 53.7266V54.7035H41.0275H42.0044V53.7266V52.7498H41.0275H40.0507V53.7266Z" fill="black"/>
<path d="M43.958 53.7266V54.7035H44.9349H45.9117V53.7266V52.7498H44.9349H43.958V53.7266Z" fill="black"/>
<path d="M48.1097 53.7266V54.7035H49.0866H50.0634V53.7266V52.7498H49.0866H48.1097V53.7266Z" fill="black"/>
<path d="M52.2613 53.7266V54.7035H53.2381H54.215V53.7266V52.7498H53.2381H52.2613V53.7266Z" fill="black"/>
<path d="M56.413 53.7266V54.7035H57.3898H58.3667V53.7266V52.7498H57.3898H56.413V53.7266Z" fill="black"/>
<path d="M60.5645 53.7266V54.7035H61.5413H62.5182V53.7266V52.7498H61.5413H60.5645V53.7266Z" fill="black"/>
<path d="M64.4718 53.7266V54.7035H65.4487H66.4255V53.7266V52.7498H65.4487H64.4718V53.7266Z" fill="black"/>
<path d="M68.6236 53.7266V54.7035H69.6004H70.5773V53.7266V52.7498H69.6004H68.6236V53.7266Z" fill="black"/>
</svg>
