<svg width="149" height="149" viewBox="0 0 149 149" fill="none" xmlns="http://www.w3.org/2000/svg">
<path d="M74.5 149C33.3611 149 0 115.639 0 74.5C0 33.3611 33.3611 0 74.5 0C115.639 0 149 33.3611 149 74.5C149 115.639 115.639 149 74.5 149Z" fill="#25D366"/>
<path fill-rule="evenodd" clip-rule="evenodd" d="M109.352 39.8084C100.114 30.5555 87.8061 25.4597 74.709 25.4448C47.7251 25.4448 25.7476 47.4074 25.7476 74.4062C25.7476 83.0333 27.9975 91.4667 32.2887 98.8869L25.3453 124.262L51.3011 117.452C58.4531 121.356 66.4991 123.412 74.6941 123.412H74.709C101.693 123.412 123.656 101.45 123.67 74.4509C123.685 61.3687 118.604 49.0613 109.352 39.8084ZM74.7239 115.143H74.709C67.408 115.143 60.2411 113.176 53.998 109.466L52.508 108.587L37.1014 112.625L41.2138 97.6055L40.2453 96.0708C36.1776 89.5893 34.0171 82.1095 34.0171 74.4062C34.032 51.9668 52.2845 33.7143 74.7388 33.7143C85.6158 33.7143 95.8223 37.9608 103.511 45.6492C111.199 53.3376 115.431 63.5739 115.416 74.436C115.416 96.8903 97.1484 115.143 74.7239 115.143ZM97.0441 84.6574C95.8223 84.0465 89.8027 81.0814 88.6852 80.6791C87.5677 80.2768 86.7482 80.0682 85.9287 81.29C85.1092 82.5118 82.7699 85.2683 82.0547 86.0878C81.3395 86.9073 80.6243 87.0116 79.4025 86.4007C78.1807 85.7898 74.2322 84.4935 69.5685 80.3215C65.9329 77.0733 63.4744 73.0652 62.7592 71.8434C62.044 70.6216 62.6847 69.9511 63.2956 69.3402C63.8469 68.7889 64.5174 67.9098 65.1283 67.1946C65.7392 66.4794 65.9478 65.9728 66.3501 65.1533C66.7524 64.3338 66.5587 63.6186 66.2458 63.0077C65.9329 62.3968 63.4893 56.3772 62.4761 53.9187C61.4778 51.5347 60.4795 51.8625 59.7196 51.8178C59.0044 51.788 58.1849 51.7731 57.3803 51.7731C56.5608 51.7731 55.2347 52.086 54.1172 53.3078C52.9997 54.5296 49.8409 57.4947 49.8409 63.5143C49.8409 69.5339 54.2215 75.3598 54.8324 76.1644C55.4433 76.9839 63.4595 89.336 75.7371 94.6404C78.6575 95.9069 80.9372 96.6519 82.7103 97.2181C85.6456 98.1568 88.3127 98.0227 90.4136 97.7098C92.7678 97.3522 97.655 94.7447 98.6682 91.8988C99.6814 89.038 99.6814 86.5944 99.3834 86.0878C99.0854 85.5812 98.2659 85.2832 97.0441 84.6574Z" fill="white"/>
</svg>
