<svg width="62" height="62" viewBox="0 0 62 62" fill="none" xmlns="http://www.w3.org/2000/svg">
<path d="M30.69 61.38C13.743 61.38 0 47.637 0 30.69C0 13.743 13.743 0 30.69 0C47.637 0 61.38 13.743 61.38 30.69C61.38 47.637 47.637 61.38 30.69 61.38Z" fill="#25D366"/>
<path fill-rule="evenodd" clip-rule="evenodd" d="M45.047 16.399C41.2414 12.5873 36.1714 10.4881 30.7761 10.4819C19.6602 10.4819 10.6067 19.5293 10.6067 30.6514C10.6067 34.2053 11.5335 37.6794 13.3013 40.7361L10.4409 51.1892L21.1333 48.3841C24.0796 49.9922 27.3941 50.8393 30.77 50.8393H30.7761C41.8921 50.8393 50.9395 41.7919 50.9456 30.6698C50.9517 25.2807 48.8587 20.2107 45.047 16.399ZM30.7823 47.4327H30.7761C27.7685 47.4327 24.8161 46.6225 22.2443 45.0941L21.6305 44.732L15.2838 46.3954L16.9779 40.2083L16.5789 39.5761C14.9033 36.906 14.0133 33.8247 14.0133 30.6514C14.0194 21.4076 21.5385 13.8885 30.7884 13.8885C35.2692 13.8885 39.4737 15.6379 42.6409 18.8051C45.8081 21.9723 47.5513 26.1891 47.5452 30.6637C47.5452 39.9136 40.02 47.4327 30.7823 47.4327ZM39.977 34.8743C39.4737 34.6227 36.9939 33.4012 36.5336 33.2355C36.0732 33.0698 35.7356 32.9838 35.3981 33.4872C35.0605 33.9905 34.0968 35.126 33.8022 35.4636C33.5076 35.8012 33.2129 35.8442 32.7096 35.5925C32.2063 35.3408 30.5797 34.8068 28.6585 33.0882C27.1609 31.7501 26.1481 30.099 25.8535 29.5957C25.5588 29.0924 25.8228 28.8161 26.0744 28.5645C26.3015 28.3374 26.5778 27.9752 26.8294 27.6806C27.0811 27.386 27.167 27.1773 27.3327 26.8397C27.4984 26.5021 27.4187 26.2075 27.2898 25.9558C27.1609 25.7042 26.1542 23.2244 25.7368 22.2117C25.3256 21.2296 24.9144 21.3646 24.6013 21.3462C24.3067 21.3339 23.9691 21.3278 23.6376 21.3278C23.3001 21.3278 22.7538 21.4567 22.2934 21.96C21.8331 22.4633 20.5318 23.6848 20.5318 26.1645C20.5318 28.6443 22.3364 31.0442 22.588 31.3757C22.8397 31.7133 26.142 36.8017 31.1997 38.9868C32.4027 39.5085 33.3418 39.8154 34.0722 40.0487C35.2814 40.4354 36.3801 40.3801 37.2456 40.2512C38.2154 40.1039 40.2287 39.0298 40.646 37.8574C41.0634 36.6789 41.0634 35.6723 40.9407 35.4636C40.8179 35.2549 40.4803 35.1321 39.977 34.8743Z" fill="white"/>
</svg>