<svg width="125" height="166" viewBox="0 0 125 166" fill="none" xmlns="http://www.w3.org/2000/svg">
<path d="M22.9345 142.089L18.0865 158.817H15.6385L11.7505 145.353L7.7185 158.817L5.2945 158.841L0.6145 142.089H2.9425L6.5905 156.273L10.6225 142.089H13.0705L16.9105 156.225L20.5825 142.089H22.9345ZM31.8526 145.425C32.8446 145.425 33.7406 145.641 34.5406 146.073C35.3406 146.489 35.9646 147.121 36.4126 147.969C36.8766 148.817 37.1086 149.849 37.1086 151.065V158.817H34.9486V151.377C34.9486 150.065 34.6206 149.065 33.9646 148.377C33.3086 147.673 32.4126 147.321 31.2766 147.321C30.1246 147.321 29.2046 147.681 28.5166 148.401C27.8446 149.121 27.5086 150.169 27.5086 151.545V158.817H25.3246V141.057H27.5086V147.537C27.9406 146.865 28.5326 146.345 29.2846 145.977C30.0526 145.609 30.9086 145.425 31.8526 145.425ZM39.8601 152.193C39.8601 150.849 40.1321 149.673 40.6761 148.665C41.2201 147.641 41.9641 146.849 42.9081 146.289C43.8681 145.729 44.9321 145.449 46.1001 145.449C47.2521 145.449 48.2521 145.697 49.1001 146.193C49.9481 146.689 50.5801 147.313 50.9961 148.065V145.665H53.2041V158.817H50.9961V156.369C50.5641 157.137 49.9161 157.777 49.0521 158.289C48.2041 158.785 47.2121 159.033 46.0761 159.033C44.9081 159.033 43.8521 158.745 42.9081 158.169C41.9641 157.593 41.2201 156.785 40.6761 155.745C40.1321 154.705 39.8601 153.521 39.8601 152.193ZM50.9961 152.217C50.9961 151.225 50.7961 150.361 50.3961 149.625C49.9961 148.889 49.4521 148.329 48.7641 147.945C48.0921 147.545 47.3481 147.345 46.5321 147.345C45.7161 147.345 44.9721 147.537 44.3001 147.921C43.6281 148.305 43.0921 148.865 42.6921 149.601C42.2921 150.337 42.0921 151.201 42.0921 152.193C42.0921 153.201 42.2921 154.081 42.6921 154.833C43.0921 155.569 43.6281 156.137 44.3001 156.537C44.9721 156.921 45.7161 157.113 46.5321 157.113C47.3481 157.113 48.0921 156.921 48.7641 156.537C49.4521 156.137 49.9961 155.569 50.3961 154.833C50.7961 154.081 50.9961 153.209 50.9961 152.217ZM59.5589 147.465V155.217C59.5589 155.857 59.6949 156.313 59.9669 156.585C60.2389 156.841 60.7109 156.969 61.3829 156.969H62.9909V158.817H61.0229C59.8069 158.817 58.8949 158.537 58.2869 157.977C57.6789 157.417 57.3749 156.497 57.3749 155.217V147.465H55.6709V145.665H57.3749V142.353H59.5589V145.665H62.9909V147.465H59.5589ZM70.2931 159.033C69.2851 159.033 68.3811 158.865 67.5811 158.529C66.7811 158.177 66.1491 157.697 65.6851 157.089C65.2211 156.465 64.9651 155.753 64.9171 154.953H67.1731C67.2371 155.609 67.5411 156.145 68.0851 156.561C68.6451 156.977 69.3731 157.185 70.2691 157.185C71.1011 157.185 71.7571 157.001 72.2371 156.633C72.7171 156.265 72.9571 155.801 72.9571 155.241C72.9571 154.665 72.7011 154.241 72.1891 153.969C71.6771 153.681 70.8851 153.401 69.8131 153.129C68.8371 152.873 68.0371 152.617 67.4131 152.361C66.8051 152.089 66.2771 151.697 65.8291 151.185C65.3971 150.657 65.1811 149.969 65.1811 149.121C65.1811 148.449 65.3811 147.833 65.7811 147.273C66.1811 146.713 66.7491 146.273 67.4851 145.953C68.2211 145.617 69.0611 145.449 70.0051 145.449C71.4611 145.449 72.6371 145.817 73.5331 146.553C74.4291 147.289 74.9091 148.297 74.9731 149.577H72.7891C72.7411 148.889 72.4611 148.337 71.9491 147.921C71.4531 147.505 70.7811 147.297 69.9331 147.297C69.1491 147.297 68.5251 147.465 68.0611 147.801C67.5971 148.137 67.3651 148.577 67.3651 149.121C67.3651 149.553 67.5011 149.913 67.7731 150.201C68.0611 150.473 68.4131 150.697 68.8291 150.873C69.2611 151.033 69.8531 151.217 70.6051 151.425C71.5491 151.681 72.3171 151.937 72.9091 152.193C73.5011 152.433 74.0051 152.801 74.4211 153.297C74.8531 153.793 75.0771 154.441 75.0931 155.241C75.0931 155.961 74.8931 156.609 74.4931 157.185C74.0931 157.761 73.5251 158.217 72.7891 158.553C72.0691 158.873 71.2371 159.033 70.2931 159.033ZM88.0641 155.097H80.7681L79.4241 158.817H77.1201L83.1681 142.185H85.6881L91.7121 158.817H89.4081L88.0641 155.097ZM87.4401 153.321L84.4161 144.873L81.3921 153.321H87.4401ZM96.532 148.089C96.964 147.337 97.604 146.713 98.452 146.217C99.316 145.705 100.316 145.449 101.452 145.449C102.62 145.449 103.676 145.729 104.62 146.289C105.58 146.849 106.332 147.641 106.876 148.665C107.42 149.673 107.692 150.849 107.692 152.193C107.692 153.521 107.42 154.705 106.876 155.745C106.332 156.785 105.58 157.593 104.62 158.169C103.676 158.745 102.62 159.033 101.452 159.033C100.332 159.033 99.34 158.785 98.476 158.289C97.628 157.777 96.98 157.145 96.532 156.393V165.057H94.348V145.665H96.532V148.089ZM105.46 152.193C105.46 151.201 105.26 150.337 104.86 149.601C104.46 148.865 103.916 148.305 103.228 147.921C102.556 147.537 101.812 147.345 100.996 147.345C100.196 147.345 99.452 147.545 98.764 147.945C98.092 148.329 97.548 148.897 97.132 149.649C96.732 150.385 96.532 151.241 96.532 152.217C96.532 153.209 96.732 154.081 97.132 154.833C97.548 155.569 98.092 156.137 98.764 156.537C99.452 156.921 100.196 157.113 100.996 157.113C101.812 157.113 102.556 156.921 103.228 156.537C103.916 156.137 104.46 155.569 104.86 154.833C105.26 154.081 105.46 153.201 105.46 152.193ZM112.751 148.089C113.183 147.337 113.823 146.713 114.671 146.217C115.535 145.705 116.535 145.449 117.671 145.449C118.839 145.449 119.895 145.729 120.839 146.289C121.799 146.849 122.551 147.641 123.095 148.665C123.639 149.673 123.911 150.849 123.911 152.193C123.911 153.521 123.639 154.705 123.095 155.745C122.551 156.785 121.799 157.593 120.839 158.169C119.895 158.745 118.839 159.033 117.671 159.033C116.551 159.033 115.559 158.785 114.695 158.289C113.847 157.777 113.199 157.145 112.751 156.393V165.057H110.567V145.665H112.751V148.089ZM121.679 152.193C121.679 151.201 121.479 150.337 121.079 149.601C120.679 148.865 120.135 148.305 119.447 147.921C118.775 147.537 118.031 147.345 117.215 147.345C116.415 147.345 115.671 147.545 114.983 147.945C114.311 148.329 113.767 148.897 113.351 149.649C112.951 150.385 112.751 151.241 112.751 152.217C112.751 153.209 112.951 154.081 113.351 154.833C113.767 155.569 114.311 156.137 114.983 156.537C115.671 156.921 116.415 157.113 117.215 157.113C118.031 157.113 118.775 156.921 119.447 156.537C120.135 156.137 120.679 155.569 121.079 154.833C121.479 154.081 121.679 153.201 121.679 152.193Z" fill="black"/>
<path d="M65 97.5807C91.2097 97.5807 112.581 76.2097 112.581 50C112.581 37.2581 107.661 25.3226 98.629 16.371C89.6774 7.33873 77.7419 2.41937 65 2.41937C38.7903 2.41937 17.4194 23.7097 17.4194 50C17.4194 58.3871 19.5968 66.5323 23.7903 73.7903L19.2742 90.4032C18.3065 93.9516 21.5323 97.2581 25.1613 96.2903L42.3387 91.7742C49.1936 95.5645 57.0161 97.5807 65 97.5807Z" fill="white"/>
<path d="M65 87.9033C58.7097 87.9033 52.4194 86.2904 46.8548 83.3065C45.4032 82.5 43.7903 82.0968 42.2581 82.0968C41.4516 82.0968 40.6452 82.1774 39.8387 82.4194L30.8064 84.7581L33.1452 76.2904C33.7903 73.7903 33.4677 71.1291 32.1774 68.871C28.7903 63.1452 27.0968 56.6129 27.0968 50C27.0968 29.0323 44.1129 12.0968 65 12.0968C75.1613 12.0968 84.6774 16.0484 91.8548 23.2258C98.9516 30.3226 102.903 39.8387 102.903 50C102.903 70.8871 85.8871 87.9033 65 87.9033Z" fill="#25D366"/>
<path d="M100.403 14.6774C90.9677 5.24194 78.3871 0 65 0C37.4194 0 15 22.4194 15 50C15 58.4677 17.0968 66.7742 21.2097 74.1129L16.9355 89.7581C16.2097 92.2581 16.9355 94.8387 18.7903 96.6936C20.6452 98.5484 23.2258 99.2742 25.7258 98.629L42.0161 94.3548C49.1129 98.0645 57.0161 100 65.0806 100C92.6613 100 115.081 77.5806 115.081 50C115 36.6936 109.839 24.1129 100.403 14.6774ZM65 95.1613C57.5 95.1613 50 93.2258 43.3871 89.6774C43.0645 89.5161 42.6613 89.3548 42.2581 89.3548C42.0161 89.3548 41.8548 89.3548 41.6129 89.4355L24.4355 93.9516C23.2258 94.2742 22.4194 93.629 22.0968 93.3064C21.7742 92.9839 21.129 92.1774 21.4516 90.9677L25.9677 74.3548C26.129 73.7097 26.0484 73.0645 25.7258 72.5C21.8548 65.7258 19.8387 57.9032 19.8387 50C19.8387 25.0806 40.0806 4.83871 65 4.83871C77.0968 4.83871 88.4677 9.51613 96.9355 18.0645C105.484 26.6129 110.242 37.9839 110.161 50C110.161 74.9194 89.9194 95.1613 65 95.1613Z" fill="#444B54"/>
<path d="M88.5 67.0323C87.5323 69.7742 82.6936 72.5161 80.4355 72.6774C78.2581 72.8387 76.2419 73.6452 66.1613 69.6935C54.0645 64.9355 46.4032 52.5161 45.8387 51.7097C45.2742 50.9032 41 45.2581 41 39.371C41 33.4839 44.0645 30.6613 45.1935 29.4516C46.3226 28.2419 47.5323 28 48.3387 28C49.1452 28 49.9516 28 50.5968 28C51.4839 28 52.371 28.0806 53.2581 30.0161C54.3065 32.3548 56.6452 38.2419 56.8871 38.8064C57.2097 39.371 57.371 40.0968 56.9677 40.9032C56.5645 41.7097 56.4032 42.1935 55.7581 42.9194C55.1935 43.6452 54.4677 44.4516 53.9839 45.0161C53.4194 45.5806 52.7742 46.2258 53.5 47.4355C54.2258 48.6452 56.5645 52.5161 60.1129 55.6613C64.629 59.6935 68.5 60.9839 69.7097 61.5484C70.9194 62.1129 71.5645 62.0323 72.2903 61.2258C73.0161 60.4194 75.2742 57.7581 76.0806 56.5484C76.8871 55.3387 77.6936 55.5806 78.7419 55.9839C79.871 56.3871 85.6774 59.2903 86.8871 59.8548C88.0968 60.4193 88.9032 60.7419 89.1452 61.2258C89.4677 61.871 89.4677 64.2097 88.5 67.0323Z" fill="white"/>
</svg>
