<svg width="120" height="120" viewBox="0 0 120 120" fill="none" xmlns="http://www.w3.org/2000/svg">
<path d="M113.541 87.081C128.492 57.5094 116.64 21.4164 87.0689 6.46496C57.4973 -8.48649 21.4043 3.36543 6.45286 32.937C-8.49859 62.5085 3.35332 98.6015 32.9249 113.553C62.4964 128.504 98.5894 116.652 113.541 87.081Z" fill="#ACD1F0"/>
<path d="M38.2207 79.7544C45.7878 79.7544 51.9221 73.6201 51.9221 66.053C51.9221 58.4859 45.7878 52.3516 38.2207 52.3516C30.6536 52.3516 24.5193 58.4859 24.5193 66.053C24.5193 73.6201 30.6536 79.7544 38.2207 79.7544Z" fill="white"/>
<path d="M100.286 35.6646C99.918 35.6646 99.5295 35.8077 99.1819 36.1553C98.4252 36.9324 78.3434 56.1349 59.5295 74.1513C53.6808 79.7545 47.9549 85.2556 42.9651 90.0613H61.9835C64.5397 90.0613 66.9119 88.8138 68.3434 86.7075L101.656 38.0776C102.372 36.8711 101.39 35.6646 100.286 35.6646Z" fill="white"/>
</svg>
