<svg width="88" height="132" viewBox="0 0 88 132" fill="none" xmlns="http://www.w3.org/2000/svg">
<path d="M54.9999 8.51074H32.9999V21.2772H54.9999V8.51074ZM50.5999 17.0217H37.3999V12.7662H50.5999V17.0217Z" fill="white"/>
<path d="M52.8 110.643H35.2C30.3798 110.643 25.773 112.87 22.8778 116.602L20.24 120.005L23.76 122.556L26.3978 119.154C28.4658 116.49 31.757 114.898 35.2 114.898H52.8C56.243 114.898 59.5342 116.49 61.6022 119.154L64.24 122.558L67.76 120.007L65.1222 116.6C62.227 112.87 57.6202 110.643 52.8 110.643Z" fill="white"/>
<path d="M81.4 97.8761H78.1L79.86 93.9845C82.3416 88.3864 83.6 82.4585 83.6 76.3647C83.6 73.5603 83.325 70.7432 82.7838 67.9963L76.8042 37.6398C75.5282 31.1629 69.9974 26.3819 63.349 25.6755C63.6284 24.9691 63.8 24.2073 63.8 23.4052V6.38323C63.8 2.86394 60.8388 0 57.2 0H30.8C27.1612 0 24.2 2.86394 24.2 6.38323V23.4052C24.2 24.2073 24.3716 24.9669 24.651 25.6755C18.0026 26.3819 12.4696 31.165 11.1958 37.6398L5.2162 67.9941C4.675 70.7432 4.4 73.5582 4.4 76.3647C4.4 82.4585 5.6584 88.3864 8.14 93.9845L9.867 97.8761H6.6C2.9612 97.8761 0 100.74 0 104.259V121.281C0 127.147 4.9346 131.92 11 131.92H77C83.0654 131.92 88 127.147 88 121.281V104.259C88 100.74 85.0388 97.8761 81.4 97.8761ZM72.4812 38.4355L78.4608 68.792C78.9514 71.2794 79.2 73.8263 79.2 76.3647C79.2 81.8798 78.0604 87.2417 75.8164 92.31L72.8354 99.0506L72.5714 99.5613C71.247 100.729 70.4 102.393 70.4 104.259V109.477C69.0822 108.13 67.5928 106.968 66 105.966V30.682C69.2736 32.0459 71.7816 34.8801 72.4812 38.4355ZM26.4 42.5548H61.6V51.0658H26.4V42.5548ZM61.6 86.3565L57.0108 81.9181L61.6 77.4796V86.3565ZM44 56.2022L50.7892 62.7684L44 69.3346L37.2108 62.7684L44 56.2022ZM34.1 59.7598L29.5108 55.3213H38.6892L34.1 59.7598ZM49.3108 55.3213H58.4892L53.9 59.7598L49.3108 55.3213ZM40.8892 72.3432L34.1 78.9094L27.3108 72.3432L34.1 65.777L40.8892 72.3432ZM44 75.3519L50.7892 81.9181L44 88.4843L37.2108 81.9181L44 75.3519ZM47.1108 72.3432L53.9 65.777L60.6892 72.3432L53.9 78.9094L47.1108 72.3432ZM61.6 67.2068L57.0108 62.7684L61.6 58.3299V67.2068ZM26.4 58.3299L30.9892 62.7684L26.4 67.2068V58.3299ZM26.4 77.4796L30.9892 81.9181L26.4 86.3565V77.4796ZM34.1 84.9267L38.6892 89.3652H29.5108L34.1 84.9267ZM53.9 84.9267L58.4892 89.3652H49.3108L53.9 84.9267ZM61.6 29.7884V38.2994H26.4V29.7884H30.8H57.2H61.6ZM26.4 93.6206H61.6V103.776C58.8192 102.721 55.8426 102.132 52.8 102.132H35.2C32.1574 102.132 29.1808 102.721 26.4 103.776V93.6206ZM28.6 6.38323C28.6 5.21084 29.5856 4.25548 30.8 4.25548H57.2C58.4144 4.25548 59.4 5.21084 59.4 6.38323V23.4052C59.4 24.5775 58.4144 25.5329 57.2 25.5329H30.8C29.5856 25.5329 28.6 24.5775 28.6 23.4052V6.38323ZM9.5392 68.792L15.5188 38.4355C16.2184 34.8801 18.7264 32.0438 22 30.682V105.966C20.4072 106.968 18.9178 108.13 17.6 109.477V104.259C17.6 102.41 16.7706 100.759 15.4704 99.5911L12.1858 92.3078C9.9396 87.2417 8.8 81.8776 8.8 76.3647C8.8 73.8263 9.0486 71.2794 9.5392 68.792ZM83.6 121.281C83.6 124.801 80.6388 127.665 77 127.665H11C7.3612 127.665 4.4 124.801 4.4 121.281V104.259C4.4 103.085 5.3856 102.132 6.6 102.132H11C12.2144 102.132 13.2 103.085 13.2 104.259V114.898H18.7L19.36 114.049C23.0802 109.251 29.0026 106.387 35.2 106.387H52.8C58.9974 106.387 64.9198 109.251 68.64 114.049L69.3 114.898H74.8V104.259C74.8 103.085 75.7856 102.132 77 102.132H81.4C82.6144 102.132 83.6 103.085 83.6 104.259V121.281Z" fill="white"/>
</svg>
