<svg width="321" height="334" viewBox="0 0 321 334" fill="none" xmlns="http://www.w3.org/2000/svg">
<path d="M152.221 207.813C152.224 207.839 152.224 207.865 152.221 207.891C152.849 209.199 161.9 228.545 172.927 247.131C175.817 252.01 178.839 256.824 181.887 261.258C188.518 270.911 195.241 278.719 200.826 281.152C219.138 289.118 208.674 226.7 208.674 226.7C201.995 218.751 196.25 210.062 191.553 200.802C189.368 196.486 186.831 191.476 184.176 186.414C182.135 182.556 180.042 178.697 177.989 175.126C173.345 167.017 169.016 160.477 166.387 159.195C163.509 157.782 159.533 172.366 156.524 185.93C154.079 197.231 152.221 207.813 152.221 207.813Z" fill="#AED3F0" stroke="#263238" stroke-width="0.422846" stroke-linecap="round" stroke-linejoin="round"/>
<path d="M152.221 207.815C152.224 207.841 152.224 207.867 152.221 207.893C152.849 209.201 161.901 228.546 172.927 247.133C169.605 217.428 172.718 197.56 172.718 197.56C179.794 186.861 184.228 186.455 184.228 186.455C182.188 182.596 180.095 178.738 178.041 175.167L168.676 166.417L156.577 185.971C154.079 197.233 152.221 207.815 152.221 207.815Z" fill="#263238"/>
<path d="M67.8287 8.05536C51.2956 20.0235 36.8292 62.298 42.3489 89.766C47.8687 117.234 19.472 125.082 19.5767 168.442C19.5767 180.528 57.0116 229.656 100.476 203.444C143.941 177.232 156.014 164.335 151.881 138.044C147.747 111.753 147.564 94.4617 155.412 72.3957C163.26 50.3298 97.8211 -13.6182 67.8287 8.05536Z" fill="white"/>
<path d="M4.23447 193.465L13.4689 199.731C15.8744 214.887 20.0674 229.706 25.9603 243.876C37.5884 271.174 47.8823 287.445 51.4793 292.821C52.3688 294.129 52.8527 294.783 52.8527 294.783L43.1997 330.975C43.1997 330.975 93.3308 367.729 178.669 388.292L173.921 350.36L167.525 299.348L165.445 282.775C165.445 282.775 166.322 270.886 167.721 256.249C168.676 246.165 169.879 234.772 171.24 225.067C171.296 224.633 171.318 224.196 171.305 223.759C171.2 217.637 166.4 204.766 166.4 204.766C170.455 198.344 174.248 192.432 177.374 187.763C181.507 181.497 184.241 177.469 184.241 177.469C184.241 177.469 169.853 159.784 169.042 157.77C164.49 145.854 148.585 148.078 148.585 148.078C147.396 146.928 145.911 146.13 144.295 145.776C136.735 143.879 115.244 158.947 103.511 159.065C91.7787 159.183 34.1876 143.67 34.1876 143.67L28.3278 145.776C28.3278 145.776 20.3882 144.834 14.1883 156.318C11.2453 161.877 4.23447 193.465 4.23447 193.465Z" fill="white"/>
<path opacity="0.3" d="M166.465 204.819C170.519 198.397 174.313 192.485 177.439 187.815C174.718 181.275 170.676 175.219 165.078 175.572C165.078 175.572 168.989 192.943 166.465 204.819Z" fill="black" fill-opacity="0.7"/>
<path d="M178.669 388.291L165.445 282.84C165.445 282.84 167.93 248.937 171.24 225.131C171.985 219.794 166.4 204.818 166.4 204.818C175.909 189.776 184.241 177.52 184.241 177.52C184.241 177.52 169.853 159.836 169.042 157.821C164.49 145.906 148.585 148.129 148.585 148.129C147.396 146.979 145.911 146.182 144.295 145.827C136.735 143.93 115.244 158.999 103.511 159.116C91.7787 159.234 34.1876 143.721 34.1876 143.721L28.3278 145.827C28.3278 145.827 20.3882 144.885 14.1883 156.37C11.2061 161.876 4.18214 193.464 4.18214 193.464L13.4166 199.73C15.8221 214.886 20.0151 229.705 25.908 243.875C40.4006 277.882 52.8135 294.808 52.8135 294.808L43.1604 331" stroke="#263238" stroke-width="0.422846" stroke-linecap="round" stroke-linejoin="round"/>
<path d="M50.027 180.975C50.027 180.975 66.4162 202.203 66.0107 206.127C65.6052 210.051 58.0189 214.093 58.0189 214.093" stroke="#263238" stroke-width="0.422846" stroke-linecap="round" stroke-linejoin="round"/>
<path d="M71.1512 189.487C70.3604 195 69.9018 200.556 69.7779 206.125C69.7779 213.397 50.0271 225.47 50.0271 225.47" stroke="#263238" stroke-width="0.422846" stroke-linecap="round" stroke-linejoin="round"/>
<path d="M166.465 204.82C166.465 204.82 167.838 176.828 163.483 172.002" stroke="#263238" stroke-width="0.422846" stroke-linecap="round" stroke-linejoin="round"/>
<path d="M171.304 182.349C171.304 182.349 169.055 196.841 166.674 199.601" stroke="#263238" stroke-width="0.422846" stroke-linecap="round" stroke-linejoin="round"/>
<path d="M97.7165 193.465C97.7165 193.465 126.009 211.672 152.221 214.092" stroke="#263238" stroke-width="0.422846" stroke-linecap="round" stroke-linejoin="round"/>
<path d="M152.221 273.084C152.221 273.084 120.489 311.37 99.7832 316.549" stroke="#263238" stroke-width="0.422846" stroke-linecap="round" stroke-linejoin="round"/>
<path d="M52.865 294.808C52.865 294.808 60.0721 289.576 58.0186 286.515" stroke="#263238" stroke-width="0.422846" stroke-linecap="round" stroke-linejoin="round"/>
<path d="M71.1513 325.937C71.1513 325.937 116.173 351.037 139.167 348.971" stroke="#263238" stroke-width="0.422846" stroke-linecap="round" stroke-linejoin="round"/>
<path d="M191.958 245.472C197.831 223.89 207.445 216.853 213.788 193.74C215.672 186.9 221.257 166.037 221.257 166.037C221.257 166.037 214.129 143.801 228.373 131.14C228.373 131.14 232.297 131.14 238.98 146.535C241.773 153.26 242.497 160.664 241.06 167.803C241.06 167.803 236.626 194.918 235.658 202.203C233.33 219.77 228.281 249.186 221.27 263.954C213.749 279.741 205.823 283.273 199.884 280.016" fill="#AED3F0"/>
<path d="M191.958 245.472C197.831 223.89 207.445 216.853 213.788 193.74C215.672 186.9 221.257 166.037 221.257 166.037C221.257 166.037 214.129 143.801 228.373 131.14C228.373 131.14 232.297 131.14 238.98 146.535C241.773 153.26 242.497 160.664 241.06 167.803C241.06 167.803 236.626 194.918 235.658 202.203C233.33 219.77 228.281 249.186 221.27 263.954C213.749 279.741 205.823 283.273 199.884 280.016" stroke="#263238" stroke-width="0.422846" stroke-linecap="round" stroke-linejoin="round"/>
<path d="M218.772 161.303L203.521 166.339C201.912 166.757 198.746 164.076 198.89 162.415L203.455 109.336C203.544 108.291 203.955 107.299 204.633 106.497C205.31 105.696 206.219 105.125 207.235 104.863L224.069 101.2C225.678 100.795 229.72 102.718 229.576 104.366L222.565 156.829C222.475 157.877 222.062 158.87 221.382 159.671C220.703 160.473 219.79 161.043 218.772 161.303Z" fill="#AED3F0"/>
<path opacity="0.3" d="M218.772 161.303L203.521 166.339C201.912 166.758 198.746 164.076 198.89 162.415L203.455 109.337C203.544 108.291 203.956 107.299 204.633 106.498C205.31 105.696 206.219 105.125 207.235 104.863L224.069 101.201C225.678 100.795 229.72 102.718 229.576 104.366L222.565 156.83C222.475 157.877 222.062 158.87 221.382 159.672C220.703 160.474 219.79 161.044 218.772 161.303Z" fill="black" fill-opacity="0.7"/>
<path d="M218.772 161.303L203.521 166.339C201.912 166.757 198.746 164.076 198.89 162.415L203.455 109.336C203.544 108.291 203.955 107.299 204.633 106.497C205.31 105.696 206.219 105.125 207.235 104.863L224.069 101.2C225.678 100.795 229.72 102.718 229.576 104.366L222.565 156.829C222.475 157.877 222.062 158.87 221.382 159.671C220.703 160.473 219.79 161.043 218.772 161.303V161.303Z" stroke="#263238" stroke-width="0.422846" stroke-linecap="round" stroke-linejoin="round"/>
<path d="M221.283 162.61L204.449 166.26C204.077 166.358 203.688 166.365 203.313 166.281C202.938 166.196 202.589 166.023 202.295 165.776C202.002 165.528 201.772 165.213 201.625 164.858C201.479 164.503 201.42 164.118 201.453 163.735L205.953 110.644C206.043 109.597 206.456 108.603 207.136 107.802C207.815 107 208.728 106.43 209.746 106.17L226.567 102.508C226.939 102.413 227.329 102.408 227.704 102.494C228.078 102.58 228.427 102.755 228.72 103.003C229.013 103.251 229.243 103.567 229.389 103.922C229.536 104.277 229.595 104.663 229.562 105.045L225.063 158.137C224.974 159.183 224.563 160.175 223.885 160.976C223.208 161.777 222.299 162.349 221.283 162.61Z" fill="#AED3F0" stroke="#263238" stroke-width="0.422846" stroke-linecap="round" stroke-linejoin="round"/>
<path opacity="0.3" d="M211.944 120.468L209.236 121.057C209.177 121.071 209.114 121.071 209.055 121.057C208.995 121.043 208.939 121.015 208.892 120.976C208.845 120.936 208.808 120.887 208.784 120.83C208.759 120.774 208.749 120.712 208.752 120.651L209.472 112.084C209.488 111.915 209.556 111.756 209.666 111.627C209.776 111.498 209.923 111.406 210.087 111.364L212.807 110.776C212.867 110.761 212.929 110.761 212.989 110.775C213.049 110.789 213.104 110.817 213.152 110.856C213.199 110.896 213.236 110.946 213.26 111.002C213.284 111.058 213.295 111.12 213.291 111.181L212.559 119.749C212.543 119.917 212.475 120.077 212.365 120.205C212.255 120.334 212.108 120.426 211.944 120.468Z" fill="black" fill-opacity="0.7"/>
<path d="M235.619 147.07C236.273 139.628 229.497 128.458 224.985 128.458C220.472 128.458 206.764 139.026 206.764 139.026C201.454 142.872 204.083 146.534 204.083 146.534C200.957 148.601 200.159 151.4 201.532 152.695C202.906 153.99 207.497 152.695 207.497 152.695C207.497 152.695 202.945 156.017 204.083 157.652C206.764 161.511 215.58 156.423 215.58 156.423C215.58 156.423 210.466 159.797 210.754 160.438C212.689 164.65 221.048 159.745 221.048 159.745L226.92 162.753C226.915 163.446 227.053 164.132 227.326 164.769C227.598 165.405 228 165.979 228.505 166.453C229.009 166.927 229.607 167.292 230.259 167.524C230.912 167.756 231.605 167.851 232.296 167.802" fill="#AED3F0"/>
<path d="M235.619 147.07C236.273 139.628 229.497 128.458 224.985 128.458C220.472 128.458 206.764 139.026 206.764 139.026C201.454 142.872 204.083 146.534 204.083 146.534C200.957 148.601 200.159 151.4 201.532 152.695C202.906 153.99 207.497 152.695 207.497 152.695C207.497 152.695 202.945 156.017 204.083 157.652C206.764 161.511 215.58 156.423 215.58 156.423C215.58 156.423 210.466 159.797 210.754 160.438C212.689 164.65 221.048 159.745 221.048 159.745L226.92 162.753C226.915 163.446 227.053 164.132 227.326 164.769C227.598 165.405 228 165.979 228.505 166.453C229.009 166.927 229.607 167.292 230.259 167.524C230.912 167.756 231.605 167.851 232.296 167.802" stroke="#263238" stroke-width="0.422846" stroke-linecap="round" stroke-linejoin="round"/>
<path d="M204.083 146.534C204.083 146.534 216.928 138.241 218.55 138.019C220.172 137.796 226.123 136.501 226.123 136.501" fill="white"/>
<path d="M204.083 146.534C204.083 146.534 216.928 138.241 218.55 138.019C220.172 137.796 226.123 136.501 226.123 136.501" stroke="#263238" stroke-width="0.422846" stroke-linecap="round" stroke-linejoin="round"/>
<path d="M207.445 152.698C207.445 152.698 217.909 147.309 219.792 147.309C222.68 146.992 225.545 146.498 228.373 145.831" fill="white"/>
<path d="M207.445 152.698C207.445 152.698 217.909 147.309 219.792 147.309C222.68 146.992 225.545 146.498 228.373 145.831" stroke="#263238" stroke-width="0.422846" stroke-linecap="round" stroke-linejoin="round"/>
<path d="M215.581 156.423C216.799 155.555 218.09 154.794 219.439 154.147C221.93 153.969 224.43 153.969 226.921 154.147" fill="white"/>
<path d="M215.581 156.423C216.799 155.555 218.09 154.794 219.439 154.147C221.93 153.969 224.43 153.969 226.921 154.147" stroke="#263238" stroke-width="0.422846" stroke-linecap="round" stroke-linejoin="round"/>
<path d="M84.7795 239.966C84.7795 239.966 76.67 235.401 69.4237 218.371C62.1774 201.341 60.1107 203.054 60.1107 203.054C60.1107 203.054 44.2447 195.272 36.6583 193.467C29.0719 191.662 15.2725 193.467 15.2725 193.467C15.2725 193.467 27.0445 227.619 39.065 249.828C51.0855 272.038 60.7647 285.144 67.187 286.452C73.6092 287.76 84.7795 239.966 84.7795 239.966Z" fill="#AED3F0" stroke="#263238" stroke-width="0.422846" stroke-linecap="round" stroke-linejoin="round"/>
<path d="M37.692 145.959C37.692 145.959 95.427 176.71 112.117 176.54C128.807 176.369 139.206 147.764 139.206 147.764C139.206 147.764 108.337 147.07 111.921 132.316C111.921 132.068 112.039 131.793 112.117 131.531C113.595 126.378 119.259 117.353 121.365 114.109C121.862 113.337 122.162 112.892 122.162 112.892L76.4741 78.7798C79.0901 113.272 74.0413 128.392 70.9413 134.069C65.6178 143.787 37.692 145.959 37.692 145.959Z" fill="#AED3F0" stroke="#263238" stroke-width="0.422846" stroke-linecap="round" stroke-linejoin="round"/>
<path d="M89.4364 98.1133C89.4364 98.1133 98.9586 125.032 111.96 132.317C111.96 132.069 112.078 131.794 112.156 131.533C113.634 126.379 119.298 117.354 121.404 114.11L89.4364 98.1133Z" fill="#263238"/>
<path d="M109.227 168.337C109.227 168.337 105.996 162.098 101.17 161.366C96.3433 160.633 83.0541 160.502 58.4768 156.421" stroke="#263238" stroke-width="0.422846" stroke-linecap="round" stroke-linejoin="round"/>
<path d="M116.643 168.339C116.643 168.339 118.709 163.486 119.259 161.367C119.808 159.248 132.653 156.58 136.917 153.074" stroke="#263238" stroke-width="0.422846" stroke-linecap="round" stroke-linejoin="round"/>
<path d="M151.58 22.001C160.043 31.2224 162.567 61.3194 158.342 74.3209C158.342 74.3209 137.14 77.3554 132.182 73.5361C127.225 69.7167 151.58 22.001 151.58 22.001Z" fill="white"/>
<path d="M71.8441 82.7817C69.8036 73.7696 58.9865 30.0825 84.4532 10.7503C109.92 -8.58192 140.985 17.1987 145.341 23.2809C162.907 47.8189 155.124 67.3212 151.88 79.0801C148.637 90.839 150.232 105.083 133.804 124.664C126.898 132.891 114.472 128.509 102.229 119.994C94.891 114.893 84.5579 105.92 84.2963 97.2743" fill="#AED3F0"/>
<path d="M71.8441 82.7817C69.8036 73.7696 58.9865 30.0825 84.4532 10.7503C109.92 -8.58192 140.985 17.1987 145.341 23.2809C162.907 47.8189 155.124 67.3212 151.88 79.0801C148.637 90.839 150.232 105.083 133.804 124.664C126.898 132.891 114.472 128.509 102.229 119.994C94.891 114.893 84.5579 105.92 84.2963 97.2743" stroke="#263238" stroke-width="0.422846" stroke-linecap="round" stroke-linejoin="round"/>
<path d="M129.413 70.5889C129.413 70.5889 116.073 66.2856 107.674 70.0762" stroke="#263238" stroke-width="0.422846" stroke-linecap="round" stroke-linejoin="round"/>
<path d="M115.466 76.9746C115.126 79.0935 115.872 80.977 117.14 81.1863C118.409 81.3956 119.756 79.8783 120.07 77.7332C120.384 75.5881 119.665 73.7307 118.396 73.5214C117.127 73.3122 115.819 74.8556 115.466 76.9746Z" fill="#263238"/>
<path d="M143.038 76.9746C142.698 79.0935 143.444 80.977 144.713 81.1863C145.981 81.3956 147.329 79.8783 147.643 77.7332C147.956 75.5881 147.237 73.7307 145.968 73.5214C144.7 73.3122 143.352 74.8556 143.038 76.9746Z" fill="#263238"/>
<path d="M141.029 67.8996C141.029 67.8996 148.75 65.5043 151.059 69.0978" stroke="#263238" stroke-width="0.422846" stroke-linecap="round" stroke-linejoin="round"/>
<path d="M140.54 75.9282C139.756 78.9105 145.772 92.3567 145.341 93.5208C144.909 94.6849 141.953 96.7515 136.656 97.2747" stroke="#263238" stroke-width="0.422846" stroke-linecap="round" stroke-linejoin="round"/>
<path d="M116.982 104.871C116.982 104.871 125.92 111.352 133.7 111.451" stroke="#263238" stroke-width="0.422846" stroke-linecap="round" stroke-linejoin="round"/>
<path d="M148.428 15.5112C148.428 15.5112 160.069 26.3284 152.561 47.5964C150.903 51.9334 148.455 55.925 145.341 59.3684C137.558 54.9866 133.673 61.8274 129.017 59.5907C124.361 57.3541 116.944 62.1021 112.118 61.1603C109.744 60.6315 107.281 60.6549 104.918 61.2286C102.555 61.8024 100.355 62.9112 98.4884 64.4696C94.8652 67.7134 94.8652 74.8158 89.437 78.2428C89.437 78.2428 86.2717 67.1379 79.6009 68.7467C72.9301 70.3556 78.8291 89.6747 78.8291 89.6747C70.4697 79.4846 65.2568 67.0818 63.8264 53.9794C61.2104 31.7435 70.0002 12.3197 84.7544 8.1995C84.7544 8.1995 89.6724 -1.37505 106.493 0.168392C123.314 1.71183 138.565 0.770085 148.428 15.5112Z" fill="white"/>
<path d="M84.7795 71.6656C84.7795 71.6656 78.5665 56.4405 69.5152 62.7582C60.4638 69.0758 71.3202 88.4734 75.7282 93.3915C80.1361 98.3096 81.418 92.8814 81.9281 91.3248" fill="white"/>
<path d="M84.7795 71.6656C84.7795 71.6656 78.5665 56.4405 69.5152 62.7582C60.4638 69.0758 71.3202 88.4734 75.7282 93.3915C80.1361 98.3095 81.418 92.8814 81.9281 91.3248" stroke="#263238" stroke-width="0.422846" stroke-linecap="round" stroke-linejoin="round"/>
<path d="M144.346 26.579C144.085 22.768 142.943 19.0696 141.01 15.7749" stroke="black" stroke-width="0.422846" stroke-linecap="round" stroke-linejoin="round"/>
<path d="M134.039 52.7774C139.637 46.5251 143.901 38.1147 144.359 29.665" stroke="black" stroke-width="0.422846" stroke-linecap="round" stroke-linejoin="round"/>
<path d="M122.162 42.2612C119.003 47.43 114.542 51.6788 109.226 54.5826" stroke="black" stroke-width="0.422846" stroke-linecap="round" stroke-linejoin="round"/>
<path d="M125.341 15.7749C129.631 22.6681 127.159 32.5565 123.811 39.3189" stroke="black" stroke-width="0.422846" stroke-linecap="round" stroke-linejoin="round"/>
<path d="M81.7452 54.9761C78.5034 56.6578 75.098 58.0033 71.5821 58.9916" stroke="black" stroke-width="0.422846" stroke-linecap="round" stroke-linejoin="round"/>
<path d="M112.116 24.8379C105.578 36.639 96.0509 46.5131 84.4915 53.47" stroke="black" stroke-width="0.422846" stroke-linecap="round" stroke-linejoin="round"/>
<path d="M177.19 138.293C177.19 138.293 181.114 138.293 181.467 141.157C181.82 144.022 175.974 147.763 175.974 147.763" fill="#AED3F0"/>
<path d="M177.19 138.293C177.19 138.293 181.114 138.293 181.467 141.157C181.82 144.022 175.974 147.763 175.974 147.763" stroke="#263238" stroke-width="0.422846" stroke-linecap="round" stroke-linejoin="round"/>
<path d="M66.9651 242.344C75.8071 228.859 88.2854 220.422 99.4426 205.459C108.678 193.049 117.198 180.122 124.962 166.742L136.799 144.506C136.799 144.506 151.292 127.031 157.151 124.886C163.011 122.741 195.083 121.721 195.083 121.721C195.083 121.721 196.391 125.2 191.434 126.953C186.477 128.705 171.291 130.131 171.291 130.131C171.291 130.131 175.764 132.054 176.798 133.637C177.831 135.219 176.798 148.221 174.731 150.863C172.664 153.505 164.725 155.912 164.725 155.912C164.725 155.912 163.678 165.068 155.922 169.606C148.166 174.145 144.372 174.198 144.372 174.198C144.372 174.198 137.074 186.597 134.026 195.453C127.486 214.327 110.992 257.242 99.0764 272.716C84.9762 291.028 66.7035 291.734 60.0981 280.08" fill="#AED3F0"/>
<path d="M66.9651 242.344C75.8071 228.859 88.2854 220.422 99.4426 205.459C108.678 193.049 117.198 180.122 124.962 166.742L136.799 144.506C136.799 144.506 151.292 127.031 157.151 124.886C163.011 122.741 195.083 121.721 195.083 121.721C195.083 121.721 196.391 125.2 191.434 126.953C186.477 128.705 171.291 130.131 171.291 130.131C171.291 130.131 175.764 132.054 176.798 133.637C177.831 135.219 176.798 148.221 174.731 150.863C172.664 153.505 164.725 155.912 164.725 155.912C164.725 155.912 163.678 165.068 155.922 169.606C148.166 174.145 144.372 174.198 144.372 174.198C144.372 174.198 137.074 186.597 134.026 195.453C127.486 214.327 110.992 257.242 99.0764 272.716C84.9762 291.028 66.7035 291.734 60.0981 280.08" stroke="#263238" stroke-width="0.422846" stroke-linecap="round" stroke-linejoin="round"/>
<path d="M157.74 137.04C157.74 137.04 168.989 138.348 170.415 139.368C171.841 140.388 171.161 148.432 170.415 151.244C170.288 151.977 170.002 152.673 169.577 153.283C169.152 153.893 168.599 154.403 167.956 154.776" stroke="#263238" stroke-width="0.422846" stroke-linecap="round" stroke-linejoin="round"/>
<path d="M162.384 130.394C162.384 130.394 173.45 133.153 174.156 134.579C175.185 138.472 175.359 142.542 174.666 146.508C173.764 150.877 173.502 152.25 171.815 153.048" stroke="#263238" stroke-width="0.422846" stroke-linecap="round" stroke-linejoin="round"/>
<path d="M171.304 130.144C169.73 129.486 168.113 128.935 166.465 128.496" stroke="#263238" stroke-width="0.422846" stroke-linecap="round" stroke-linejoin="round"/>
<path d="M164.555 145.96C163.609 147.041 162.446 147.909 161.14 148.506C159.835 149.104 158.417 149.417 156.982 149.427C156.982 149.427 159.401 158.74 155.085 164.783" stroke="#263238" stroke-width="0.422846" stroke-linecap="round" stroke-linejoin="round"/>
<path d="M162.381 147.763C162.381 147.763 164.882 149.793 164.555 150.88" stroke="#263238" stroke-width="0.422846" stroke-linecap="round" stroke-linejoin="round"/>
<path d="M60.111 203.053C60.111 203.053 37.875 193.321 34.6573 192.667C31.4397 192.013 7.33329 193.204 7.33329 193.204C10.3162 195.956 13.7551 198.169 17.4964 199.744C17.4964 199.744 18.0327 195.31 24.0364 194.799C30.0401 194.289 60.111 203.053 60.111 203.053Z" fill="#263238"/>
<path d="M320.371 402.657C207.498 407.509 -26.3993 368.116 -59 171.736" stroke="white" stroke-width="0.627326"/>
</svg>
