<svg width="40" height="31" viewBox="0 0 40 31" fill="none" xmlns="http://www.w3.org/2000/svg">
<path d="M17.9205 0.538894C16.939 1.2125 16.8716 1.31835 17.1314 1.81874C17.6415 2.82915 17.016 4.03201 16.044 3.90691C15.6206 3.8588 15.4571 3.74332 15.1491 3.25255C14.9855 3.00236 14.8412 2.88688 14.6968 2.88688C14.4563 2.88688 13.2149 3.69521 13.0609 3.95503C12.9455 4.14749 14.1195 8.4393 14.36 8.67988C14.5236 8.84347 14.8701 8.85309 18.8443 8.85309C22.145 8.85309 23.1939 8.82422 23.319 8.72799C23.5499 8.55478 24.7624 4.18598 24.6469 3.95503C24.5122 3.71445 23.2516 2.88688 23.011 2.88688C22.8859 2.88688 22.7223 3.02161 22.5684 3.2718C21.8467 4.41693 20.4032 3.96465 20.4032 2.57895C20.4032 2.348 20.4706 2.04007 20.5476 1.8861C20.8363 1.3376 20.7593 1.20287 19.8259 0.577386C19.3543 0.25983 18.9117 1.14441e-05 18.8443 1.14441e-05C18.777 1.14441e-05 18.3632 0.240583 17.9205 0.538894ZM19.5083 0.971925C19.8451 1.19325 20.1145 1.39533 20.1145 1.43382C20.1145 1.46269 20.0472 1.70327 19.9702 1.97271C19.3832 3.86842 21.6735 5.34073 22.809 3.80106C22.9437 3.61823 23.0784 3.46426 23.1169 3.46426C23.2131 3.46426 24.1562 4.13786 24.1562 4.20522C24.1562 4.23409 24.0214 4.75373 23.8579 5.35035L23.5595 6.43774L22.3855 6.46661C21.2982 6.49548 21.2212 6.5051 21.2212 6.68793C21.2212 6.87077 21.2982 6.88039 22.3182 6.90926C23.396 6.93813 23.4056 6.93813 23.3478 7.14983C23.3093 7.26531 23.2324 7.56362 23.1746 7.81381L23.0688 8.27571H18.8636H14.6583L14.4948 7.71758C14.4082 7.40965 14.3408 7.10172 14.3408 7.04398C14.3408 6.95738 15.0529 6.92851 17.016 6.90926L19.6815 6.88039L19.7104 6.65906L19.7392 6.44736H16.9486H14.158L14.004 5.88923C13.9174 5.59092 13.7827 5.10978 13.6961 4.83071C13.6191 4.55165 13.5806 4.26296 13.5998 4.1956C13.6576 4.05126 14.4851 3.46426 14.6295 3.46426C14.6776 3.46426 14.745 3.55087 14.7738 3.66634C14.8797 3.99352 15.6591 4.42655 16.1403 4.42655C16.8043 4.42655 17.4682 3.96465 17.6992 3.33916C17.8532 2.94462 17.8243 2.05931 17.6607 1.74176C17.5548 1.52043 17.5452 1.44345 17.6415 1.36646C17.8243 1.2125 18.8058 0.577386 18.8539 0.577386C18.8828 0.577386 19.1715 0.760221 19.5083 0.971925Z" fill="white"/>
<path d="M8.95196 10.5756C8.49006 10.7199 7.94156 11.0567 7.64325 11.3743C7.47966 11.5475 7.02738 12.2115 6.64246 12.8466C5.7764 14.2708 5.41073 14.7327 4.84298 15.1272C4.19824 15.5603 3.64012 15.7527 2.55273 15.8778C0.9457 16.0606 0.657013 16.359 0.599275 17.7928C0.560784 18.7069 0.551161 18.7551 0.281719 18.9475C0.00265491 19.1592 0.00265491 19.1592 0.00265491 20.2081C0.00265491 21.7478 -0.218672 21.6516 3.3803 21.6516C6.05547 21.6516 6.25755 21.6612 6.25755 21.8151C6.26717 22.0942 6.63284 22.8352 6.90228 23.1142L7.1621 23.3837H3.97692C1.22476 23.3837 0.782111 23.4029 0.676259 23.528C0.368325 23.9033 0.512669 23.9129 8.06665 23.9611L15.3608 24.0092L14.081 27.2328C13.3785 29.0035 12.8107 30.5239 12.83 30.6009C12.8396 30.6778 12.9358 30.7452 13.0417 30.7452C13.1957 30.7452 13.4459 30.1967 14.5814 27.3483L15.9286 23.9611H18.8732H21.8274L22.9533 26.8191C24.5699 30.9088 24.493 30.7452 24.7239 30.7741C24.8779 30.8029 24.926 30.7548 24.926 30.6009C24.926 30.4854 24.5122 29.3403 24.0022 28.07C23.0014 25.5681 22.424 24.0669 22.424 23.9995C22.424 23.9803 26.0134 23.9611 30.4014 23.9611C34.7895 23.9611 38.4462 23.9322 38.5328 23.9033C38.7349 23.8263 38.7349 23.5184 38.5328 23.4414C38.4462 23.4125 36.9161 23.3837 35.1167 23.3837H31.8545L32.1913 22.941C32.3837 22.6908 32.5858 22.3059 32.6436 22.075L32.759 21.6612L35.9635 21.6323C39.7741 21.5938 39.447 21.7285 39.4566 20.1985C39.4566 19.3324 39.4277 19.1592 39.2834 19.0245C39.1871 18.9283 39.062 18.8609 39.0043 18.8609C38.937 18.8609 38.8888 18.4952 38.86 17.8601C38.8119 16.2435 38.5617 16.051 36.3291 15.8778C34.5297 15.7431 33.9715 15.6372 33.2979 15.3004C32.6532 14.9733 32.3356 14.6749 31.0943 13.193C30.565 12.5675 29.9492 11.8939 29.7182 11.7015C29.1408 11.2011 28.0727 10.7007 27.3317 10.5852C26.6004 10.4697 9.32725 10.4697 8.95196 10.5756ZM27.0911 11.0664C28.0342 11.2011 29.0157 11.7015 29.6893 12.3943C29.978 12.6926 30.642 13.4336 31.1616 14.0398C32.1528 15.2138 32.836 15.7623 33.6347 16.0222C33.8945 16.1088 34.9434 16.2627 35.9442 16.359C36.9546 16.4552 37.8496 16.561 37.9362 16.5995C38.2441 16.7246 38.4077 17.2731 38.3788 18.0526L38.35 18.7743H35.6074C34.0966 18.7647 32.8072 18.8032 32.7398 18.8513C32.6628 18.8898 32.6243 19.0149 32.6436 19.1111C32.6724 19.2843 32.8264 19.2939 35.8288 19.3228L38.9754 19.3421V20.2081V21.0742H35.8672H32.759L32.6436 20.6508C32.3645 19.6019 31.306 18.8224 30.1801 18.832C29.8625 18.832 29.4199 18.909 29.2082 18.9956C28.4768 19.3036 27.7263 20.2466 27.7166 20.8529V21.0742H23.4344H19.1522L19.133 19.2651C19.1041 17.5137 19.0945 17.4656 18.9021 17.4367C18.6134 17.3982 18.5749 17.6003 18.5749 19.4575V21.0742H14.9182C11.3096 21.0742 11.2615 21.0742 11.2615 20.8817C11.2615 20.5545 11.0113 20.0638 10.6456 19.65C9.86614 18.7936 8.59591 18.5722 7.59513 19.1111C6.99851 19.4383 6.4885 20.0542 6.33453 20.6508L6.21905 21.0742H3.35143H0.4838V20.2081V19.3421H3.26482C5.69942 19.3421 6.05547 19.3228 6.17094 19.1881C6.27679 19.0534 6.26717 19.0149 6.1132 18.8994C5.96886 18.7936 5.42998 18.7647 3.52464 18.7647H1.10929L1.1574 17.8024C1.20552 16.8209 1.21514 16.8016 1.63855 16.561C1.71553 16.5129 2.09083 16.4456 2.4565 16.4071C3.97692 16.2531 4.90072 15.8778 5.69942 15.0599C5.95924 14.8 6.56548 13.934 7.05625 13.1545C7.99929 11.6341 8.32647 11.2973 9.04819 11.1048C9.5967 10.9509 26.0519 10.922 27.0911 11.0664ZM9.9335 19.6981C10.5397 20.1408 10.7899 20.6796 10.7611 21.4687C10.7226 22.277 10.3858 22.8063 9.70255 23.1527C7.98967 24.0188 6.14207 22.2578 6.93115 20.5161C7.30644 19.6885 7.91269 19.3228 8.87498 19.3709C9.41386 19.3902 9.58707 19.4383 9.9335 19.6981ZM30.9692 19.496C32.3645 20.0734 32.6628 21.8825 31.5369 22.8737C30.5554 23.7301 29.0254 23.4703 28.4191 22.3348C28.0342 21.5938 28.1882 20.3813 28.7367 19.9098C29.3622 19.3613 30.2571 19.1977 30.9692 19.496ZM27.7744 22.1327C27.8417 22.3733 28.0631 22.7582 28.2459 22.9795L28.6019 23.3837H19.489H10.3762L10.6745 23.0469C10.992 22.6812 11.2615 22.1231 11.2615 21.8344C11.2615 21.6516 11.4828 21.6516 19.4506 21.6708L27.6493 21.6997L27.7744 22.1327Z" fill="white"/>
<path d="M9.76987 12.2307C9.66401 12.2885 9.20211 12.9428 8.74022 13.6934C7.77792 15.2331 7.6817 15.5988 8.15322 15.9644L8.40341 16.1665L18.9309 16.1473L29.468 16.1184L29.6508 15.8874C30.0165 15.4448 29.901 15.1176 29.0446 14.0783C28.1015 12.9428 27.6492 12.5772 26.8986 12.3173C26.3598 12.1345 26.0903 12.1249 18.1514 12.1345C13.0032 12.1345 9.89496 12.173 9.76987 12.2307ZM12.0313 14.1457V15.6854H10.4242C8.68248 15.6854 8.37454 15.6469 8.37454 15.4255C8.37454 15.2427 9.78911 12.8851 9.99119 12.7215C10.0874 12.6445 10.482 12.606 11.0882 12.606H12.0313V14.1457ZM18.5748 14.1457V15.6854H15.6014H12.6182L12.5894 14.3093C12.5701 13.5587 12.5798 12.8658 12.599 12.7696C12.6279 12.6157 12.8492 12.606 15.6014 12.606H18.5748V14.1457ZM25.1665 14.1457V15.6372L22.1642 15.6661L19.1522 15.6854V14.1457V12.606L22.1642 12.6253L25.1665 12.6541V14.1457ZM27.1296 12.9813C27.5338 13.1738 27.8321 13.4432 28.5057 14.2323C28.9676 14.7808 29.3525 15.2908 29.3525 15.3486C29.3525 15.6469 29.083 15.6854 27.4183 15.6661L25.7439 15.6372L25.715 14.1168L25.6862 12.5964L26.1481 12.6638C26.4079 12.6926 26.8409 12.837 27.1296 12.9813Z" fill="white"/>
<path d="M8.06661 20.5834C7.78755 20.8336 7.74905 20.9202 7.74905 21.3533C7.74905 21.7574 7.79717 21.8825 8.0185 22.1038C8.23982 22.3252 8.36492 22.3733 8.76908 22.3733C9.20211 22.3733 9.28872 22.3348 9.53892 22.0557C9.9527 21.6035 9.93345 21.0742 9.4908 20.6315C9.04815 20.1889 8.51889 20.1696 8.06661 20.5834ZM9.14438 20.978C9.25023 21.0838 9.33683 21.257 9.33683 21.3629C9.33683 21.6035 9.00966 21.9403 8.78833 21.9403C8.30718 21.9306 8.05699 21.3436 8.37454 20.9972C8.62474 20.7374 8.89418 20.7278 9.14438 20.978Z" fill="white"/>
<path d="M29.4969 20.6219C29.2178 20.901 29.1601 21.0261 29.1601 21.3629C29.1601 21.6901 29.2178 21.8248 29.4873 22.0942C30.209 22.8159 31.3637 22.2386 31.2386 21.2282C31.1809 20.7085 30.8345 20.391 30.2764 20.3332C29.8722 20.2851 29.8145 20.3044 29.4969 20.6219ZM30.4688 20.8625C30.5265 20.901 30.6324 21.0357 30.6998 21.1608C30.796 21.3533 30.7864 21.4206 30.6324 21.6419C30.5265 21.7767 30.3533 21.9018 30.2379 21.921C29.978 21.9595 29.6412 21.6227 29.6412 21.3244C29.6412 20.9491 30.1705 20.6604 30.4688 20.8625Z" fill="white"/>
</svg>
