<svg width="118" height="92" viewBox="0 0 118 92" fill="none" xmlns="http://www.w3.org/2000/svg">
<path d="M53.5596 1.61084C50.626 3.62407 50.4247 3.94044 51.2013 5.43599C52.7256 8.45585 50.8561 12.0509 47.9513 11.677C46.6858 11.5332 46.1969 11.1881 45.2766 9.72131C44.7876 8.97354 44.3562 8.62841 43.9248 8.62841C43.2058 8.62841 39.4957 11.0443 39.0355 11.8208C38.6904 12.396 42.1992 25.2233 42.9182 25.9423C43.4071 26.4312 44.4425 26.46 56.3206 26.46C66.1855 26.46 69.3204 26.3737 69.6943 26.0861C70.3845 25.5684 74.0084 12.5111 73.6632 11.8208C73.2606 11.1018 69.493 8.62841 68.774 8.62841C68.4001 8.62841 67.9111 9.03106 67.451 9.77884C65.2939 13.2013 60.9798 11.8496 60.9798 7.70807C60.9798 7.01782 61.1812 6.09748 61.4113 5.63731C62.2741 3.99796 62.044 3.59531 59.2542 1.72588C57.8449 0.776779 56.522 0.000244141 56.3206 0.000244141C56.1193 0.000244141 54.8826 0.719257 53.5596 1.61084ZM58.3051 2.90506C59.3117 3.56655 60.117 4.17053 60.117 4.28557C60.117 4.37185 59.9157 5.09086 59.6856 5.89616C57.9312 11.562 64.7762 15.9624 68.17 11.3607C68.5726 10.8142 68.9753 10.354 69.0903 10.354C69.3779 10.354 72.1965 12.3673 72.1965 12.5686C72.1965 12.6549 71.7938 14.208 71.3049 15.9911L70.4133 19.2411L66.9045 19.3273C63.6546 19.4136 63.4245 19.4424 63.4245 19.9888C63.4245 20.5353 63.6546 20.564 66.7032 20.6503C69.9244 20.7366 69.9531 20.7366 69.7806 21.3693C69.6655 21.7145 69.4354 22.606 69.2629 23.3538L68.9465 24.7343H56.3782H43.8098L43.3209 23.0662C43.062 22.1459 42.8607 21.2255 42.8607 21.053C42.8607 20.7941 44.989 20.7078 50.8561 20.6503L58.8228 20.564L58.9091 19.9026L58.9954 19.2698H50.6548H42.3142L41.8541 17.6017C41.5952 16.7101 41.1926 15.2721 40.9337 14.438C40.7036 13.604 40.5886 12.7412 40.6461 12.5398C40.8187 12.1084 43.2921 10.354 43.7235 10.354C43.8673 10.354 44.0686 10.6129 44.1549 10.958C44.4713 11.9359 46.8009 13.2301 48.2389 13.2301C50.2234 13.2301 52.2079 11.8496 52.8981 9.98016C53.3583 8.80098 53.272 6.155 52.7831 5.20591C52.4667 4.54441 52.438 4.31433 52.7256 4.08424C53.272 3.62407 56.2056 1.72588 56.3494 1.72588C56.4357 1.72588 57.2985 2.27233 58.3051 2.90506Z" fill="white"/>
<path d="M26.7553 31.6079C25.3747 32.0393 23.7354 33.0459 22.8438 33.995C22.3549 34.5127 21.0031 36.4972 19.8527 38.3953C17.2643 42.6519 16.1714 44.0324 14.4745 45.2116C12.5475 46.5058 10.8794 47.081 7.62948 47.4549C2.82647 48.0014 1.96365 48.893 1.79109 53.1783C1.67605 55.9105 1.64729 56.0543 0.841991 56.6295C0.0079349 57.2623 0.0079349 57.2623 0.0079349 60.3972C0.0079349 64.9989 -0.653558 64.7113 10.1029 64.7113C18.0983 64.7113 18.7023 64.74 18.7023 65.2002C18.7311 66.0342 19.824 68.2488 20.6293 69.0829L21.4058 69.8882H11.886C3.66053 69.8882 2.33754 69.9457 2.02117 70.3196C1.10084 71.4412 1.53224 71.47 24.1093 71.6138L45.9098 71.7576L42.0846 81.3924C39.9851 86.6843 38.2882 91.2285 38.3458 91.4586C38.3745 91.6887 38.6621 91.89 38.9785 91.89C39.4387 91.89 40.1864 90.2506 43.5802 81.7375L47.6067 71.6138H56.4074H65.2369L68.6019 80.1557C73.4336 92.3789 73.2036 91.89 73.8938 91.9763C74.354 92.0626 74.4978 91.9188 74.4978 91.4586C74.4978 91.1135 73.2611 87.691 71.7368 83.8946C68.7457 76.4168 67.02 71.9302 67.02 71.7288C67.02 71.6713 77.7477 71.6138 90.8625 71.6138C103.977 71.6138 114.906 71.5275 115.165 71.4412C115.769 71.2111 115.769 70.2908 115.165 70.0607C114.906 69.9744 110.333 69.8882 104.955 69.8882H95.2054L96.212 68.5652C96.7872 67.8174 97.3912 66.667 97.5638 65.9767L97.9089 64.74L107.486 64.6537C118.875 64.5387 117.897 64.9413 117.926 60.3684C117.926 57.78 117.84 57.2623 117.409 56.8596C117.121 56.572 116.747 56.3707 116.574 56.3707C116.373 56.3707 116.229 55.2778 116.143 53.3796C115.999 48.5478 115.252 47.9726 108.579 47.4549C103.201 47.0523 101.533 46.7359 99.5195 45.7293C97.5925 44.7514 96.6434 43.8599 92.9333 39.4307C91.3515 37.5613 89.5108 35.548 88.8205 34.9728C87.0949 33.4773 83.9025 31.9817 81.6879 31.6366C79.5021 31.2915 27.8769 31.2915 26.7553 31.6079ZM80.9689 33.0746C83.7875 33.4773 86.721 34.9728 88.7343 37.0436C89.5971 37.9352 91.5816 40.1497 93.1346 41.9617C96.097 45.4704 98.139 47.1098 100.526 47.8863C101.303 48.1452 104.438 48.6053 107.429 48.893C110.448 49.1806 113.123 49.4969 113.382 49.612C114.302 49.9859 114.791 51.6252 114.705 53.9548L114.619 56.1119H106.422C101.907 56.0831 98.0527 56.1981 97.8514 56.3419C97.6213 56.457 97.5062 56.8309 97.5638 57.1185C97.65 57.6362 98.1102 57.6649 107.084 57.7512L116.488 57.8087V60.3972V62.9856H107.199H97.9089L97.5638 61.7202C96.7297 58.5853 93.566 56.2557 90.2011 56.2844C89.252 56.2844 87.929 56.5145 87.2962 56.7733C85.1104 57.6937 82.8671 60.5122 82.8383 62.3241V62.9856H70.0399H57.2415L57.1839 57.5786C57.0976 52.3442 57.0689 52.2004 56.4937 52.1141C55.6309 51.9991 55.5158 52.6031 55.5158 58.1539V62.9856H44.5868C33.8016 62.9856 33.6578 62.9856 33.6578 62.4104C33.6578 61.4326 32.91 59.9658 31.8171 58.7291C29.4875 56.1694 25.6911 55.5079 22.7 57.1185C20.9169 58.0963 19.3926 59.937 18.9324 61.7202L18.5873 62.9856H10.0166H1.44596V60.3972V57.8087H9.75777C17.0342 57.8087 18.0983 57.7512 18.4435 57.3486C18.7598 56.9459 18.7311 56.8309 18.2709 56.4857C17.8395 56.1694 16.2289 56.0831 10.5343 56.0831H3.3154L3.4592 53.207C3.60301 50.2735 3.63177 50.2159 4.89723 49.4969C5.12732 49.3531 6.24898 49.1518 7.34188 49.0368C11.886 48.5766 14.6471 47.4549 17.0342 45.0103C17.8107 44.2337 19.6226 41.6453 21.0894 39.3157C23.908 34.7715 24.8858 33.7649 27.0429 33.1897C28.6822 32.7295 77.8628 32.6432 80.9689 33.0746ZM29.6888 58.8729C31.5007 60.1959 32.2485 61.8064 32.1622 64.1648C32.0472 66.5807 31.0406 68.1625 28.9986 69.1979C23.8792 71.7864 18.3572 66.5232 20.7155 61.3175C21.8372 58.8441 23.6491 57.7512 26.5252 57.895C28.1358 57.9525 28.6535 58.0963 29.6888 58.8729ZM92.5594 58.2689C96.7297 59.9945 97.6213 65.4015 94.2563 68.3639C91.3227 70.9235 86.7498 70.147 84.9379 66.7533C83.7874 64.5387 84.2476 60.9149 85.887 59.5056C87.7564 57.8662 90.4311 57.3773 92.5594 58.2689ZM83.0109 66.1493C83.2122 66.8683 83.8737 68.0187 84.4202 68.6802L85.4843 69.8882H58.2481H31.0118L31.9034 68.8815C32.8525 67.7886 33.6578 66.1205 33.6578 65.2577C33.6578 64.7113 34.3193 64.7113 58.133 64.7688L82.637 64.8551L83.0109 66.1493Z" fill="white"/>
<path d="M29.1993 36.5533C28.8829 36.7259 27.5024 38.6816 26.1219 40.9249C23.2458 45.5266 22.9582 46.6195 24.3675 47.7124L25.1153 48.3164L56.5793 48.2589L88.0722 48.1726L88.6186 47.4823C89.7115 46.1594 89.3664 45.1815 86.8067 42.0754C83.9882 38.6816 82.6364 37.5887 80.3931 36.8122C78.7825 36.2657 77.9772 36.237 54.2497 36.2657C38.8628 36.2657 29.5732 36.3808 29.1993 36.5533ZM35.958 42.2767V46.8784H31.155C25.9493 46.8784 25.029 46.7633 25.029 46.1018C25.029 45.5554 29.2568 38.5091 29.8608 38.0201C30.1484 37.79 31.3276 37.675 33.1395 37.675H35.958V42.2767ZM55.5152 42.2767V46.8784H46.6282H37.7124L37.6261 42.7656C37.5686 40.5223 37.5974 38.4515 37.6549 38.1639C37.7412 37.7038 38.4027 37.675 46.6282 37.675H55.5152V42.2767ZM75.2162 42.2767V46.7346L66.2429 46.8209L57.2408 46.8784V42.2767V37.675L66.2429 37.7325L75.2162 37.8188V42.2767ZM81.0833 38.7967C82.2913 39.3719 83.1829 40.1772 85.1961 42.5355C86.5766 44.1749 87.727 45.6992 87.727 45.8718C87.727 46.7633 86.9217 46.8784 81.9462 46.8209L76.9418 46.7346L76.8555 42.1904L76.7693 37.6462L78.1498 37.8476C78.9263 37.9338 80.2205 38.3653 81.0833 38.7967Z" fill="white"/>
<path d="M24.1093 61.5187C23.2752 62.2665 23.1602 62.5253 23.1602 63.8195C23.1602 65.0275 23.304 65.4014 23.9655 66.0629C24.6269 66.7244 25.0008 66.8682 26.2088 66.8682C27.503 66.8682 27.7618 66.7531 28.5096 65.9191C29.7463 64.5673 29.6888 62.9855 28.3658 61.6625C27.0428 60.3395 25.461 60.282 24.1093 61.5187ZM27.3304 62.6979C27.6468 63.0142 27.9056 63.5319 27.9056 63.8483C27.9056 64.5673 26.9278 65.5739 26.2663 65.5739C24.8283 65.5452 24.0805 63.7908 25.0296 62.7554C25.7774 61.9789 26.5827 61.9501 27.3304 62.6979Z" fill="white"/>
<path d="M88.159 61.6329C87.3249 62.467 87.1523 62.8409 87.1523 63.8475C87.1523 64.8253 87.3249 65.228 88.1302 66.0333C90.2872 68.1903 93.7385 66.4647 93.3646 63.4448C93.1921 61.8918 92.1567 60.9427 90.4886 60.7701C89.2806 60.6263 89.1081 60.6838 88.159 61.6329ZM91.0638 62.3519C91.2363 62.467 91.5527 62.8696 91.754 63.2435C92.0416 63.8187 92.0129 64.02 91.5527 64.6815C91.2363 65.0842 90.7187 65.4581 90.3735 65.5156C89.597 65.6306 88.5904 64.624 88.5904 63.7324C88.5904 62.6108 90.1722 61.748 91.0638 62.3519Z" fill="white"/>
</svg>
