<svg width="590" height="851" viewBox="0 0 590 851" fill="none" xmlns="http://www.w3.org/2000/svg">
<path d="M351.542 306.724C372.683 319.666 388.873 339.323 397.525 362.552C410.907 400.524 419.089 574.4 419.089 574.4L481.097 534.809C481.097 534.809 520.432 524.198 521.711 539.923C522.989 555.649 517.79 584.202 517.79 584.202C517.79 584.202 434.73 654.733 423.521 667.092C412.313 679.451 399.443 693.301 380.649 691.341C361.855 689.381 373.319 579.77 373.319 579.77L351.542 306.724Z" fill="white" stroke="#263238" stroke-width="0.536654" stroke-linecap="round" stroke-linejoin="round"/>
<path d="M481.095 534.811C481.095 534.811 494.519 569.629 517.788 584.204C517.961 569.365 519.272 554.562 521.709 539.925C525.288 523.134 497.289 510.008 481.095 534.811Z" fill="#263238" stroke="#263238" stroke-width="0.536654" stroke-linecap="round" stroke-linejoin="round"/>
<path d="M222.797 261.293L137.564 292.957L147.451 801.504C147.451 801.504 281.907 834.574 364.413 789.614L367.396 695.857C367.396 695.857 362.026 473.951 353.333 416.887C344.639 359.823 310.716 296.281 310.716 296.281C310.716 296.281 271.977 271.99 260.257 267.813C247.985 264.551 235.45 262.37 222.797 261.293Z" fill="white" stroke="#263238" stroke-width="0.536654" stroke-linecap="round" stroke-linejoin="round"/>
<path d="M381.839 364.044C381.839 364.044 394.113 492.619 392.919 553.987C391.726 615.355 387.592 819.831 387.592 819.831L361.255 834.193C361.255 834.193 357.718 638.837 353.925 549.469C350.132 460.102 297.799 286.097 297.799 286.097L289.02 261.721C289.02 261.721 315.527 281.196 341.268 296.581C367.008 311.966 381.115 351.344 381.115 351.344" fill="white"/>
<path d="M381.839 364.044C381.839 364.044 394.113 492.619 392.919 553.987C391.726 615.355 387.592 819.831 387.592 819.831L361.255 834.193C361.255 834.193 357.718 638.837 353.925 549.469C350.132 460.102 297.799 286.097 297.799 286.097L289.02 261.721C289.02 261.721 315.527 281.196 341.268 296.581C367.008 311.966 381.115 351.344 381.115 351.344" stroke="#263238" stroke-width="0.536654" stroke-linecap="round" stroke-linejoin="round"/>
<path d="M316.337 319.255C316.337 319.255 345.7 421.194 354.948 470.672C364.196 520.151 373.486 603.509 371.995 645.402C370.503 687.294 361.468 834.365 361.468 834.365" stroke="#263238" stroke-width="0.536654" stroke-linecap="round" stroke-linejoin="round"/>
<path d="M274.491 290.486L317.491 351.002L294.308 276.465L283.185 247.955L274.491 290.486Z" fill="white" stroke="#263238" stroke-width="0.536654" stroke-linecap="round" stroke-linejoin="round"/>
<path d="M224.415 157.608C224.415 157.608 199.783 256.138 198.845 260.485C197.907 264.832 270.058 334.468 270.058 334.468L297.887 249.234C297.887 249.234 253.309 221.192 244.743 197.753C236.177 174.314 228.634 154.071 224.415 157.608Z" fill="#ABD4FA" stroke="#263238" stroke-width="0.536654" stroke-linecap="round" stroke-linejoin="round"/>
<path d="M203.872 248.855C219.316 304.25 228.774 361.142 232.085 418.555C235.92 506.047 232.767 850.093 232.767 850.093L76.9595 828.529C76.9595 828.529 88.6791 614.848 88.807 607.433C88.9348 600.018 46.9999 316.275 47.1703 306.814C47.3408 297.353 188.147 245.786 203.872 248.855Z" fill="white" stroke="#263238" stroke-width="0.536654" stroke-linecap="round" stroke-linejoin="round"/>
<path d="M213.548 680.736L215.892 836.842" stroke="#263238" stroke-width="0.536654" stroke-linecap="round" stroke-linejoin="round"/>
<path d="M208.178 323.862L213.292 663.773" stroke="#263238" stroke-width="0.536654" stroke-linecap="round" stroke-linejoin="round"/>
<path d="M200.763 223.797L259.787 293.774L223.733 360.555L177.068 250.348L200.763 223.797Z" fill="white" stroke="#263238" stroke-width="0.536654" stroke-linecap="round" stroke-linejoin="round"/>
<path d="M259.788 293.772L269.888 334.472L246.406 319.215L259.788 293.772Z" fill="#ABD4FA" stroke="#263238" stroke-width="0.536654" stroke-linecap="round" stroke-linejoin="round"/>
<path d="M397.352 85.2865C397.352 85.2865 389.638 116.738 369.438 178.788C349.238 240.838 330.401 273.653 307.431 266.834C284.46 260.015 234.513 229.885 225.265 211.773C216.018 193.661 218.958 171.33 218.958 171.33C218.958 171.33 199.226 169.966 198.886 145.76C198.545 121.553 211.671 110.303 221.515 109.067C231.36 107.831 248.492 120.999 255.609 101.268C262.726 81.5362 246.787 60.654 262.427 49.3605C278.068 38.067 313.823 38.408 344.933 49.3605C364.372 56.3981 381.981 67.7147 396.457 82.4738L397.352 85.2865Z" fill="#ABD4FA" stroke="#263238" stroke-width="0.536654" stroke-linecap="round" stroke-linejoin="round"/>
<path d="M355.761 145.379C355.761 145.379 356.997 182.285 354.184 187.016C351.371 191.746 319.707 180.836 319.707 180.836" stroke="#263238" stroke-width="0.536654" stroke-linecap="round" stroke-linejoin="round"/>
<path d="M339.222 208.541C327.199 207.507 315.758 202.907 306.365 195.33C290.384 182.545 288.977 173.297 288.977 173.297" stroke="#263238" stroke-width="0.536654" stroke-linecap="round" stroke-linejoin="round"/>
<path d="M294.605 168.906L282.544 175.043" stroke="#263238" stroke-width="0.536654" stroke-linecap="round" stroke-linejoin="round"/>
<path d="M290.172 178.362C290.172 178.362 288.595 200.949 293.794 210.154C298.994 219.359 315.103 202.611 315.103 202.611C315.103 202.611 294.007 185.905 290.172 178.362Z" fill="#263238" stroke="#263238" stroke-width="0.536654" stroke-linecap="round" stroke-linejoin="round"/>
<path d="M334.408 140.307C332.788 145.336 329.549 148.83 327.205 148.02C324.862 147.211 324.265 142.566 325.884 137.537C327.504 132.508 330.743 129.013 333.129 129.823C335.516 130.633 336.07 135.278 334.408 140.307Z" fill="#263238"/>
<path d="M372.168 151.986C370.548 157.015 367.309 160.509 364.965 159.699C362.621 158.89 362.025 154.244 363.644 149.216C365.264 144.187 368.503 140.692 370.889 141.502C373.276 142.312 373.83 146.957 372.168 151.986Z" fill="#263238"/>
<path d="M305.728 105.786C305.728 105.786 319.621 92.0632 339.822 105.573" stroke="#263238" stroke-width="0.536654" stroke-linecap="round" stroke-linejoin="round"/>
<path d="M363.899 116.571C363.899 116.571 378.773 109.454 383.247 124.753" stroke="#263238" stroke-width="0.536654" stroke-linecap="round" stroke-linejoin="round"/>
<path d="M411.033 63.9387C403.126 47.4583 389.983 34.0608 373.658 25.8393C320.088 -2.62877 237.028 -26.6647 215.166 66.9219C211.707 83.034 210.176 99.5003 210.606 115.974C213.325 114.598 216.416 114.137 219.418 114.659C222.42 115.181 225.174 116.659 227.269 118.872C234.13 126.799 227.78 136.686 239.713 136.771C251.646 136.856 254.16 123.219 256.376 116.4C258.592 109.581 280.838 122.494 284.93 109.965C289.66 95.3899 267.883 76.4681 283.907 64.6632C296.266 55.5432 312.801 68.3283 322.688 75.3174C338.925 86.7387 354.693 98.1174 373.828 104.34C390.534 109.752 414.868 117.125 416.445 92.8329C417.026 82.9042 415.168 72.9842 411.033 63.9387Z" fill="white" stroke="#263238" stroke-width="0.536654" stroke-linecap="round" stroke-linejoin="round"/>
<path d="M488.978 511.929C486.952 502.249 485.628 492.436 485.015 482.566C485.441 475.363 509.178 450.177 509.178 450.177L524.776 467.522L488.978 511.929Z" fill="#ABD4FA" stroke="#263238" stroke-width="0.536654" stroke-linecap="round" stroke-linejoin="round"/>
<path d="M553.287 354.503L485.441 475.364L526.993 478.432L589 369.12L553.287 354.503Z" fill="white" stroke="#263238" stroke-width="0.536654" stroke-linecap="round" stroke-linejoin="round"/>
<path d="M561.938 455.244C561.938 455.244 576.214 436.28 576.513 430.228C575.829 419.651 573.514 409.243 569.652 399.373C566.541 392.938 560.148 381.943 556.355 388.762C552.562 395.581 558.358 408.408 558.486 410.71C558.614 413.011 559.679 427.756 559.679 427.756L555.972 437.26L561.938 455.244Z" fill="#ABD4FA" stroke="#263238" stroke-width="0.536654" stroke-linecap="round" stroke-linejoin="round"/>
<path d="M483.395 520.833C484.303 516.84 485.427 512.899 486.762 509.028C488.552 504.212 503.127 485.802 503.127 485.802C503.127 485.802 469.715 437.006 473.806 433.682C477.897 430.357 497.075 450.046 497.075 450.046L512.928 460.701L518.597 464.749C518.597 464.749 511.437 457.121 507.388 452.476C503.34 447.83 487.486 436.196 482.628 431.849C477.77 427.502 473.124 424.689 477.514 419.448C481.903 414.206 483.736 414.802 487.998 417.572C492.259 420.342 492.259 423.752 508.582 431.295C524.904 438.838 529.89 441.651 533.171 446.552C536.453 451.453 540.885 459.635 540.885 459.635L540.459 435.94C540.459 435.94 516.508 411.222 514.037 406.108C511.565 400.994 511.778 395.582 517.148 395.412C522.517 395.241 545.317 412.458 549.877 416.166C554.437 419.874 562.066 430.102 562.364 434.321C562.189 446.202 561.249 458.06 559.551 469.821C558.401 473.486 521.708 539.883 521.708 539.883L508.923 565.154C508.923 565.154 499.717 575.937 489.148 554.202C478.579 532.467 483.395 520.833 483.395 520.833Z" fill="#ABD4FA" stroke="#263238" stroke-width="0.536654" stroke-linecap="round" stroke-linejoin="round"/>
<path d="M402.722 480.94C409.409 479.967 415.933 478.089 422.113 475.357C432.256 470.84 444.359 476.636 435.793 486.267C427.227 495.899 431.233 495.43 416.445 499.692C401.657 503.953 402.722 480.94 402.722 480.94Z" fill="#ABD4FA" stroke="#263238" stroke-width="0.536654" stroke-linecap="round" stroke-linejoin="round"/>
<path d="M313.058 548.446C313.058 548.446 332.491 554.242 347.961 551.558C363.431 548.873 371.017 531.101 371.017 531.101C371.017 531.101 375.534 548.148 384.185 547.679C392.836 547.211 415.679 523.217 415.679 523.217L416.446 499.693C416.57 495.486 415.287 491.359 412.802 487.963C410.317 484.567 406.77 482.096 402.724 480.941L381.415 474.932C389.403 468.751 397.757 463.059 406.431 457.886C411.503 455.84 434.217 457.886 444.36 453.88C454.503 449.874 450.369 437.898 429.487 437.43C408.605 436.961 386.146 438.282 371.187 449.575C359.25 459.579 348.291 470.696 338.457 482.774L305.429 510.773L286.507 513.629L292.218 551.472L313.058 548.446Z" fill="#ABD4FA" stroke="#263238" stroke-width="0.536654" stroke-linecap="round" stroke-linejoin="round"/>
<path d="M365.051 503.535C365.051 503.535 371.316 499.273 379.669 507.796C388.022 516.32 394.713 540.825 394.713 540.825" stroke="#263238" stroke-width="0.536654" stroke-linecap="round" stroke-linejoin="round"/>
<path d="M377.152 487.169C377.152 487.169 396.884 489.897 401.231 497.483C405.578 505.068 406.899 527.314 406.899 527.314" stroke="#263238" stroke-width="0.536654" stroke-linecap="round" stroke-linejoin="round"/>
<path d="M66.0069 294.029C66.0069 294.029 20.7052 307.027 18.6596 322.582C16.614 338.137 4.89434 619.707 2.76349 638.757C0.632652 657.806 -1.49818 673.319 8.81509 683.93C19.1284 694.542 309.519 573.127 309.519 573.127L305.599 510.65L116.721 546.406L126.693 439.864" fill="white"/>
<path d="M66.0069 294.029C66.0069 294.029 20.7052 307.027 18.6596 322.582C16.614 338.137 4.89434 619.707 2.76349 638.757C0.632652 657.806 -1.49818 673.319 8.81509 683.93C19.1284 694.542 309.519 573.127 309.519 573.127L305.599 510.65L116.721 546.406L126.693 439.864" stroke="#263238" stroke-width="0.536654" stroke-linecap="round" stroke-linejoin="round"/>
<path d="M116.722 546.403C116.722 546.403 76.8328 555.608 53.6919 591.151" stroke="#263238" stroke-width="0.536654" stroke-linecap="round" stroke-linejoin="round"/>
</svg>
