<svg width="222" height="269" viewBox="0 0 222 269" fill="none" xmlns="http://www.w3.org/2000/svg">
<path d="M90.2486 116.139C82.3027 121.003 76.2174 128.391 72.9656 137.122C67.9361 151.393 64.8607 216.745 64.8607 216.745L41.5552 201.865C41.5552 201.865 26.7709 197.876 26.2904 203.787C25.8099 209.697 27.764 220.429 27.764 220.429C27.764 220.429 58.9823 246.938 63.1949 251.583C67.4075 256.228 72.2448 261.434 79.3086 260.697C86.3723 259.961 82.0636 218.763 82.0636 218.763L90.2486 116.139Z" fill="white" stroke="#263238" stroke-width="0.536654" stroke-linecap="round" stroke-linejoin="round"/>
<path d="M41.5557 201.865C41.5557 201.865 36.5102 214.952 27.7646 220.43C27.6995 214.853 27.2068 209.289 26.2909 203.788C24.9455 197.477 35.469 192.543 41.5557 201.865Z" fill="#263238" stroke="#263238" stroke-width="0.536654" stroke-linecap="round" stroke-linejoin="round"/>
<path d="M138.637 99.0635L170.672 110.965L166.956 302.102C166.956 302.102 116.421 314.532 85.4106 297.633L84.2894 262.395C84.2894 262.395 86.3076 178.991 89.5752 157.544C92.8428 136.096 105.593 112.214 105.593 112.214C105.593 112.214 120.153 103.084 124.558 101.514C129.17 100.288 133.881 99.4682 138.637 99.0635Z" fill="white" stroke="#263238" stroke-width="0.536654" stroke-linecap="round" stroke-linejoin="round"/>
<path d="M78.8615 137.683C78.8615 137.683 74.2484 186.008 74.6969 209.073C75.1454 232.138 76.6991 308.991 76.6991 308.991L86.598 314.389C86.598 314.389 87.9274 240.964 89.353 207.375C90.7785 173.786 110.448 108.387 110.448 108.387L113.748 99.2246C113.748 99.2246 103.785 106.545 94.1102 112.327C84.4356 118.109 79.1338 132.91 79.1338 132.91" fill="white"/>
<path d="M78.8615 137.683C78.8615 137.683 74.2484 186.008 74.6969 209.073C75.1454 232.138 76.6991 308.991 76.6991 308.991L86.598 314.389C86.598 314.389 87.9274 240.964 89.353 207.375C90.7785 173.786 110.448 108.387 110.448 108.387L113.748 99.2246C113.748 99.2246 103.785 106.545 94.1102 112.327C84.4356 118.109 79.1338 132.91 79.1338 132.91" stroke="#263238" stroke-width="0.536654" stroke-linecap="round" stroke-linejoin="round"/>
<path d="M103.48 120.849C103.48 120.849 92.4442 159.163 88.9684 177.759C85.4926 196.355 82.0008 227.686 82.5614 243.431C83.122 259.176 86.5177 314.453 86.5177 314.453" stroke="#263238" stroke-width="0.536654" stroke-linecap="round" stroke-linejoin="round"/>
<path d="M119.208 110.035L103.046 132.78L111.76 104.766L115.941 94.0498L119.208 110.035Z" fill="white" stroke="#263238" stroke-width="0.536654" stroke-linecap="round" stroke-linejoin="round"/>
<path d="M138.029 60.0931C138.029 60.0931 147.287 97.1257 147.639 98.7595C147.992 100.393 120.874 126.566 120.874 126.566L110.415 94.5309C110.415 94.5309 127.169 83.9913 130.389 75.1816C133.608 66.372 136.443 58.7636 138.029 60.0931Z" fill="#ABD4FA" stroke="#263238" stroke-width="0.536654" stroke-linecap="round" stroke-linejoin="round"/>
<path d="M145.75 94.3893C139.946 115.21 136.391 136.593 135.147 158.171C133.705 191.055 134.89 320.365 134.89 320.365L193.451 312.26C193.451 312.26 189.046 231.948 188.998 229.161C188.95 226.374 204.711 119.729 204.647 116.173C204.583 112.617 151.661 93.236 145.75 94.3893Z" fill="white" stroke="#263238" stroke-width="0.536654" stroke-linecap="round" stroke-linejoin="round"/>
<path d="M142.114 256.712L141.233 315.384" stroke="#263238" stroke-width="0.536654" stroke-linecap="round" stroke-linejoin="round"/>
<path d="M144.132 122.58L142.21 250.336" stroke="#263238" stroke-width="0.536654" stroke-linecap="round" stroke-linejoin="round"/>
<path d="M146.919 84.9712L124.735 111.272L138.286 136.372L155.825 94.9501L146.919 84.9712Z" fill="white" stroke="#263238" stroke-width="0.536654" stroke-linecap="round" stroke-linejoin="round"/>
<path d="M124.734 111.271L120.938 126.568L129.764 120.834L124.734 111.271Z" fill="#ABD4FA" stroke="#263238" stroke-width="0.536654" stroke-linecap="round" stroke-linejoin="round"/>
<path d="M73.0306 32.9114C73.0306 32.9114 75.9298 44.7324 83.5221 68.054C91.1144 91.3756 98.1942 103.709 106.828 101.146C115.461 98.5835 134.234 87.259 137.71 80.4516C141.185 73.6441 140.08 65.2509 140.08 65.2509C140.08 65.2509 147.496 64.7383 147.624 55.6403C147.753 46.5424 142.819 42.3137 139.119 41.8492C135.419 41.3847 128.98 46.3341 126.305 38.918C123.63 31.5018 129.621 23.6532 123.742 19.4086C117.864 15.1639 104.425 15.2921 92.7322 19.4086C85.4261 22.0537 78.8079 26.307 73.367 31.8542L73.0306 32.9114Z" fill="#ABD4FA" stroke="#263238" stroke-width="0.536654" stroke-linecap="round" stroke-linejoin="round"/>
<path d="M88.6631 55.4971C88.6631 55.4971 88.1986 69.3683 89.2558 71.1463C90.3129 72.9242 102.214 68.8237 102.214 68.8237" stroke="#263238" stroke-width="0.536654" stroke-linecap="round" stroke-linejoin="round"/>
<path d="M94.8783 79.2373C99.3974 78.8487 103.698 77.1197 107.228 74.2718C113.234 69.4665 113.763 65.9907 113.763 65.9907" stroke="#263238" stroke-width="0.536654" stroke-linecap="round" stroke-linejoin="round"/>
<path d="M111.648 64.3398L116.181 66.6464" stroke="#263238" stroke-width="0.536654" stroke-linecap="round" stroke-linejoin="round"/>
<path d="M113.314 67.8936C113.314 67.8936 113.907 76.3829 111.953 79.8427C109.999 83.3025 103.944 77.0076 103.944 77.0076C103.944 77.0076 111.873 70.7287 113.314 67.8936Z" fill="#263238" stroke="#263238" stroke-width="0.536654" stroke-linecap="round" stroke-linejoin="round"/>
<path d="M96.6882 53.5906C97.2969 55.4807 98.5142 56.7941 99.3952 56.4898C100.276 56.1855 100.5 54.4395 99.8917 52.5495C99.283 50.6594 98.0657 49.346 97.1687 49.6503C96.2717 49.9546 96.0635 51.7006 96.6882 53.5906Z" fill="#263238"/>
<path d="M82.4965 57.9807C83.1052 59.8708 84.3225 61.1843 85.2035 60.8799C86.0845 60.5756 86.3087 58.8297 85.7001 56.9396C85.0914 55.0495 83.8741 53.7361 82.9771 54.0404C82.0801 54.3448 81.8719 56.0907 82.4965 57.9807Z" fill="#263238"/>
<path d="M107.467 40.6165C107.467 40.6165 102.245 35.4588 94.6532 40.5364" stroke="#263238" stroke-width="0.536654" stroke-linecap="round" stroke-linejoin="round"/>
<path d="M85.6042 44.6697C85.6042 44.6697 80.0141 41.9948 78.3323 47.7451" stroke="#263238" stroke-width="0.536654" stroke-linecap="round" stroke-linejoin="round"/>
<path d="M67.8886 24.8879C70.8603 18.6937 75.8 13.6583 81.9361 10.5682C102.07 -0.131539 133.288 -9.16545 141.505 26.0091C142.806 32.0649 143.381 38.2538 143.219 44.4454C142.197 43.9283 141.036 43.7549 139.907 43.9512C138.779 44.1474 137.744 44.7028 136.956 45.5346C134.378 48.5138 136.764 52.2299 132.279 52.262C127.794 52.294 126.849 47.1684 126.016 44.6056C125.184 42.0428 116.822 46.8961 115.285 42.1869C113.507 36.7089 121.692 29.5971 115.669 25.1602C111.024 21.7325 104.809 26.5377 101.093 29.1646C94.9904 33.4573 89.0639 37.734 81.872 40.0726C75.5931 42.1068 66.4471 44.8779 65.8544 35.7478C65.6362 32.0161 66.3345 28.2877 67.8886 24.8879Z" fill="white" stroke="#263238" stroke-width="0.536654" stroke-linecap="round" stroke-linejoin="round"/>
<path d="M38.5933 193.265C39.3546 189.627 39.8524 185.939 40.0829 182.229C39.9227 179.522 31.0009 170.056 31.0009 170.056L25.1385 176.575L38.5933 193.265Z" fill="#ABD4FA" stroke="#263238" stroke-width="0.536654" stroke-linecap="round" stroke-linejoin="round"/>
<path d="M14.4223 134.097L39.9223 179.523L24.3052 180.676L0.999584 139.591L14.4223 134.097Z" fill="white" stroke="#263238" stroke-width="0.536654" stroke-linecap="round" stroke-linejoin="round"/>
<path d="M11.1713 171.96C11.1713 171.96 5.80542 164.833 5.6933 162.558C5.95039 158.583 6.82024 154.671 8.2721 150.961C9.44139 148.543 11.844 144.41 13.2696 146.973C14.6952 149.536 12.5168 154.357 12.4687 155.222C12.4207 156.087 12.0202 161.629 12.0202 161.629L13.4138 165.201L11.1713 171.96Z" fill="#ABD4FA" stroke="#263238" stroke-width="0.536654" stroke-linecap="round" stroke-linejoin="round"/>
<path d="M40.6911 196.612C40.3499 195.111 39.9275 193.63 39.4258 192.175C38.753 190.365 33.275 183.445 33.275 183.445C33.275 183.445 45.8328 165.105 44.2951 163.856C42.7574 162.607 35.5495 170.007 35.5495 170.007L29.591 174.011L27.4606 175.533C27.4606 175.533 30.1516 172.666 31.6732 170.92C33.1949 169.174 39.1535 164.801 40.9795 163.167C42.8055 161.533 44.5514 160.476 42.9016 158.506C41.2518 156.536 40.563 156.76 38.9612 157.801C37.3595 158.842 37.3595 160.124 31.2247 162.959C25.09 165.794 23.216 166.851 21.9826 168.693C20.7493 170.535 19.0834 173.611 19.0834 173.611L19.2436 164.705C19.2436 164.705 28.2455 155.415 29.1745 153.493C30.1035 151.57 30.0234 149.536 28.0052 149.472C25.987 149.408 17.4176 155.879 15.7037 157.273C13.9898 158.666 11.1227 162.51 11.0106 164.096C11.0764 168.562 11.4295 173.019 12.0677 177.439C12.5002 178.816 26.2913 203.772 26.2913 203.772L31.0966 213.27C31.0966 213.27 34.5564 217.323 38.5288 209.154C42.5011 200.985 40.6911 196.612 40.6911 196.612Z" fill="#ABD4FA" stroke="#263238" stroke-width="0.536654" stroke-linecap="round" stroke-linejoin="round"/>
<path d="M71.0121 181.618C68.4989 181.252 66.0471 180.547 63.7241 179.52C59.9119 177.822 55.3629 180.001 58.5824 183.621C61.802 187.24 60.2963 187.064 65.8544 188.666C71.4125 190.268 71.0121 181.618 71.0121 181.618Z" fill="#ABD4FA" stroke="#263238" stroke-width="0.536654" stroke-linecap="round" stroke-linejoin="round"/>
<path d="M104.713 206.99C104.713 206.99 97.4087 209.169 91.5943 208.16C85.7799 207.151 82.9288 200.471 82.9288 200.471C82.9288 200.471 81.2309 206.878 77.9794 206.702C74.7278 206.526 66.1424 197.508 66.1424 197.508L65.8541 188.666C65.8076 187.085 66.2896 185.534 67.2237 184.257C68.1578 182.981 69.4907 182.052 71.0117 181.619L79.0205 179.36C76.0183 177.037 72.8785 174.897 69.6182 172.953C67.7121 172.184 59.1747 172.953 55.3625 171.447C51.5504 169.942 53.1041 165.441 60.9527 165.265C68.8013 165.088 77.2426 165.585 82.8647 169.83C87.3514 173.59 91.4704 177.768 95.1662 182.307L107.58 192.831L114.692 193.904L112.545 208.128L104.713 206.99Z" fill="#ABD4FA" stroke="#263238" stroke-width="0.536654" stroke-linecap="round" stroke-linejoin="round"/>
<path d="M85.1705 190.11C85.1705 190.11 82.8159 188.509 79.6765 191.712C76.537 194.916 74.0223 204.126 74.0223 204.126" stroke="#263238" stroke-width="0.536654" stroke-linecap="round" stroke-linejoin="round"/>
<path d="M80.6227 183.959C80.6227 183.959 73.2066 184.985 71.5728 187.836C69.939 190.687 69.4425 199.048 69.4425 199.048" stroke="#263238" stroke-width="0.536654" stroke-linecap="round" stroke-linejoin="round"/>
<path d="M197.567 111.368C197.567 111.368 214.594 116.254 215.363 122.1C216.131 127.946 220.536 233.774 221.337 240.934C222.138 248.094 222.939 253.925 219.063 257.913C215.186 261.901 106.043 216.267 106.043 216.267L107.516 192.786L178.506 206.224L174.758 166.18" fill="white"/>
<path d="M197.567 111.368C197.567 111.368 214.594 116.254 215.363 122.1C216.131 127.946 220.536 233.774 221.337 240.934C222.138 248.094 222.939 253.925 219.063 257.913C215.186 261.901 106.043 216.267 106.043 216.267L107.516 192.786L178.506 206.224L174.758 166.18" stroke="#263238" stroke-width="0.536654" stroke-linecap="round" stroke-linejoin="round"/>
<path d="M178.506 206.222C178.506 206.222 193.498 209.682 202.196 223.041" stroke="#263238" stroke-width="0.536654" stroke-linecap="round" stroke-linejoin="round"/>
</svg>
