<svg width="199" height="256" viewBox="0 0 199 256" fill="none" xmlns="http://www.w3.org/2000/svg">
<rect width="199" height="213.988" fill="#ACD1F0"/>
<g clip-path="url(#clip0_405_2168)">
<path d="M193.39 121.043H9.26031V123.374H193.39V121.043Z" fill="black"/>
<path d="M13.4332 109.2C8.61597 109.2 4.65784 105.081 4.65784 100.037C4.65784 94.9935 8.61597 90.9072 13.4332 90.9072C18.2505 90.9072 22.2086 95.0254 22.2086 100.037C22.2086 105.05 18.2812 109.2 13.4332 109.2ZM13.4332 93.2377C9.81262 93.2377 6.86703 96.3024 6.86703 100.069C6.86703 103.836 9.8433 106.869 13.4332 106.869C17.0232 106.869 19.9994 103.805 19.9994 100.037C19.9994 96.2705 17.0539 93.2377 13.4332 93.2377Z" fill="black"/>
<path d="M14.5685 102.432H12.3286V121.905H14.5685V102.432Z" fill="black"/>
<path d="M72.0382 103.23H114.719C118.247 103.23 121.101 106.199 121.101 109.87V117.085H72.0382V103.23ZM119.474 109.87C119.474 107.157 117.357 104.922 114.719 104.922H73.6951V115.393H119.474V109.87Z" fill="black"/>
<path d="M105.145 119.926C107.535 119.926 109.472 117.911 109.472 115.425C109.472 112.939 107.535 110.924 105.145 110.924C102.756 110.924 100.819 112.939 100.819 115.425C100.819 117.911 102.756 119.926 105.145 119.926Z" fill="black"/>
<path d="M100.021 115.425C100.021 112.488 102.323 110.094 105.145 110.094C107.968 110.094 110.269 112.488 110.269 115.425C110.269 118.362 107.968 120.756 105.145 120.756C102.323 120.756 100.021 118.362 100.021 115.425ZM101.647 115.425C101.647 117.436 103.212 119.064 105.145 119.064C107.078 119.064 108.643 117.436 108.643 115.425C108.643 113.414 107.078 111.786 105.145 111.786C103.212 111.786 101.647 113.414 101.647 115.425Z" fill="black"/>
<path d="M84.1274 119.926C86.5167 119.926 88.4537 117.911 88.4537 115.425C88.4537 112.939 86.5167 110.924 84.1274 110.924C81.738 110.924 79.801 112.939 79.801 115.425C79.801 117.911 81.738 119.926 84.1274 119.926Z" fill="black"/>
<path d="M79.0033 115.425C79.0033 112.488 81.3045 110.094 84.1274 110.094C86.9502 110.094 89.2515 112.488 89.2515 115.425C89.2515 118.362 86.9502 120.756 84.1274 120.756C81.3045 120.756 79.0033 118.362 79.0033 115.425ZM80.6295 115.425C80.6295 117.436 82.1943 119.064 84.1274 119.064C86.0604 119.064 87.6252 117.436 87.6252 115.425C87.6252 113.414 86.0604 111.786 84.1274 111.786C82.1943 111.786 80.6295 113.414 80.6295 115.425Z" fill="black"/>
<path d="M80.5374 94.1636H104.194L109.502 104.922H76.119L80.5374 94.1636ZM103.212 95.8555H81.642L78.6044 103.198H106.833L103.212 95.8555Z" fill="black"/>
<path d="M93.9153 94.6743H92.2584V104.06H93.9153V94.6743Z" fill="black"/>
<path d="M126.47 91.8647H185.413L188.235 116.446H126.47V91.8647ZM183.971 93.5886H128.127V114.754H186.425L183.971 93.5886Z" fill="black"/>
<path d="M185.996 103.293H126.961V105.017H185.996V103.293Z" fill="black"/>
<path d="M174.796 92.7266H173.139V104.155H174.796V92.7266Z" fill="black"/>
<path d="M163.75 92.7266H162.093V104.155H163.75V92.7266Z" fill="black"/>
<path d="M152.735 92.7266H151.078V104.155H152.735V92.7266Z" fill="black"/>
<path d="M141.72 92.7266H140.063V104.155H141.72V92.7266Z" fill="black"/>
<path d="M176.3 120.086C178.689 120.086 180.626 118.07 180.626 115.584C180.626 113.098 178.689 111.083 176.3 111.083C173.91 111.083 171.973 113.098 171.973 115.584C171.973 118.07 173.91 120.086 176.3 120.086Z" fill="black"/>
<path d="M171.176 115.584C171.176 112.647 173.477 110.253 176.3 110.253C179.123 110.253 181.424 112.647 181.424 115.584C181.424 118.521 179.123 120.916 176.3 120.916C173.477 120.916 171.176 118.521 171.176 115.584ZM172.802 115.584C172.802 117.595 174.367 119.224 176.3 119.224C178.233 119.224 179.798 117.595 179.798 115.584C179.798 113.573 178.233 111.945 176.3 111.945C174.367 111.945 172.802 113.573 172.802 115.584Z" fill="black"/>
<path d="M137.485 120.086C139.875 120.086 141.812 118.07 141.812 115.584C141.812 113.098 139.875 111.083 137.485 111.083C135.096 111.083 133.159 113.098 133.159 115.584C133.159 118.07 135.096 120.086 137.485 120.086Z" fill="black"/>
<path d="M132.361 115.584C132.361 112.647 134.663 110.253 137.485 110.253C140.308 110.253 142.61 112.647 142.61 115.584C142.61 118.521 140.308 120.916 137.485 120.916C134.663 120.916 132.361 118.521 132.361 115.584ZM133.988 115.584C133.988 117.595 135.552 119.224 137.485 119.224C139.418 119.224 140.983 117.595 140.983 115.584C140.983 113.573 139.418 111.945 137.485 111.945C135.552 111.945 133.988 113.573 133.988 115.584Z" fill="black"/>
<path d="M126.063 112.728L127.29 112.728L127.29 109.791L126.063 109.791L126.063 112.728Z" fill="black"/>
<path d="M128.127 108.944H125.243V113.573H128.127V108.944Z" fill="black"/>
<path d="M186.941 111.262L188.168 111.262L188.168 108.325L186.941 108.325L186.941 111.262Z" fill="black"/>
<path d="M189.003 107.476H186.118V112.105H189.003V107.476Z" fill="black"/>
<path d="M184.86 94.0996H187.315C187.315 94.0996 188.604 94.2912 188.88 95.4723" fill="black"/>
<path d="M188.88 96.3342C188.941 96.3342 189.003 96.3342 189.064 96.3023C189.493 96.2065 189.77 95.7277 189.678 95.2807C189.371 93.908 188.113 93.3653 187.407 93.2695H187.346H184.83C184.369 93.2695 184.001 93.6526 184.001 94.1315C184.001 94.6103 184.369 94.9934 184.83 94.9934H187.223C187.376 95.0253 187.959 95.185 188.051 95.6958C188.174 96.0788 188.512 96.3342 188.88 96.3342Z" fill="black"/>
<path d="M183.909 104.155C183.909 104.155 183.541 102.208 182.252 101.569L183.909 104.155Z" fill="black"/>
<path d="M183.909 105.017C183.971 105.017 184.001 105.017 184.063 105.017C184.523 104.922 184.799 104.475 184.707 104.028C184.707 103.964 184.584 103.421 184.308 102.783C183.909 101.857 183.296 101.186 182.59 100.835C182.191 100.644 181.7 100.835 181.485 101.25C181.27 101.665 181.485 102.176 181.884 102.4C182.62 102.751 183.019 103.932 183.081 104.379C183.173 104.73 183.541 105.017 183.909 105.017Z" fill="black"/>
<path d="M29.8794 114.339C29.5112 114.339 29.2351 114.02 29.2351 113.669V100.963C29.2351 98.9202 30.0022 97.0048 31.3829 95.5682C32.7636 94.1316 34.6046 93.3335 36.5684 93.3335H57.0648C57.433 93.3335 57.7091 93.6527 57.7091 94.0039C57.7091 94.3551 57.4023 94.6743 57.0648 94.6743H36.5684C34.9728 94.6743 33.4387 95.3128 32.3034 96.5259C31.1681 97.7071 30.5238 99.2714 30.5238 100.963V113.637C30.5545 114.02 30.2476 114.339 29.8794 114.339Z" fill="black"/>
<path d="M41.1402 115.393C40.772 115.393 40.4958 115.074 40.4958 114.723V110.317C40.4958 108.242 38.8696 106.518 36.8445 106.518H29.8794C29.5112 106.518 29.2351 106.199 29.2351 105.848C29.2351 105.465 29.5419 105.177 29.8794 105.177H36.8138C39.5446 105.177 41.7538 107.476 41.7538 110.317V114.723C41.7845 115.106 41.4777 115.393 41.1402 115.393Z" fill="black"/>
<path d="M54.0578 115.393H38.6241C38.2559 115.393 37.9798 115.074 37.9798 114.723C37.9798 114.34 38.2866 114.052 38.6241 114.052H52.7384V96.4302C52.7384 96.0471 53.0453 95.7598 53.3828 95.7598C53.751 95.7598 54.0271 96.079 54.0271 96.4302V115.393H54.0578Z" fill="black"/>
<path d="M37.2127 106.359C36.8445 106.359 36.5684 106.039 36.5684 105.688V101.027C36.5684 98.1223 38.8389 95.728 41.6618 95.728H55.101C55.4692 95.728 55.7454 96.0473 55.7454 96.3984C55.7454 96.7496 55.4385 97.0688 55.101 97.0688H41.6618C39.5753 97.0688 37.8877 98.8247 37.8877 100.995V105.656C37.8571 106.039 37.5809 106.359 37.2127 106.359Z" fill="black"/>
<path d="M58.7523 97.1006H43.5641C43.196 97.1006 42.9198 96.7814 42.9198 96.4302C42.9198 96.0791 43.2266 95.7598 43.5641 95.7598H58.7523C59.0285 95.7598 59.2433 95.5364 59.2433 95.2491C59.2433 94.9617 59.0285 94.7383 58.7523 94.7383H43.5641C43.196 94.7383 42.9198 94.419 42.9198 94.0679C42.9198 93.7167 43.2266 93.3975 43.5641 93.3975H58.7523C59.7649 93.3975 60.5626 94.2594 60.5626 95.281C60.5626 96.3025 59.7342 97.1006 58.7523 97.1006Z" fill="black"/>
<path d="M50.4986 109.998H45.8347C45.4665 109.998 45.1904 109.678 45.1904 109.327C45.1904 108.944 45.4972 108.657 45.8347 108.657H50.4986C50.7747 108.657 50.9895 108.433 50.9895 108.146C50.9895 107.859 50.7747 107.635 50.4986 107.635H46.0802C45.712 107.635 45.4358 107.316 45.4358 106.965C45.4358 106.582 45.7427 106.294 46.0802 106.294H50.4986C51.5111 106.294 52.3089 107.156 52.3089 108.178C52.3089 109.2 51.5111 109.998 50.4986 109.998Z" fill="black"/>
<path d="M61.6672 112.169H58.9671C58.5989 112.169 58.3228 111.849 58.3228 111.498C58.3228 111.147 58.6296 110.828 58.9671 110.828H61.6672C61.9434 110.828 62.1582 110.604 62.1582 110.317C62.1582 110.03 61.9434 109.806 61.6672 109.806H59.4887C59.1205 109.806 58.8444 109.487 58.8444 109.136C58.8444 108.753 59.1512 108.465 59.4887 108.465H61.6672C62.6798 108.465 63.4775 109.327 63.4775 110.349C63.4775 111.307 62.6491 112.169 61.6672 112.169Z" fill="black"/>
<path d="M57.1568 117.34H42.2448C41.8766 117.34 41.6004 117.021 41.6004 116.67C41.6004 116.319 41.9072 115.999 42.2448 115.999H56.4511C56.8806 115.297 57.9239 113.318 58.5069 110.54C58.9364 108.497 59.0285 106.422 58.783 104.379C58.4762 101.825 57.617 99.2713 56.2363 96.8132C56.0522 96.4939 56.1749 96.0789 56.4818 95.8874C56.7886 95.6958 57.1875 95.8235 57.3716 96.1428C58.8444 98.7605 59.7649 101.506 60.0717 104.251C60.3479 106.454 60.2251 108.721 59.7649 110.924C58.9671 114.691 57.3716 116.989 57.3102 117.117L57.1568 117.34Z" fill="black"/>
<path d="M45.7733 115.393C45.4051 115.393 45.129 115.074 45.129 114.723V96.4302C45.129 96.0471 45.4358 95.7598 45.7733 95.7598C46.1109 95.7598 46.4177 96.079 46.4177 96.4302V114.723C46.4484 115.106 46.1415 115.393 45.7733 115.393Z" fill="black"/>
<path d="M59.4581 105.082H53.3828C53.0146 105.082 52.7384 104.762 52.7384 104.411C52.7384 104.028 53.0453 103.741 53.3828 103.741H59.4581C59.8262 103.741 60.1024 104.06 60.1024 104.411C60.1331 104.794 59.8262 105.082 59.4581 105.082Z" fill="black"/>
<path d="M49.9463 115.393C49.5781 115.393 49.3019 115.074 49.3019 114.722V109.295C49.3019 108.912 49.6087 108.625 49.9463 108.625C50.2838 108.625 50.5906 108.944 50.5906 109.295V114.722C50.6213 115.106 50.3145 115.393 49.9463 115.393Z" fill="black"/>
<path d="M56.4204 107.093H55.0703C54.7021 107.093 54.426 106.774 54.426 106.422C54.426 106.039 54.7328 105.752 55.0703 105.752H56.4204C56.7886 105.752 57.0648 106.071 57.0648 106.422C57.0954 106.774 56.7886 107.093 56.4204 107.093Z" fill="black"/>
<path d="M39.6367 117.372H28.2839V116.702C28.2839 115.138 28.8669 113.637 29.9408 112.52C31.0147 111.402 32.4261 110.796 33.9603 110.796C35.4638 110.796 36.9059 111.402 37.9798 112.52C39.0537 113.637 39.6367 115.106 39.6367 116.702V117.372ZM29.634 116H38.256C37.9491 113.829 36.1388 112.137 33.9603 112.137C31.7818 112.169 29.9715 113.829 29.634 116Z" fill="black"/>
<path d="M65.2572 117.372H54.5794C54.2112 117.372 53.9351 117.053 53.9351 116.702C53.9351 116.319 54.2419 116.031 54.5794 116.031H63.9071C63.6003 113.86 61.79 112.168 59.6115 112.168C59.2433 112.168 58.9671 111.849 58.9671 111.498C58.9671 111.115 59.2739 110.828 59.6115 110.828C61.1149 110.828 62.557 111.434 63.6309 112.552C64.7049 113.669 65.2878 115.137 65.2878 116.734V117.372H65.2572Z" fill="black"/>
<path d="M34.0217 120.916C32.1807 120.916 30.6772 119.351 30.6772 117.436C30.6772 117.053 30.984 116.766 31.3215 116.766C31.6897 116.766 31.9659 117.085 31.9659 117.436C31.9659 118.617 32.8864 119.543 33.991 119.543C35.1263 119.543 36.0161 118.585 36.0161 117.436C36.0161 117.053 36.3229 116.766 36.6604 116.766C37.0286 116.766 37.3048 117.085 37.3048 117.436C37.3661 119.351 35.8626 120.916 34.0217 120.916Z" fill="black"/>
<path d="M59.4581 120.916C57.6171 120.916 56.1136 119.351 56.1136 117.436C56.1136 117.053 56.4204 116.766 56.7579 116.766C57.1261 116.766 57.4023 117.085 57.4023 117.436C57.4023 118.617 58.3228 119.543 59.4274 119.543C60.5627 119.543 61.4525 118.585 61.4525 117.436C61.4525 117.053 61.7593 116.766 62.0968 116.766C62.465 116.766 62.7412 117.085 62.7412 117.436C62.8025 119.351 61.2991 120.916 59.4581 120.916Z" fill="black"/>
</g>
<path d="M136.552 214.848C136.552 237.334 119.609 255.5 98.7828 255.5C77.957 255.5 61.0135 237.334 61.0135 214.848C61.0135 192.362 77.957 174.197 98.7828 174.197C119.609 174.197 136.552 192.362 136.552 214.848Z" fill="black" stroke="black"/>
<path d="M102.719 246.581C86.0891 248.375 71.2433 235.364 69.5712 217.521H90.6143V222.401C90.6143 223.286 91.2827 224.027 92.1301 224.027H107.265C108.09 224.027 108.781 223.309 108.781 222.401V206.161C108.781 205.276 108.113 204.535 107.265 204.535H92.1301C91.3051 204.535 90.6143 205.252 90.6143 206.161V211.04H69.5712C71.1317 194.441 84.1495 181.813 99.6866 181.813C115.223 181.813 128.241 194.441 129.802 211.04C131.474 228.858 119.347 244.788 102.719 246.581Z" fill="white"/>
<defs>
<clipPath id="clip0_405_2168">
<rect width="188.702" height="32.4667" fill="white" transform="translate(4.65784 90.9072)"/>
</clipPath>
</defs>
</svg>
