<svg width="138" height="138" viewBox="0 0 138 138" fill="none" xmlns="http://www.w3.org/2000/svg">
<path d="M105.267 83.2983V55.4001H96.2006V74.9275L105.267 83.2983Z" fill="#758190"/>
<path d="M5.53333 123.399C4.33102 123.399 3.17795 122.921 2.32778 122.071C1.47762 121.221 1 120.068 1 118.866V100.732C1 98.3276 1.95524 96.0214 3.65557 94.3211C5.3559 92.6208 7.66204 91.6655 10.0667 91.6655H127.933C130.338 91.6655 132.644 92.6208 134.344 94.3211C136.045 96.0214 137 98.3276 137 100.732V118.866C137 120.068 136.522 121.221 135.672 122.071C134.822 122.921 133.669 123.399 132.467 123.399H5.53333Z" fill="#F9D18B"/>
<path d="M130.2 105.266H137V100.732C137 98.3276 136.045 96.0214 134.344 94.3211C132.644 92.6208 130.338 91.6655 127.933 91.6655H123.4V98.4655C123.4 100.269 124.116 101.999 125.392 103.274C126.667 104.549 128.396 105.266 130.2 105.266Z" fill="#ED5C58"/>
<path d="M16.8667 114.332C38.3861 114.536 59.1516 106.414 74.8231 91.6655H10.0667C7.66204 91.6655 5.3559 92.6208 3.65557 94.3211C1.95524 96.0214 1 98.3276 1 100.732V112.902C6.235 113.856 11.5455 114.334 16.8667 114.332Z" fill="#FBE3B9"/>
<path d="M1 100.732V109.799C3.40463 109.799 5.71077 108.844 7.4111 107.143C9.11143 105.443 10.0667 103.137 10.0667 100.732V91.6655C7.66204 91.6655 5.3559 92.6208 3.65557 94.3211C1.95524 96.0214 1 98.3276 1 100.732Z" fill="#ED5C58"/>
<path d="M14.6004 91.6661L25.3308 75.5727C27.6073 72.1565 30.6922 69.3553 34.3114 67.4178C37.9307 65.4802 41.9723 64.4663 46.0776 64.4661H75.1204C81.3883 64.466 87.4262 66.8267 92.032 71.0779L114.334 91.6661H14.6004Z" fill="#7FCDEE"/>
<path d="M74.8234 91.6661C81.371 85.4102 86.6612 77.9595 90.409 69.7157C86.0372 66.3165 80.6582 64.4695 75.1204 64.4661H46.0776C41.9723 64.4663 37.9307 65.4802 34.3114 67.4178C30.6922 69.3553 27.6073 72.1565 25.3308 75.5727L14.6004 91.6661H74.8234Z" fill="#B2E1F5"/>
<path d="M137 1H64.4668V46.3333H137V1Z" fill="#F9D18B"/>
<path d="M64.4668 1V34.3721C69.5382 36.2847 74.9134 37.2653 80.3335 37.2667C102.499 37.2667 120.737 21.4 123.119 1H64.4668Z" fill="#FBE3B9"/>
<path d="M28.2004 137C35.7114 137 41.8004 130.911 41.8004 123.4C41.8004 115.889 35.7114 109.8 28.2004 109.8C20.6893 109.8 14.6004 115.889 14.6004 123.4C14.6004 130.911 20.6893 137 28.2004 137Z" fill="#758190"/>
<path d="M28.2004 127.933C30.7041 127.933 32.7337 125.903 32.7337 123.4C32.7337 120.896 30.7041 118.866 28.2004 118.866C25.6967 118.866 23.6671 120.896 23.6671 123.4C23.6671 125.903 25.6967 127.933 28.2004 127.933Z" fill="white"/>
<path d="M105.267 137C112.778 137 118.867 130.911 118.867 123.4C118.867 115.889 112.778 109.8 105.267 109.8C97.7558 109.8 91.6669 115.889 91.6669 123.4C91.6669 130.911 97.7558 137 105.267 137Z" fill="#758190"/>
<path d="M105.267 127.933C107.771 127.933 109.8 125.903 109.8 123.4C109.8 120.896 107.771 118.866 105.267 118.866C102.763 118.866 100.734 120.896 100.734 123.4C100.734 125.903 102.763 127.933 105.267 127.933Z" fill="white"/>
<path d="M62.1999 64.4661H53.1333V91.6661H62.1999V64.4661Z" fill="#758190"/>
<path d="M78.0671 55.4001H41.8004V64.4668H78.0671V55.4001Z" fill="#F9D18B"/>
<path d="M109.8 46.3328H91.6669V55.3994H109.8V46.3328Z" fill="#758190"/>
<path d="M14.6 123.399H5.53333C4.33102 123.399 3.17795 122.921 2.32778 122.071C1.47762 121.221 1 120.068 1 118.866V100.732C1 98.3276 1.95524 96.0214 3.65557 94.3211C5.3559 92.6208 7.66204 91.6655 10.0667 91.6655H127.933C130.338 91.6655 132.644 92.6208 134.344 94.3211C136.045 96.0214 137 98.3276 137 100.732V118.866C137 120.068 136.522 121.221 135.672 122.071C134.822 122.921 133.669 123.399 132.467 123.399H118.867" stroke="black" stroke-width="2" stroke-linejoin="round"/>
<path d="M14.6004 91.6661L25.3308 75.5727C27.6073 72.1565 30.6922 69.3553 34.3114 67.4178C37.9307 65.4802 41.9723 64.4663 46.0776 64.4661H75.1204C81.3883 64.466 87.4262 66.8267 92.032 71.0779L114.334 91.6661" stroke="black" stroke-width="2" stroke-linejoin="round"/>
<path d="M137 105.266H130.2C128.396 105.266 126.667 104.549 125.392 103.274C124.116 101.999 123.4 100.269 123.4 98.4655V91.6655" stroke="black" stroke-width="2" stroke-linejoin="round"/>
<path d="M105.267 137C112.778 137 118.867 130.911 118.867 123.4C118.867 115.889 112.778 109.8 105.267 109.8C97.7558 109.8 91.6669 115.889 91.6669 123.4C91.6669 130.911 97.7558 137 105.267 137Z" stroke="black" stroke-width="2" stroke-linejoin="round"/>
<path d="M28.2004 137C35.7114 137 41.8004 130.911 41.8004 123.4C41.8004 115.889 35.7114 109.8 28.2004 109.8C20.6893 109.8 14.6004 115.889 14.6004 123.4C14.6004 130.911 20.6893 137 28.2004 137Z" stroke="black" stroke-width="2" stroke-linejoin="round"/>
<path d="M10.0667 91.6655V100.732C10.0667 103.137 9.11143 105.443 7.4111 107.143C5.71077 108.844 3.40463 109.799 1 109.799" stroke="black" stroke-width="2" stroke-linejoin="round"/>
<path d="M78.1192 64.4668V55.4001H41.8004V64.4668" stroke="black" stroke-width="2" stroke-linejoin="round"/>
<path d="M105.267 127.933C107.771 127.933 109.8 125.903 109.8 123.4C109.8 120.896 107.771 118.866 105.267 118.866C102.763 118.866 100.734 120.896 100.734 123.4C100.734 125.903 102.763 127.933 105.267 127.933Z" stroke="black" stroke-width="2" stroke-linejoin="round"/>
<path d="M28.2004 127.933C30.7041 127.933 32.7337 125.903 32.7337 123.4C32.7337 120.896 30.7041 118.866 28.2004 118.866C25.6967 118.866 23.6671 120.896 23.6671 123.4C23.6671 125.903 25.6967 127.933 28.2004 127.933Z" stroke="black" stroke-width="2" stroke-linejoin="round"/>
<path d="M91.6671 123.398H41.8004" stroke="black" stroke-width="2" stroke-linejoin="round"/>
<path d="M53.1852 64.4661V91.6661" stroke="black" stroke-width="2" stroke-linejoin="round"/>
<path d="M62.2519 64.4661V91.6661" stroke="black" stroke-width="2" stroke-linejoin="round"/>
<path d="M48.6003 103V107.533" stroke="black" stroke-width="2" stroke-linejoin="round"/>
<path d="M53.1333 98.4661V102.999" stroke="black" stroke-width="2" stroke-linejoin="round"/>
<path d="M57.667 103V107.533" stroke="black" stroke-width="2" stroke-linejoin="round"/>
<path d="M62.2 98.4661V102.999" stroke="black" stroke-width="2" stroke-linejoin="round"/>
<path d="M66.7336 103V107.533" stroke="black" stroke-width="2" stroke-linejoin="round"/>
<path d="M71.2667 98.4661V102.999" stroke="black" stroke-width="2" stroke-linejoin="round"/>
<path d="M75.7997 103V107.533" stroke="black" stroke-width="2" stroke-linejoin="round"/>
<path d="M80.3333 98.4661V102.999" stroke="black" stroke-width="2" stroke-linejoin="round"/>
<path d="M84.867 103V107.533" stroke="black" stroke-width="2" stroke-linejoin="round"/>
<path d="M137 1H64.4668V46.3333H137V1Z" stroke="black" stroke-width="2" stroke-linejoin="round"/>
<path d="M71.2667 16.8652H84.8667" stroke="black" stroke-width="2" stroke-linejoin="round"/>
<path d="M78.0672 16.8652V32.7319" stroke="black" stroke-width="2" stroke-linejoin="round"/>
<path d="M91.6669 32.7319V21.3986C91.6669 20.1963 92.1445 19.0432 92.9946 18.193C93.8448 17.3429 94.9979 16.8652 96.2002 16.8652V16.8652C97.4025 16.8652 98.5556 17.3429 99.4058 18.193C100.256 19.0432 100.734 20.1963 100.734 21.3986V32.7319" stroke="black" stroke-width="2" stroke-linejoin="round"/>
<path d="M91.6669 25.9326H100.734" stroke="black" stroke-width="2" stroke-linejoin="round"/>
<path d="M109.8 14.5984C109.8 16.0355 110.083 17.4586 110.633 18.7864C111.183 20.1141 111.989 21.3206 113.005 22.3368L115.662 24.9933C116.678 26.0096 117.484 27.216 118.034 28.5438C118.584 29.8715 118.867 31.2946 118.867 32.7317" stroke="black" stroke-width="2" stroke-linejoin="round"/>
<path d="M118.867 14.5984C118.867 16.0355 118.584 17.4586 118.034 18.7864C117.484 20.1141 116.678 21.3206 115.662 22.3368L113.005 24.9933C111.989 26.0096 111.183 27.216 110.633 28.5438C110.083 29.8715 109.8 31.2946 109.8 32.7317V32.7317" stroke="black" stroke-width="2" stroke-linejoin="round"/>
<path d="M127.934 14.5984V32.7317" stroke="black" stroke-width="2" stroke-linejoin="round"/>
<path d="M91.6669 46.3328V55.3994H109.8V46.3328" stroke="black" stroke-width="2" stroke-linejoin="round"/>
<path d="M96.2006 55.4001V75.8001" stroke="black" stroke-width="2" stroke-linejoin="round"/>
<path d="M105.267 55.4001V82.6001" stroke="black" stroke-width="2" stroke-linejoin="round"/>
</svg>
