<svg width="199" height="256" viewBox="0 0 199 256" fill="none" xmlns="http://www.w3.org/2000/svg">
<rect width="199" height="213.988" fill="#ACD1F0"/>
<g clip-path="url(#clip0_405_2166)">
<path d="M191.882 121.043H7.75006V123.373H191.882V121.043Z" fill="black"/>
<path d="M11.923 109.199C7.10571 109.199 3.14752 105.081 3.14752 100.037C3.14752 94.993 7.10571 90.9067 11.923 90.9067C16.7404 90.9067 20.6986 95.0249 20.6986 100.037C20.6986 105.049 16.7711 109.199 11.923 109.199ZM11.923 93.2372C8.30237 93.2372 5.35674 96.3019 5.35674 100.069C5.35674 103.836 8.33305 106.869 11.923 106.869C15.513 106.869 18.4893 103.804 18.4893 100.037C18.4893 96.27 15.5437 93.2372 11.923 93.2372Z" fill="black"/>
<path d="M13.0583 102.431H10.8184V121.905H13.0583V102.431Z" fill="black"/>
<path d="M70.5287 103.229H113.21C116.738 103.229 119.592 106.198 119.592 109.87V117.085H70.5287V103.229ZM117.966 109.87C117.966 107.156 115.848 104.921 113.21 104.921H72.1857V115.393H117.966V109.87Z" fill="black"/>
<path d="M103.636 119.926C106.026 119.926 107.963 117.911 107.963 115.425C107.963 112.939 106.026 110.923 103.636 110.923C101.247 110.923 99.31 112.939 99.31 115.425C99.31 117.911 101.247 119.926 103.636 119.926Z" fill="black"/>
<path d="M98.5122 115.425C98.5122 112.488 100.813 110.093 103.636 110.093C106.459 110.093 108.761 112.488 108.761 115.425C108.761 118.362 106.459 120.756 103.636 120.756C100.813 120.756 98.5122 118.362 98.5122 115.425ZM100.138 115.425C100.138 117.436 101.703 119.064 103.636 119.064C105.569 119.064 107.134 117.436 107.134 115.425C107.134 113.413 105.569 111.785 103.636 111.785C101.703 111.785 100.138 113.413 100.138 115.425Z" fill="black"/>
<path d="M82.6181 119.926C85.0075 119.926 86.9445 117.911 86.9445 115.425C86.9445 112.939 85.0075 110.923 82.6181 110.923C80.2287 110.923 78.2917 112.939 78.2917 115.425C78.2917 117.911 80.2287 119.926 82.6181 119.926Z" fill="black"/>
<path d="M77.4939 115.425C77.4939 112.488 79.7952 110.093 82.6181 110.093C85.441 110.093 87.7423 112.488 87.7423 115.425C87.7423 118.362 85.441 120.756 82.6181 120.756C79.7952 120.756 77.4939 118.362 77.4939 115.425ZM79.1202 115.425C79.1202 117.436 80.685 119.064 82.6181 119.064C84.5512 119.064 86.116 117.436 86.116 115.425C86.116 113.413 84.5512 111.785 82.6181 111.785C80.685 111.785 79.1202 113.413 79.1202 115.425Z" fill="black"/>
<path d="M79.0281 94.1631H102.685L107.993 104.921H74.6096L79.0281 94.1631ZM101.703 95.8551H80.1327L77.095 103.198H105.324L101.703 95.8551Z" fill="black"/>
<path d="M92.4062 94.6738H90.7492V104.059H92.4062V94.6738Z" fill="black"/>
<path d="M124.962 91.8643H183.905L186.728 116.446H124.962V91.8643ZM182.463 93.5882H126.618V114.754H184.917L182.463 93.5882Z" fill="black"/>
<path d="M184.488 103.293H125.452V105.017H184.488V103.293Z" fill="black"/>
<path d="M173.288 92.7261H171.631V104.155H173.288V92.7261Z" fill="black"/>
<path d="M162.242 92.7261H160.585V104.155H162.242V92.7261Z" fill="black"/>
<path d="M151.227 92.7261H149.57V104.155H151.227V92.7261Z" fill="black"/>
<path d="M140.211 92.7261H138.554V104.155H140.211V92.7261Z" fill="black"/>
<path d="M174.792 120.085C177.181 120.085 179.118 118.07 179.118 115.584C179.118 113.098 177.181 111.083 174.792 111.083C172.402 111.083 170.465 113.098 170.465 115.584C170.465 118.07 172.402 120.085 174.792 120.085Z" fill="black"/>
<path d="M169.668 115.584C169.668 112.647 171.969 110.252 174.792 110.252C177.615 110.252 179.916 112.647 179.916 115.584C179.916 118.521 177.615 120.915 174.792 120.915C171.969 120.915 169.668 118.521 169.668 115.584ZM171.294 115.584C171.294 117.595 172.859 119.223 174.792 119.223C176.725 119.223 178.29 117.595 178.29 115.584C178.29 113.573 176.725 111.944 174.792 111.944C172.859 111.944 171.294 113.573 171.294 115.584Z" fill="black"/>
<path d="M135.977 120.085C138.366 120.085 140.303 118.07 140.303 115.584C140.303 113.098 138.366 111.083 135.977 111.083C133.588 111.083 131.651 113.098 131.651 115.584C131.651 118.07 133.588 120.085 135.977 120.085Z" fill="black"/>
<path d="M130.853 115.584C130.853 112.647 133.154 110.252 135.977 110.252C138.8 110.252 141.101 112.647 141.101 115.584C141.101 118.521 138.8 120.915 135.977 120.915C133.154 120.915 130.853 118.521 130.853 115.584ZM132.479 115.584C132.479 117.595 134.044 119.223 135.977 119.223C137.91 119.223 139.475 117.595 139.475 115.584C139.475 113.573 137.91 111.944 135.977 111.944C134.044 111.944 132.479 113.573 132.479 115.584Z" fill="black"/>
<path d="M124.554 112.728L125.781 112.728L125.781 109.791L124.554 109.791L124.554 112.728Z" fill="black"/>
<path d="M126.618 108.943H123.734V113.572H126.618V108.943Z" fill="black"/>
<path d="M185.433 111.262L186.66 111.262L186.66 108.325L185.433 108.325L185.433 111.262Z" fill="black"/>
<path d="M187.495 107.475H184.61V112.104H187.495V107.475Z" fill="black"/>
<path d="M183.352 94.0991H185.807C185.807 94.0991 187.096 94.2907 187.372 95.4719" fill="black"/>
<path d="M187.372 96.3337C187.433 96.3337 187.495 96.3337 187.556 96.3018C187.986 96.2061 188.262 95.7272 188.17 95.2803C187.863 93.9075 186.605 93.3648 185.899 93.269H185.838H183.322C182.862 93.269 182.493 93.6521 182.493 94.131C182.493 94.6099 182.862 94.9929 183.322 94.9929H185.715C185.869 95.0249 186.451 95.1845 186.544 95.6953C186.666 96.0784 187.004 96.3337 187.372 96.3337Z" fill="black"/>
<path d="M182.401 104.155C182.401 104.155 182.033 102.207 180.744 101.569L182.401 104.155Z" fill="black"/>
<path d="M182.401 105.017C182.463 105.017 182.493 105.017 182.555 105.017C183.015 104.921 183.291 104.474 183.199 104.027C183.199 103.963 183.076 103.421 182.8 102.782C182.401 101.856 181.788 101.186 181.082 100.835C180.683 100.643 180.192 100.835 179.977 101.25C179.763 101.665 179.977 102.176 180.376 102.399C181.113 102.75 181.511 103.931 181.573 104.378C181.665 104.73 182.033 105.017 182.401 105.017Z" fill="black"/>
<path d="M28.3695 114.339C28.0013 114.339 27.7251 114.02 27.7251 113.669V100.963C27.7251 98.9197 28.4922 97.0043 29.873 95.5677C31.2537 94.1311 33.0948 93.333 35.0585 93.333H55.5552C55.9234 93.333 56.1995 93.6522 56.1995 94.0034C56.1995 94.3546 55.8927 94.6738 55.5552 94.6738H35.0585C33.463 94.6738 31.9288 95.3123 30.7935 96.5254C29.6582 97.7066 29.0138 99.2709 29.0138 100.963V113.637C29.0445 114.02 28.7377 114.339 28.3695 114.339Z" fill="black"/>
<path d="M39.6304 115.392C39.2622 115.392 38.986 115.073 38.986 114.722V110.317C38.986 108.241 37.3598 106.518 35.3347 106.518H28.3695C28.0013 106.518 27.7251 106.198 27.7251 105.847C27.7251 105.464 28.032 105.177 28.3695 105.177H35.304C38.0348 105.177 40.2441 107.475 40.2441 110.317V114.722C40.2747 115.105 39.9679 115.392 39.6304 115.392Z" fill="black"/>
<path d="M52.5482 115.393H37.1143C36.7461 115.393 36.4699 115.073 36.4699 114.722C36.4699 114.339 36.7768 114.052 37.1143 114.052H51.2288V96.4297C51.2288 96.0466 51.5356 95.7593 51.8731 95.7593C52.2413 95.7593 52.5175 96.0785 52.5175 96.4297V115.393H52.5482Z" fill="black"/>
<path d="M35.7029 106.358C35.3347 106.358 35.0585 106.039 35.0585 105.688V101.027C35.0585 98.1218 37.3291 95.7275 40.152 95.7275H53.5914C53.9596 95.7275 54.2358 96.0468 54.2358 96.3979C54.2358 96.7491 53.9289 97.0683 53.5914 97.0683H40.152C38.0655 97.0683 36.3779 98.8242 36.3779 100.995V105.656C36.3472 106.039 36.0711 106.358 35.7029 106.358Z" fill="black"/>
<path d="M57.2428 97.1002H42.0544C41.6862 97.1002 41.41 96.7809 41.41 96.4298C41.41 96.0786 41.7168 95.7593 42.0544 95.7593H57.2428C57.5189 95.7593 57.7337 95.5359 57.7337 95.2486C57.7337 94.9612 57.5189 94.7378 57.2428 94.7378H42.0544C41.6862 94.7378 41.41 94.4185 41.41 94.0674C41.41 93.7162 41.7168 93.397 42.0544 93.397H57.2428C58.2553 93.397 59.0531 94.2589 59.0531 95.2805C59.0531 96.3021 58.2246 97.1002 57.2428 97.1002Z" fill="black"/>
<path d="M48.9889 109.997H44.325C43.9568 109.997 43.6806 109.678 43.6806 109.327C43.6806 108.944 43.9874 108.656 44.325 108.656H48.9889C49.265 108.656 49.4798 108.433 49.4798 108.146C49.4798 107.858 49.265 107.635 48.9889 107.635H44.5704C44.2022 107.635 43.9261 107.316 43.9261 106.964C43.9261 106.581 44.2329 106.294 44.5704 106.294H48.9889C50.0014 106.294 50.7992 107.156 50.7992 108.177C50.7992 109.199 50.0014 109.997 48.9889 109.997Z" fill="black"/>
<path d="M60.1577 112.168H57.4576C57.0894 112.168 56.8132 111.849 56.8132 111.498C56.8132 111.146 57.12 110.827 57.4576 110.827H60.1577C60.4339 110.827 60.6487 110.604 60.6487 110.316C60.6487 110.029 60.4339 109.806 60.1577 109.806H57.9792C57.611 109.806 57.3348 109.486 57.3348 109.135C57.3348 108.752 57.6417 108.465 57.9792 108.465H60.1577C61.1703 108.465 61.9681 109.327 61.9681 110.348C61.9681 111.306 61.1396 112.168 60.1577 112.168Z" fill="black"/>
<path d="M55.6472 117.34H40.735C40.3668 117.34 40.0906 117.021 40.0906 116.669C40.0906 116.318 40.3974 115.999 40.735 115.999H54.9415C55.3711 115.297 56.4143 113.317 56.9973 110.54C57.4269 108.497 57.5189 106.422 57.2734 104.379C56.9666 101.825 56.1075 99.2708 54.7267 96.8127C54.5426 96.4934 54.6653 96.0784 54.9722 95.8869C55.279 95.6953 55.6779 95.823 55.862 96.1423C57.3348 98.76 58.2553 101.505 58.5622 104.251C58.8383 106.454 58.7156 108.72 58.2553 110.923C57.4575 114.69 55.862 116.989 55.8006 117.116L55.6472 117.34Z" fill="black"/>
<path d="M44.2636 115.393C43.8954 115.393 43.6192 115.073 43.6192 114.722V96.4297C43.6192 96.0466 43.9261 95.7593 44.2636 95.7593C44.6011 95.7593 44.9079 96.0785 44.9079 96.4297V114.722C44.9386 115.105 44.6318 115.393 44.2636 115.393Z" fill="black"/>
<path d="M57.9485 105.081H51.8731C51.5049 105.081 51.2288 104.762 51.2288 104.411C51.2288 104.028 51.5356 103.74 51.8731 103.74H57.9485C58.3167 103.74 58.5928 104.059 58.5928 104.411C58.6235 104.794 58.3167 105.081 57.9485 105.081Z" fill="black"/>
<path d="M48.4366 115.392C48.0684 115.392 47.7922 115.073 47.7922 114.722V109.295C47.7922 108.912 48.099 108.625 48.4366 108.625C48.7741 108.625 49.0809 108.944 49.0809 109.295V114.722C49.1116 115.105 48.8048 115.392 48.4366 115.392Z" fill="black"/>
<path d="M54.9108 107.092H53.5607C53.1925 107.092 52.9164 106.773 52.9164 106.422C52.9164 106.039 53.2232 105.751 53.5607 105.751H54.9108C55.279 105.751 55.5552 106.071 55.5552 106.422C55.5859 106.773 55.279 107.092 54.9108 107.092Z" fill="black"/>
<path d="M38.1269 117.372H26.7739V116.701C26.7739 115.137 27.3569 113.637 28.4308 112.519C29.5048 111.402 30.9162 110.795 32.4504 110.795C33.9539 110.795 35.396 111.402 36.47 112.519C37.5439 113.637 38.1269 115.105 38.1269 116.701V117.372ZM28.124 115.999H36.7461C36.4393 113.828 34.6289 112.136 32.4504 112.136C30.2719 112.168 28.4615 113.828 28.124 115.999Z" fill="black"/>
<path d="M63.7477 117.372H53.0698C52.7016 117.372 52.4254 117.052 52.4254 116.701C52.4254 116.318 52.7323 116.031 53.0698 116.031H62.3976C62.0908 113.86 60.2805 112.168 58.1019 112.168C57.7337 112.168 57.4576 111.849 57.4576 111.498C57.4576 111.114 57.7644 110.827 58.1019 110.827C59.6054 110.827 61.0475 111.434 62.1215 112.551C63.1954 113.668 63.7784 115.137 63.7784 116.733V117.372H63.7477Z" fill="black"/>
<path d="M32.5118 120.915C30.6707 120.915 29.1672 119.351 29.1672 117.436C29.1672 117.052 29.4741 116.765 29.8116 116.765C30.1798 116.765 30.4559 117.084 30.4559 117.436C30.4559 118.617 31.3765 119.543 32.4811 119.543C33.6164 119.543 34.5062 118.585 34.5062 117.436C34.5062 117.052 34.813 116.765 35.1505 116.765C35.5188 116.765 35.7949 117.084 35.7949 117.436C35.8563 119.351 34.3528 120.915 32.5118 120.915Z" fill="black"/>
<path d="M57.9485 120.915C56.1075 120.915 54.604 119.351 54.604 117.436C54.604 117.052 54.9108 116.765 55.2483 116.765C55.6165 116.765 55.8927 117.084 55.8927 117.436C55.8927 118.617 56.8132 119.543 57.9178 119.543C59.0531 119.543 59.9429 118.585 59.9429 117.436C59.9429 117.052 60.2498 116.765 60.5873 116.765C60.9555 116.765 61.2316 117.084 61.2316 117.436C61.293 119.351 59.7895 120.915 57.9485 120.915Z" fill="black"/>
</g>
<path d="M136.552 214.848C136.552 237.334 119.609 255.5 98.7829 255.5C77.9571 255.5 61.0136 237.334 61.0136 214.848C61.0136 192.362 77.9571 174.197 98.7829 174.197C119.609 174.197 136.552 192.362 136.552 214.848Z" fill="black" stroke="black"/>
<rect x="69.5714" y="181.813" width="60.3854" height="64.9334" rx="30.1927" fill="white"/>
<path fill-rule="evenodd" clip-rule="evenodd" d="M129.474 210.519C129.364 208.905 128.992 206.77 128.436 204.717C127.289 200.475 125.297 196.575 122.607 193.308C121.198 191.617 119.603 190.045 117.227 188.192C115.416 187.198 113.636 186.137 111.887 185.009C110.737 184.283 109.364 183.396 107.548 182.752C105.394 182.188 103.193 181.879 100.981 181.83C98.8426 181.754 96.7032 181.943 94.6025 182.395C92.4195 182.792 90.5952 183.436 88.1837 184.082C82.731 186.7 78.5035 190.649 74.8679 195.888C62.1818 215.591 73.645 243.194 94.8239 246.46C98.2493 246.975 101.73 246.796 105.098 245.933L107.435 245.248C107.516 245.202 107.604 245.175 107.695 245.167L110.367 244.039C110.513 243.958 110.626 243.917 110.774 243.838L111.887 243.273C114.022 242.101 116.026 240.656 117.859 238.965C116.191 240.651 114.377 242.148 112.443 243.436L112.553 243.518C112.926 243.395 113.263 243.274 113.629 243.195C113.629 243.195 113.629 243.839 113.556 243.722C112.964 244.206 113.891 243.763 115.077 243.077C116.28 242.38 117.412 241.541 118.452 240.574C119.975 239.165 121.309 237.632 123.201 235.137C125.129 231.387 127.542 228.124 128.655 223.732C129.487 221.062 129.926 218.26 129.957 215.435C129.906 213.785 129.745 212.142 129.474 210.519ZM102.02 243.638C108.511 242.508 113.964 238.52 118.416 233.079C119.64 231.104 120.604 229.291 121.791 227.318C123.274 223.286 123.164 219.702 123.645 217.164C124.236 212.568 122.83 208.867 121.644 204.916C119.825 200.323 117.414 196.898 113.185 194.24C102.502 186.903 87.9624 188.956 81.0262 199.917C80.9895 199.917 80.8025 200.199 80.4343 200.762C80.9161 198.508 82.1414 197.178 83.3643 195.89C86.9999 192.587 91.2298 189.963 96.0515 188.678C101.506 188.033 106.918 188.678 111.778 191.297C119.047 195.887 123.869 203.101 125.094 211.641V219.542C123.572 232.478 113.557 242.31 102.022 243.643L102.02 243.638ZM128.691 214.221C128.431 195.284 111.479 182.511 94.9731 185.091C90.1513 186.418 84.882 189.078 81.1363 192.786C79.3191 194.113 78.4668 196.573 76.6484 198.546C69.3772 210.354 70.6368 225.465 79.6897 234.653C80.8501 235.93 82.0894 237.114 83.3986 238.198C75.8339 233.16 72.4197 225.542 71.2287 216.278C71.2287 212.972 71.8207 209.709 72.4517 206.4C76.6874 191.939 90.0021 181.421 104.507 184.082C106.918 184.727 109.33 185.412 111.779 186.057C114.82 187.385 117.824 189.36 120.235 191.984C122.647 194.607 124.464 197.91 126.282 201.168C127.505 203.789 128.099 207.094 128.692 209.711C128.803 211.214 128.803 212.723 128.692 214.226L128.691 214.221Z" fill="black"/>
<path fill-rule="evenodd" clip-rule="evenodd" d="M113.629 214.502C113.629 222.644 107.473 229.252 99.8685 229.252C92.2635 229.252 86.1075 222.645 86.1075 214.502C86.1075 206.36 92.2635 199.752 99.8685 199.752C107.473 199.752 113.629 206.361 113.629 214.502Z" fill="white"/>
<path fill-rule="evenodd" clip-rule="evenodd" d="M113.705 212.004C113.519 210.876 113.222 209.99 112.926 208.742C111.742 206 109.996 203.869 107.694 202.051C99.0903 195.73 87.2566 201.81 85.997 212.611C85.5163 216.882 86.8872 220.992 89.3354 224.136C88.5932 223.289 87.7787 222.404 87.2223 221.395L87.1489 221.477C87.2223 221.718 87.5194 221.878 87.5928 222.119C87.5928 222.119 87.2957 222.119 87.3702 222.079C87.1489 221.799 87.3335 222.243 87.6662 222.845C87.9703 223.46 88.3443 224.03 88.779 224.539C89.5105 225.418 90.3182 226.215 91.1905 226.917C92.8242 227.839 94.2685 229.051 96.1626 229.616C96.6812 229.779 97.2754 229.938 97.8697 230.058C98.4955 230.175 99.1294 230.23 99.7639 230.221C100.473 230.21 101.181 230.128 101.877 229.976C102.718 229.866 103.55 229.678 104.363 229.415C106.178 228.806 107.85 227.76 109.261 226.351C109.965 225.628 110.968 224.701 111.747 223.49C112.379 222.122 112.457 221.436 112.749 220.831C113.042 220.227 113.416 219.542 113.678 218.615C113.89 217.515 114.014 216.396 114.048 215.271C114.011 214.143 113.938 213.055 113.714 212.006L113.705 212.004ZM104.876 204.512C106.138 205.316 106.322 205.433 105.655 204.913C106.621 205.154 107.214 205.759 107.807 206.362C109.254 208.175 110.44 210.313 111.033 212.768C111.367 215.548 111.106 218.328 110.033 220.788C108.104 224.533 105.025 227.032 101.353 227.717C100.944 227.717 100.5 227.717 100.091 227.757C101.13 227.556 101.798 226.835 103.69 226.064C105.728 225.268 108.028 221.515 109.143 219.342C112.406 213.416 108.552 207.938 104.882 204.516L104.876 204.512ZM97.9041 227.799C92.2666 227.155 87.9255 222.038 87.3324 216.114C87.8497 219.42 89.6314 221.956 92.0417 224.213C92.8964 224.818 94.156 225.662 95.0096 226.269C96.4562 226.874 97.3086 227.519 98.7186 227.801H97.9041V227.799ZM113.073 217.041C112.816 218.292 112.555 219.499 112.295 220.75C111.738 222.281 110.923 223.853 109.809 225.096C108.695 226.339 107.286 227.312 105.877 228.239C104.764 228.882 103.354 229.205 102.207 229.526C101.538 229.608 100.761 229.285 100.092 229.246C108.327 229.008 113.965 220.509 112.741 212.085C112.149 209.628 110.959 207.492 109.513 205.357C108.921 204.435 107.768 203.866 106.915 202.938C101.76 199.353 94.9362 200.079 91.0413 204.793C90.4952 205.414 89.9866 206.074 89.5189 206.769C91.5977 203.384 94.9362 201.008 98.9411 200.322C100.351 200.281 101.798 200.565 103.203 200.849C109.436 202.943 114.072 209.633 113.069 217.048L113.073 217.041Z" fill="#D7DF23"/>
<defs>
<clipPath id="clip0_405_2166">
<rect width="188.704" height="32.4667" fill="white" transform="translate(3.14752 90.9067)"/>
</clipPath>
</defs>
</svg>
