<svg width="95" height="95" viewBox="0 0 95 95" fill="none" xmlns="http://www.w3.org/2000/svg">
<path d="M72.3004 57.2775V38.2001H66.1004V51.5533L72.3004 57.2775Z" fill="#758190"/>
<path d="M4.1 84.6992C3.27783 84.6992 2.48933 84.3726 1.90797 83.7912C1.32661 83.2099 1 82.4214 1 81.5992V69.1992C1 67.5548 1.65321 65.9778 2.81594 64.8151C3.97866 63.6524 5.55566 62.9992 7.2 62.9992H87.8C89.4443 62.9992 91.0213 63.6524 92.1841 64.8151C93.3468 65.9778 94 67.5548 94 69.1992V81.5992C94 82.4214 93.6734 83.2099 93.092 83.7912C92.5107 84.3726 91.7222 84.6992 90.9 84.6992H4.1Z" fill="#F9D18B"/>
<path d="M89.35 72.2992H94V69.1992C94 67.5548 93.3467 65.9778 92.184 64.8151C91.0213 63.6524 89.4443 62.9992 87.8 62.9992H84.7V67.6492C84.7 68.8824 85.1899 70.0652 86.0619 70.9372C86.934 71.8093 88.1167 72.2992 89.35 72.2992Z" fill="#ED5C58"/>
<path d="M11.85 78.4992C26.5655 78.6384 40.7654 73.0849 51.482 62.9992H7.2C5.55566 62.9992 3.97866 63.6524 2.81594 64.8151C1.65321 65.9778 1 67.5548 1 69.1992V77.5211C4.57981 78.1734 8.21125 78.5007 11.85 78.4992Z" fill="#FBE3B9"/>
<path d="M1 69.1992V75.3992C2.64434 75.3992 4.22134 74.746 5.38406 73.5832C6.54679 72.4205 7.2 70.8435 7.2 69.1992V62.9992C5.55566 62.9992 3.97866 63.6524 2.81594 64.8151C1.65321 65.9778 1 67.5548 1 69.1992Z" fill="#ED5C58"/>
<path d="M10.3003 62.9996L17.638 51.9946C19.1947 49.6586 21.3042 47.743 23.7792 46.4181C26.2541 45.0931 29.0179 44.3998 31.8251 44.3996H51.6853C55.9714 44.3996 60.1003 46.0139 63.2499 48.921L78.5003 62.9996H10.3003Z" fill="#7FCDEE"/>
<path d="M51.4822 62.9996C55.9596 58.7217 59.5772 53.6267 62.14 47.9894C59.1505 45.665 55.4722 44.402 51.6853 44.3996H31.8251C29.0179 44.3998 26.2541 45.0931 23.7792 46.4181C21.3042 47.743 19.1947 49.6586 17.638 51.9946L10.3003 62.9996H51.4822Z" fill="#B2E1F5"/>
<path d="M94.0001 1H44.4001V32H94.0001V1Z" fill="#F9D18B"/>
<path d="M44.4001 1V23.8207C47.868 25.1285 51.5437 25.7991 55.2501 25.8C70.4075 25.8 82.8788 14.95 84.5079 1H44.4001Z" fill="#FBE3B9"/>
<path d="M19.6003 94.0002C24.7365 94.0002 28.9003 89.8364 28.9003 84.7002C28.9003 79.5639 24.7365 75.4002 19.6003 75.4002C14.464 75.4002 10.3003 79.5639 10.3003 84.7002C10.3003 89.8364 14.464 94.0002 19.6003 94.0002Z" fill="#758190"/>
<path d="M19.6002 87.7997C21.3123 87.7997 22.7002 86.4118 22.7002 84.6997C22.7002 82.9876 21.3123 81.5997 19.6002 81.5997C17.8882 81.5997 16.5002 82.9876 16.5002 84.6997C16.5002 86.4118 17.8882 87.7997 19.6002 87.7997Z" fill="white"/>
<path d="M72.3001 94.0002C77.4364 94.0002 81.6001 89.8364 81.6001 84.7002C81.6001 79.5639 77.4364 75.4002 72.3001 75.4002C67.1639 75.4002 63.0001 79.5639 63.0001 84.7002C63.0001 89.8364 67.1639 94.0002 72.3001 94.0002Z" fill="#758190"/>
<path d="M72.3001 87.7997C74.0122 87.7997 75.4001 86.4118 75.4001 84.6997C75.4001 82.9876 74.0122 81.5997 72.3001 81.5997C70.5881 81.5997 69.2001 82.9876 69.2001 84.6997C69.2001 86.4118 70.5881 87.7997 72.3001 87.7997Z" fill="white"/>
<path d="M42.85 44.3996H36.65V62.9996H42.85V44.3996Z" fill="#758190"/>
<path d="M53.7003 38.2001H28.9003V44.4001H53.7003V38.2001Z" fill="#F9D18B"/>
<path d="M75.4001 31.9996H63.0001V38.1996H75.4001V31.9996Z" fill="#758190"/>
<path d="M10.3 84.6992H4.1C3.27783 84.6992 2.48933 84.3726 1.90797 83.7912C1.32661 83.2099 1 82.4214 1 81.5992V69.1992C1 67.5548 1.65321 65.9778 2.81594 64.8151C3.97866 63.6524 5.55566 62.9992 7.2 62.9992H87.8C89.4443 62.9992 91.0213 63.6524 92.1841 64.8151C93.3468 65.9778 94 67.5548 94 69.1992V81.5992C94 82.4214 93.6734 83.2099 93.092 83.7912C92.5107 84.3726 91.7222 84.6992 90.9 84.6992H81.6" stroke="black" stroke-width="2" stroke-linejoin="round"/>
<path d="M10.3003 62.9996L17.638 51.9946C19.1948 49.6586 21.3042 47.743 23.7792 46.4181C26.2541 45.0931 29.0179 44.3998 31.8251 44.3996H51.6853C55.9714 44.3996 60.1003 46.0139 63.2499 48.921L78.5003 62.9996" stroke="black" stroke-width="2" stroke-linejoin="round"/>
<path d="M94 72.2992H89.35C88.1167 72.2992 86.934 71.8093 86.0619 70.9372C85.1899 70.0652 84.7 68.8824 84.7 67.6492V62.9992" stroke="black" stroke-width="2" stroke-linejoin="round"/>
<path d="M72.3001 94.0002C77.4364 94.0002 81.6001 89.8364 81.6001 84.7002C81.6001 79.5639 77.4364 75.4002 72.3001 75.4002C67.1639 75.4002 63.0001 79.5639 63.0001 84.7002C63.0001 89.8364 67.1639 94.0002 72.3001 94.0002Z" stroke="black" stroke-width="2" stroke-linejoin="round"/>
<path d="M19.6003 94.0002C24.7365 94.0002 28.9003 89.8364 28.9003 84.7002C28.9003 79.5639 24.7365 75.4002 19.6003 75.4002C14.464 75.4002 10.3003 79.5639 10.3003 84.7002C10.3003 89.8364 14.464 94.0002 19.6003 94.0002Z" stroke="black" stroke-width="2" stroke-linejoin="round"/>
<path d="M7.2 62.9992V69.1992C7.2 70.8435 6.54679 72.4205 5.38406 73.5832C4.22134 74.746 2.64434 75.3992 1 75.3992" stroke="black" stroke-width="2" stroke-linejoin="round"/>
<path d="M53.7359 44.4001V38.2001H28.9003V44.4001" stroke="black" stroke-width="2" stroke-linejoin="round"/>
<path d="M72.3001 87.7997C74.0122 87.7997 75.4001 86.4118 75.4001 84.6997C75.4001 82.9876 74.0122 81.5997 72.3001 81.5997C70.5881 81.5997 69.2001 82.9876 69.2001 84.6997C69.2001 86.4118 70.5881 87.7997 72.3001 87.7997Z" stroke="black" stroke-width="2" stroke-linejoin="round"/>
<path d="M19.6002 87.7997C21.3123 87.7997 22.7002 86.4118 22.7002 84.6997C22.7002 82.9876 21.3123 81.5997 19.6002 81.5997C17.8882 81.5997 16.5002 82.9876 16.5002 84.6997C16.5002 86.4118 17.8882 87.7997 19.6002 87.7997Z" stroke="black" stroke-width="2" stroke-linejoin="round"/>
<path d="M63.0003 84.699H28.9003" stroke="black" stroke-width="2" stroke-linejoin="round"/>
<path d="M36.6855 44.3996V62.9996" stroke="black" stroke-width="2" stroke-linejoin="round"/>
<path d="M42.8855 44.3996V62.9996" stroke="black" stroke-width="2" stroke-linejoin="round"/>
<path d="M33.5502 70.7498V73.8498" stroke="black" stroke-width="2" stroke-linejoin="round"/>
<path d="M36.65 67.6496V70.7496" stroke="black" stroke-width="2" stroke-linejoin="round"/>
<path d="M39.7502 70.7498V73.8498" stroke="black" stroke-width="2" stroke-linejoin="round"/>
<path d="M42.85 67.6496V70.7496" stroke="black" stroke-width="2" stroke-linejoin="round"/>
<path d="M45.9502 70.7498V73.8498" stroke="black" stroke-width="2" stroke-linejoin="round"/>
<path d="M49.05 67.6496V70.7496" stroke="black" stroke-width="2" stroke-linejoin="round"/>
<path d="M52.1497 70.7498V73.8498" stroke="black" stroke-width="2" stroke-linejoin="round"/>
<path d="M55.25 67.6496V70.7496" stroke="black" stroke-width="2" stroke-linejoin="round"/>
<path d="M58.3502 70.7498V73.8498" stroke="black" stroke-width="2" stroke-linejoin="round"/>
<path d="M94.0001 1H44.4001V32H94.0001V1Z" stroke="black" stroke-width="2" stroke-linejoin="round"/>
<path d="M49.05 11.849H58.35" stroke="black" stroke-width="2" stroke-linejoin="round"/>
<path d="M53.7003 11.849V22.699" stroke="black" stroke-width="2" stroke-linejoin="round"/>
<path d="M63.0001 22.699V14.949C63.0001 14.1268 63.3267 13.3383 63.9081 12.7569C64.4895 12.1756 65.278 11.849 66.1001 11.849V11.849C66.9223 11.849 67.7108 12.1756 68.2922 12.7569C68.8735 13.3383 69.2001 14.1268 69.2001 14.949V22.699" stroke="black" stroke-width="2" stroke-linejoin="round"/>
<path d="M63.0001 18.0495H69.2001" stroke="black" stroke-width="2" stroke-linejoin="round"/>
<path d="M75.4001 10.2988C75.4001 11.2816 75.5936 12.2547 75.9697 13.1627C76.3457 14.0706 76.897 14.8956 77.5918 15.5905L79.4084 17.4071C80.1033 18.1021 80.6545 18.927 81.0306 19.835C81.4067 20.7429 81.6002 21.7161 81.6001 22.6988" stroke="black" stroke-width="2" stroke-linejoin="round"/>
<path d="M81.6001 10.2988C81.6002 11.2816 81.4067 12.2547 81.0306 13.1627C80.6545 14.0706 80.1033 14.8956 79.4084 15.5905L77.5918 17.4071C76.897 18.1021 76.3457 18.927 75.9697 19.835C75.5936 20.7429 75.4001 21.7161 75.4001 22.6988V22.6988" stroke="black" stroke-width="2" stroke-linejoin="round"/>
<path d="M87.8002 10.2988V22.6988" stroke="black" stroke-width="2" stroke-linejoin="round"/>
<path d="M63.0001 31.9996V38.1996H75.4001V31.9996" stroke="black" stroke-width="2" stroke-linejoin="round"/>
<path d="M66.1004 38.2001V52.1501" stroke="black" stroke-width="2" stroke-linejoin="round"/>
<path d="M72.2999 38.2001V56.8001" stroke="black" stroke-width="2" stroke-linejoin="round"/>
</svg>
