<svg width="25" height="24" viewBox="0 0 25 24" fill="none" xmlns="http://www.w3.org/2000/svg">
<path d="M5.60007 21.4666C6.02349 21.4666 6.36674 21.1233 6.36674 20.6999C6.36674 20.2765 6.02349 19.9333 5.60007 19.9333C5.17665 19.9333 4.8334 20.2765 4.8334 20.6999C4.8334 21.1233 5.17665 21.4666 5.60007 21.4666Z" fill="white"/>
<path d="M18.6334 21.4666C19.0568 21.4666 19.4 21.1233 19.4 20.6999C19.4 20.2765 19.0568 19.9333 18.6334 19.9333C18.2099 19.9333 17.8667 20.2765 17.8667 20.6999C17.8667 21.1233 18.2099 21.4666 18.6334 21.4666Z" fill="white"/>
<path d="M3.3 20.6998H1.76667C1.56333 20.6998 1.36833 20.619 1.22455 20.4752C1.08077 20.3315 1 20.1365 1 19.9331V16.8665C1 16.4598 1.16155 16.0698 1.4491 15.7822C1.73666 15.4947 2.12667 15.3331 2.53333 15.3331H22.4667C22.8733 15.3331 23.2633 15.4947 23.5509 15.7822C23.8385 16.0698 24 16.4598 24 16.8665V19.9331C24 20.1365 23.9192 20.3315 23.7754 20.4752C23.6317 20.619 23.4367 20.6998 23.2333 20.6998H20.9333" stroke="white" stroke-width="0.5" stroke-linejoin="round"/>
<path d="M3.30008 15.3332L5.11478 12.6115C5.49978 12.0338 6.02148 11.5601 6.63356 11.2324C7.24564 10.9047 7.92916 10.7333 8.62343 10.7332H13.5351C14.5951 10.7332 15.6162 11.1324 16.3951 11.8514L20.1667 15.3332" stroke="white" stroke-width="0.5" stroke-linejoin="round"/>
<path d="M24 17.6331H22.85C22.545 17.6331 22.2525 17.512 22.0368 17.2963C21.8211 17.0806 21.7 16.7881 21.7 16.4831V15.3331" stroke="white" stroke-width="0.5" stroke-linejoin="round"/>
<path d="M18.6334 23C19.9037 23 20.9334 21.9703 20.9334 20.7C20.9334 19.4298 19.9037 18.4 18.6334 18.4C17.3631 18.4 16.3334 19.4298 16.3334 20.7C16.3334 21.9703 17.3631 23 18.6334 23Z" stroke="white" stroke-width="0.5" stroke-linejoin="round"/>
<path d="M5.60008 23C6.87033 23 7.90008 21.9703 7.90008 20.7C7.90008 19.4298 6.87033 18.4 5.60008 18.4C4.32982 18.4 3.30008 19.4298 3.30008 20.7C3.30008 21.9703 4.32982 23 5.60008 23Z" stroke="white" stroke-width="0.5" stroke-linejoin="round"/>
<path d="M2.53333 15.3331V16.8665C2.53333 17.2731 2.37179 17.6631 2.08423 17.9507C1.79667 18.2382 1.40667 18.3998 1 18.3998" stroke="white" stroke-width="0.5" stroke-linejoin="round"/>
<path d="M14.0422 10.7333V9.19998H7.90005V10.7333" stroke="white" stroke-width="0.5" stroke-linejoin="round"/>
<path d="M18.6334 21.4666C19.0568 21.4666 19.4 21.1233 19.4 20.6999C19.4 20.2765 19.0568 19.9333 18.6334 19.9333C18.2099 19.9333 17.8667 20.2765 17.8667 20.6999C17.8667 21.1233 18.2099 21.4666 18.6334 21.4666Z" stroke="white" stroke-width="0.5" stroke-linejoin="round"/>
<path d="M5.60007 21.4666C6.02349 21.4666 6.36674 21.1233 6.36674 20.6999C6.36674 20.2765 6.02349 19.9333 5.60007 19.9333C5.17665 19.9333 4.8334 20.2765 4.8334 20.6999C4.8334 21.1233 5.17665 21.4666 5.60007 21.4666Z" stroke="white" stroke-width="0.5" stroke-linejoin="round"/>
<path d="M16.3334 20.6998H7.90005" stroke="white" stroke-width="0.5" stroke-linejoin="round"/>
<path d="M9.82544 10.7332V15.3332" stroke="white" stroke-width="0.5" stroke-linejoin="round"/>
<path d="M11.3588 10.7332V15.3332" stroke="white" stroke-width="0.5" stroke-linejoin="round"/>
<path d="M9.05005 17.25V18.0166" stroke="white" stroke-width="0.5" stroke-linejoin="round"/>
<path d="M9.81665 16.4832V17.2499" stroke="white" stroke-width="0.5" stroke-linejoin="round"/>
<path d="M10.5834 17.25V18.0166" stroke="white" stroke-width="0.5" stroke-linejoin="round"/>
<path d="M11.35 16.4832V17.2499" stroke="white" stroke-width="0.5" stroke-linejoin="round"/>
<path d="M12.1167 17.25V18.0166" stroke="white" stroke-width="0.5" stroke-linejoin="round"/>
<path d="M12.8833 16.4832V17.2499" stroke="white" stroke-width="0.5" stroke-linejoin="round"/>
<path d="M13.6499 17.25V18.0166" stroke="white" stroke-width="0.5" stroke-linejoin="round"/>
<path d="M14.4167 16.4832V17.2499" stroke="white" stroke-width="0.5" stroke-linejoin="round"/>
<path d="M15.1834 17.25V18.0166" stroke="white" stroke-width="0.5" stroke-linejoin="round"/>
</svg>
