<svg width="95" height="100" viewBox="0 0 95 100" fill="none" xmlns="http://www.w3.org/2000/svg">
<path d="M44.7213 45.2535C44.7213 48.69 41.9992 51.4806 38.6397 51.4806C37.8654 51.4806 37.1268 51.3344 36.4477 51.0602V63.2891H24.2786C24.6777 62.3995 24.9041 61.4002 24.9041 60.34C24.9041 56.6415 22.176 53.6437 18.8165 53.6437C15.4571 53.6437 12.735 56.6415 12.735 60.34C12.735 61.4002 12.9553 62.3995 13.3604 63.2891H1.19128V27.224H36.4477V39.4529C37.1268 39.1787 37.8654 39.0324 38.6397 39.0324C41.9992 39.0324 44.7213 41.817 44.7213 45.2535Z" stroke="#000" stroke-width="4" stroke-miterlimit="10"/>
<path d="M13.3604 63.2891C12.9554 62.3995 12.735 61.4002 12.735 60.34C12.735 56.6415 15.4571 53.6437 18.8166 53.6437C22.176 53.6437 24.9041 56.6415 24.9041 60.34C24.9041 61.4002 24.6777 62.3995 24.2787 63.2891" stroke="#000" stroke-width="4" stroke-miterlimit="10"/>
<path d="M86.7026 45.9603C84.326 48.3914 80.4721 48.3975 78.0955 45.9664C77.5475 45.4058 77.1246 44.766 76.8387 44.0836L68.3864 52.7297L59.7793 43.9252C60.6787 43.584 61.5245 43.0417 62.2572 42.2922C64.8125 39.6783 64.9555 35.5837 62.5788 33.1526C60.2022 30.7214 56.2054 30.8738 53.65 33.4877C52.9174 34.2372 52.3813 35.1024 52.0537 36.0224L43.4585 27.224L68.3864 1.72437L93.3143 27.224L84.862 35.8701C85.5292 36.1687 86.1546 36.5952 86.7026 37.1558C89.0792 39.593 89.0792 43.5291 86.7026 45.9603Z" stroke="#000" stroke-width="4" stroke-miterlimit="10"/>
<path d="M52.0596 36.0285C52.3872 35.1085 52.9233 34.2433 53.656 33.4938C56.2113 30.8799 60.2081 30.7275 62.5847 33.1587C64.9614 35.5898 64.8184 39.6844 62.2631 42.2983C61.5304 43.0478 60.6787 43.5901 59.7852 43.9313" stroke="#000" stroke-width="4" stroke-miterlimit="10"/>
<path d="M18.8165 54.2529C22.176 54.2529 24.9041 57.0375 24.9041 60.474C24.9041 61.2661 24.7611 62.0216 24.4931 62.7162H36.4477V75.1645C35.5781 74.7562 34.6012 74.5247 33.5648 74.5247C29.9492 74.5247 27.0186 77.3153 27.0186 80.7518C27.0186 84.1883 29.9492 86.9729 33.5648 86.9729C34.6012 86.9729 35.5781 86.7474 36.4477 86.3331V98.7813H1.19128V62.7162H13.146C12.8779 62.0216 12.735 61.2661 12.735 60.474C12.735 57.0375 15.4571 54.2529 18.8165 54.2529Z" stroke="#000" stroke-width="4" stroke-miterlimit="10"/>
<path d="M36.4477 86.3331C35.5781 86.7474 34.6012 86.9729 33.5648 86.9729C29.9492 86.9729 27.0186 84.1883 27.0186 80.7518C27.0186 77.3153 29.9492 74.5247 33.5648 74.5247C34.6012 74.5247 35.5781 74.7562 36.4477 75.1644" stroke="#000" stroke-width="4" stroke-miterlimit="10"/>
<path d="M27.6143 80.7519C27.6143 77.3154 30.3364 74.5247 33.6958 74.5247C34.4702 74.5247 35.2088 74.671 35.8878 74.9452V62.7163H48.0569C47.6578 63.6059 47.4315 64.6052 47.4315 65.6654C47.4315 69.3639 50.1596 72.3617 53.519 72.3617C56.8785 72.3617 59.6006 69.3639 59.6006 65.6654C59.6006 64.6052 59.3802 63.6059 58.9752 62.7163H71.1443V98.7814H35.8878V86.5525C35.2088 86.8267 34.4702 86.973 33.6958 86.973C30.3364 86.973 27.6143 84.1884 27.6143 80.7519Z" stroke="#000" stroke-width="4" stroke-miterlimit="10"/>
<path d="M58.9751 62.7163C59.3802 63.6059 59.6006 64.6052 59.6006 65.6654C59.6006 69.3639 56.8784 72.3617 53.519 72.3617C50.1595 72.3617 47.4315 69.3639 47.4315 65.6654C47.4315 64.6052 47.6578 63.6059 48.0569 62.7163" stroke="#000" stroke-width="4" stroke-miterlimit="10"/>
</svg>
