<svg width="241" height="241" viewBox="0 0 241 241" fill="none" xmlns="http://www.w3.org/2000/svg">
<path d="M120.5 241C53.9599 241 0 187.04 0 120.5C0 53.9599 53.9599 0 120.5 0C187.04 0 241 53.9599 241 120.5C241 187.04 187.04 241 120.5 241Z" fill="#25D366"/>
<path fill-rule="evenodd" clip-rule="evenodd" d="M176.871 64.3883C161.929 49.4222 142.022 41.18 120.838 41.1559C77.1931 41.1559 41.6456 76.6793 41.6456 120.348C41.6456 134.302 45.2847 147.943 52.2255 159.945L40.9949 200.987L82.9771 189.973C94.5451 196.288 107.559 199.613 120.814 199.613H120.838C164.483 199.613 200.007 164.09 200.031 120.421C200.055 99.261 191.837 79.3544 176.871 64.3883ZM120.862 186.238H120.838C109.029 186.238 97.4371 183.057 87.3392 177.056L84.9292 175.634L60.0098 182.165L66.6614 157.872L65.0949 155.39C58.5156 144.906 55.0211 132.808 55.0211 120.348C55.0452 84.0539 84.5677 54.5314 120.886 54.5314C138.479 54.5314 154.988 61.3999 167.424 73.8355C179.859 86.2711 186.704 102.828 186.679 120.397C186.679 156.715 157.133 186.238 120.862 186.238ZM156.964 136.929C154.988 135.941 145.252 131.145 143.444 130.495C141.637 129.844 140.311 129.506 138.986 131.483C137.66 133.459 133.876 137.917 132.72 139.243C131.563 140.568 130.406 140.737 128.43 139.749C126.454 138.761 120.067 136.664 112.524 129.916C106.643 124.662 102.667 118.179 101.51 116.203C100.353 114.227 101.39 113.143 102.378 112.154C103.269 111.263 104.354 109.841 105.342 108.684C106.33 107.527 106.667 106.708 107.318 105.382C107.969 104.057 107.656 102.9 107.149 101.912C106.643 100.924 102.691 91.1875 101.052 87.211C99.4374 83.355 97.8227 83.8852 96.5936 83.8129C95.4368 83.7647 94.1113 83.7406 92.8099 83.7406C91.4844 83.7406 89.3395 84.2467 87.532 86.2229C85.7245 88.1991 80.6153 92.995 80.6153 102.731C80.6153 112.468 87.7007 121.891 88.6888 123.192C89.6769 124.518 102.643 144.497 122.501 153.076C127.225 155.125 130.912 156.33 133.78 157.246C138.528 158.764 142.842 158.547 146.24 158.041C150.047 157.462 157.952 153.245 159.591 148.642C161.23 144.015 161.23 140.062 160.748 139.243C160.266 138.423 158.94 137.941 156.964 136.929Z" fill="white"/>
</svg>
